<?xml version="1.0" standalone="no"?>
<!DOCTYPE svg PUBLIC "-//W3C//DTD SVG 1.1//EN" "http://www.w3.org/Graphics/SVG/1.1/DTD/svg11.dtd" >
<svg xmlns="http://www.w3.org/2000/svg">
<metadata></metadata>
<defs>
<font id="baron_neueregular" horiz-adv-x="1144" >
<font-face units-per-em="2048" ascent="1536" descent="-512" />
<missing-glyph horiz-adv-x="706" />
<glyph unicode=" "  horiz-adv-x="706" />
<glyph unicode="&#x09;" horiz-adv-x="706" />
<glyph unicode="&#xa0;" horiz-adv-x="706" />
<glyph unicode="!" horiz-adv-x="565" d="M145 119q0 56 40.5 96.5t95.5 40.5q57 0 97 -40.5t40 -96.5t-40 -95.5t-97 -39.5q-56 0 -96 40t-40 95zM162 418v1016h239v-1016h-239z" />
<glyph unicode="&#x22;" horiz-adv-x="679" d="M63 977v457h218v-457h-218zM391 977v457h217v-457h-217z" />
<glyph unicode="#" horiz-adv-x="1398" d="M8 297l60 209h178l102 366h-180l57 203h181l100 359h237l-100 -359h240l100 359h238l-101 -359h180l-57 -203h-180l-102 -366h180l-60 -209h-180l-84 -299h-237l84 299h-240l-84 -299h-236l82 299h-178zM473 500h256l107 379h-256z" />
<glyph unicode="$" horiz-adv-x="1112" d="M111 403h239q1 -64 37.5 -106.5t95.5 -60.5v372q-81 12 -139 41q-113 53 -173 146.5t-60 220.5q0 170 102 283.5t256 142.5v166h178v-166q154 -27 252.5 -136.5t101.5 -267.5h-237q-3 65 -38 106.5t-93 55.5v-373q73 -11 139 -41q234 -108 234 -383q0 -178 -101 -283 t-258 -128v-144h-178v148q-160 26 -258.5 131t-99.5 276zM350 1016q0 -65 36.5 -108.5t96.5 -63.5v356q-61 -18 -97 -65t-36 -119zM633 233q61 15 98 57t37 113q0 152 -135 189v-359z" />
<glyph unicode="%" horiz-adv-x="1359" d="M0 4l1112 1430h227l-1112 -1430h-227zM43 1139q0 121 86.5 208t208.5 87t208.5 -87t86.5 -208t-86.5 -208t-208.5 -87t-208.5 87t-86.5 208zM213 1139q0 -53 36.5 -89t88.5 -36t88.5 36t36.5 89t-36.5 90t-88.5 37t-88.5 -37t-36.5 -90zM698 301q0 124 87 211.5t210 87.5 q125 0 212 -87t87 -212q0 -123 -87.5 -210t-211.5 -87q-123 0 -210 87t-87 210zM868 301q0 -53 37 -90t90 -37q54 0 91.5 37t37.5 90q0 54 -37.5 91.5t-91.5 37.5q-53 0 -90 -37.5t-37 -91.5z" />
<glyph unicode="&#x26;" horiz-adv-x="1337" d="M87 510q26 175 171 301q-60 51 -93.5 121.5t-33.5 152.5q0 148 105 253.5t253 105.5q149 0 254 -105.5t105 -253.5q0 -98 -48.5 -180.5t-129.5 -130.5l217 -225v276h381v-215h-181v-123q0 -33 -18 -100l219 -217l-170 -170l-170 170q-73 -92 -183 -137.5t-220 -41 t-213.5 55t-165.5 137.5q-105 151 -79 326zM332 513.5q-25 -88.5 37 -179.5q43 -58 119.5 -83.5t158 -3t131.5 92.5l-332 322q-89 -60 -114 -148.5zM358 1085q0 -54 38.5 -93.5t92.5 -39.5t93 39.5t39 93.5t-39 93t-93 39t-92.5 -39t-38.5 -93z" />
<glyph unicode="'" horiz-adv-x="339" d="M63 977v457h218v-457h-218z" />
<glyph unicode="(" horiz-adv-x="636" d="M125 721q0 364 184 711h277q-224 -349 -224 -709q0 -381 222 -723h-277q-182 343 -182 721z" />
<glyph unicode=")" horiz-adv-x="630" d="M49 0q223 347 223 709q0 155 -41 313q-53 212 -180 410h277q86 -165 135 -351q47 -181 47 -368q0 -366 -184 -713h-277z" />
<glyph unicode="*" horiz-adv-x="784" d="M78 1069v105h186l-145 145l74 74l145 -146v187h104v-187l144 146l73 -74l-145 -145h186v-105h-186l145 -145l-73 -72l-144 143v-186h-104v186l-145 -143l-74 72l145 145h-186z" />
<glyph unicode="+" horiz-adv-x="956" d="M55 612v207h297v311h209v-311h311v-207h-311v-315h-209v315h-297z" />
<glyph unicode="," horiz-adv-x="380" d="M41 111q0 53 37.5 90t89.5 37q50 0 83.5 -19.5t46.5 -51t14.5 -71.5t-11 -83t-31.5 -82.5t-46 -72.5t-56 -51v177q-52 0 -89.5 37t-37.5 90z" />
<glyph unicode="-" horiz-adv-x="907" d="M84 612v217h721v-217h-721z" />
<glyph unicode="." horiz-adv-x="368" d="M53 115q0 54 37.5 92.5t89.5 38.5q55 0 93 -38.5t38 -92.5q0 -53 -38 -90t-93 -37q-52 0 -89.5 37t-37.5 90z" />
<glyph unicode="/" horiz-adv-x="925" d="M0 -2l666 1436h243l-671 -1436h-238z" />
<glyph unicode="0" horiz-adv-x="1157" d="M160 399v637q0 98 36 177.5t94.5 128.5t133.5 75.5t153.5 26.5t153.5 -26.5t133.5 -75.5t94.5 -128.5t36 -177.5v-637q0 -98 -36 -177.5t-94.5 -128.5t-133.5 -75.5t-153.5 -26.5t-153.5 26.5t-133.5 75.5t-94.5 128.5t-36 177.5zM399 387q0 -43 15.5 -77.5t40.5 -55.5 t57 -32t65.5 -11t65.5 11.5t57 32.5t40.5 55.5t15.5 76.5v668q0 48 -19.5 85.5t-51 57t-69.5 28.5t-76.5 -0.5t-70 -29t-51 -56.5t-19.5 -85v-668z" />
<glyph unicode="1" horiz-adv-x="679" d="M-10 1255l329 179h203v-1434h-239v1161l-213 -78z" />
<glyph unicode="2" horiz-adv-x="1003" d="M74 0v217l514 707q57 82 54.5 146t-45 103t-105.5 39q-73 0 -126 -43t-53 -129h-225q0 88 24.5 161.5t72.5 130t126.5 88.5t180.5 32q86 0 165.5 -33.5t135.5 -95t83.5 -140t7 -178t-92.5 -198.5l-426 -567h544v-240h-835z" />
<glyph unicode="3" horiz-adv-x="1009" d="M59 406h236q0 -81 60.5 -131t138.5 -50q97 0 147.5 52t50.5 153q0 88 -53 151.5t-156 63.5h-198l301 557h-480v232h844l-321 -598q143 -33 224 -139.5t81 -276.5q0 -91 -24 -164t-65 -122.5t-97.5 -82.5t-119.5 -48t-134 -15q-116 0 -214.5 50t-159.5 147t-61 221z" />
<glyph unicode="4" horiz-adv-x="1054" d="M66 434v225l591 775h238v-1434h-238v434h-591zM317 643h340v428z" />
<glyph unicode="5" horiz-adv-x="1026" d="M88 403h238q0 -89 50 -134.5t130 -45.5q81 0 141 51.5t60 147.5q0 33 -4 63t-17.5 63.5t-34.5 57.5t-58.5 40t-86.5 16h-408v772h770v-226h-530v-323h168q221 0 329.5 -121.5t108.5 -341.5q0 -100 -36 -183.5t-97 -138t-140 -84.5t-165 -30q-181 0 -299.5 109.5 t-118.5 307.5z" />
<glyph unicode="6" horiz-adv-x="966" d="M64.5 381q-2.5 82 19.5 170l307 883h254l-225 -639q39 20 106 20q109 0 194 -60t128 -153.5t43 -200.5q0 -173 -123 -295t-295 -122q-88 0 -163.5 31t-126.5 85t-83.5 126.5t-35 154.5zM291 399q0 -76 54.5 -131t129.5 -55q77 0 132 55t55 131q0 77 -55 132t-132 55 q-56 0 -102 -31.5t-68 -81.5q-14 -22 -14 -74z" />
<glyph unicode="7" horiz-adv-x="892" d="M37 1200v232h856l-539 -1432h-254l453 1200h-516z" />
<glyph unicode="8" horiz-adv-x="997" d="M76 420q0 85 42.5 166t108.5 133q-68 54 -109.5 133.5t-41.5 165.5q0 103 36 186.5t95 134.5t134 78.5t153.5 27.5t153.5 -28t134 -79t95 -134t36 -186q0 -89 -42.5 -170.5t-116.5 -128.5q76 -58 117.5 -135t41.5 -164q0 -103 -36 -187t-95 -135t-134 -79t-153.5 -28.5 t-153.5 27.5t-134 79.5t-95 135t-36 187.5zM303 1018q0 -79 56.5 -136t134.5 -57q79 0 135.5 56.5t56.5 136.5q0 55 -21 98.5t-55 66t-75 33t-81.5 0t-74.5 -32.5t-55 -65.5t-21 -99.5zM309 420q0 -63 27.5 -109.5t68.5 -67t89.5 -20.5t89.5 20.5t68.5 67t27.5 109.5 q0 77 -54 130.5t-132 53.5q-77 0 -131 -54t-54 -130z" />
<glyph unicode="9" horiz-adv-x="995" d="M66 1032q0 173 122.5 295.5t294.5 122.5q88 0 163.5 -31t126.5 -85t83.5 -126.5t35 -154.5t-19.5 -170l-307 -883h-254l226 639q-40 -21 -107 -21q-109 0 -194 60t-127.5 153.5t-42.5 200.5zM295 1034q0 -76 54.5 -131t131.5 -55q56 0 102 31.5t68 81.5q15 24 15 73 q0 76 -55 131.5t-130 55.5q-76 0 -131 -55t-55 -132z" />
<glyph unicode=":" horiz-adv-x="368" d="M53 115q0 54 37.5 92.5t89.5 38.5q55 0 93 -38.5t38 -92.5q0 -53 -38 -90t-93 -37q-52 0 -89.5 37t-37.5 90zM53 698q0 54 37.5 92.5t89.5 38.5q55 0 93 -38.5t38 -92.5q0 -53 -38 -90t-93 -37q-52 0 -89.5 37.5t-37.5 89.5z" />
<glyph unicode=";" horiz-adv-x="370" d="M41 111q0 53 37.5 90t89.5 37q50 0 83.5 -19.5t46.5 -51t14.5 -71.5t-11 -83t-31.5 -82.5t-46 -72.5t-56 -51v177q-52 0 -89.5 37t-37.5 90zM53 698q0 54 37.5 92.5t89.5 38.5q55 0 93 -38.5t38 -92.5q0 -53 -38 -90t-93 -37q-52 0 -89.5 37.5t-37.5 89.5z" />
<glyph unicode="&#x3c;" horiz-adv-x="714" d="M43 700l451 478l137 -142l-318 -336l318 -331l-137 -144z" />
<glyph unicode="=" horiz-adv-x="874" d="M76 309v207h717v-207h-717zM76 674v205h717v-205h-717z" />
<glyph unicode="&#x3e;" horiz-adv-x="708" d="M78 369l317 331l-317 336l137 142l451 -478l-451 -475z" />
<glyph unicode="?" horiz-adv-x="1003" d="M59 1059q0 170 121.5 282.5t296.5 112.5q189 0 309.5 -113t120.5 -319q0 -138 -94.5 -242t-237.5 -131v-252h-217v432q88 -6 152 10.5t96.5 47.5t47 64.5t14.5 70.5q0 192 -191 192q-76 0 -128 -42t-52 -113h-238zM336 125q0 42 20.5 72.5t50.5 45t66 15t66 -13.5 t50.5 -45t20.5 -74q0 -42 -20.5 -72.5t-50.5 -45t-66 -15t-66 13.5t-50.5 45t-20.5 74z" />
<glyph unicode="@" horiz-adv-x="1832" d="M-20 717q0 118 33 228t97 202t152 161t205.5 107.5t249.5 38.5q149 0 282 -51t234.5 -143.5t161 -233t59.5 -309.5v-359h-737q-149 0 -254 105t-105 254q0 148 105 253t254 105q148 0 253 -105t105 -253q0 -57 -20 -119h159v119q0 116 -40.5 212.5t-109 159t-158 96.5 t-189.5 34q-119 0 -215.5 -41t-157.5 -111t-94 -160t-33 -190t34 -190t96 -160t158 -111t212 -41h717v-231h-717q-165 0 -305 59t-233.5 159.5t-146 233.5t-52.5 281zM584 717q0 -55 39 -94t94 -39t94 39t39 94t-39 94t-94 39t-94 -39t-39 -94z" />
<glyph unicode="A" d="M0 0l571 1475l574 -1475h-258l-64 166h-504l-61 -166h-258zM397 373h348l-174 497z" />
<glyph unicode="B" horiz-adv-x="1234" d="M162 0v1434h477q10 0 27 -0.5t66.5 -7.5t95 -20.5t100.5 -43t94.5 -71t66.5 -109.5t27 -152q0 -131 -68 -210t-171 -105q55 -11 99 -34t70.5 -50.5t46 -58t27.5 -58.5t12.5 -51t4.5 -37v-14q0 -63 -14 -117.5t-37.5 -93.5t-56.5 -70.5t-67.5 -52t-75.5 -36t-75 -23 t-71 -12.5t-58.5 -6t-42.5 -1h-477zM399 238h240q34 0 65.5 3.5t68 15t63 30.5t44 52.5t17.5 78.5q0 54 -26.5 92t-64.5 54t-76 24q-34 8 -58 8h-6h-27h-240v-358zM399 836h240q5 0 13.5 0.5t33.5 4t47.5 9.5t49.5 19.5t47 31.5t33.5 47.5t13.5 65.5q0 54 -24.5 92.5 t-59.5 55t-70 25.5t-59 9h-25h-240v-360z" />
<glyph unicode="C" horiz-adv-x="1421" d="M113 717q0 213 91.5 381.5t255 262t371.5 93.5q147 0 277 -55.5t229 -155.5l-168 -168q-66 66 -153.5 102.5t-184.5 36.5q-218 0 -346.5 -138.5t-128.5 -358.5q0 -225 136 -361.5t339 -136.5q97 0 184.5 36.5t153.5 102.5l168 -170q-99 -99 -229 -153.5t-277 -54.5 q-198 0 -360.5 89t-260 258.5t-97.5 389.5z" />
<glyph unicode="D" horiz-adv-x="1355" d="M162 0v1434h239q64 0 121 -3.5t125 -13.5t126.5 -27t120 -45.5t111 -66t94.5 -92.5t75 -121.5t47.5 -155t17.5 -192.5q0 -127 -28 -232t-75 -178t-115 -129t-140 -89t-158.5 -53.5t-162.5 -28t-159 -7.5h-239zM401 233l33 -3q8 -1 22 -1q23 -1 62 1q62 2 118.5 14.5 t125 45.5t118 83.5t83.5 139.5t34 204q0 92 -20.5 167.5t-55 125t-79 87.5t-94 57.5t-99 32.5t-94 15.5t-79 2.5t-54.5 -3l-21 -2v-967z" />
<glyph unicode="E" horiz-adv-x="1204" d="M162 0v1434h956v-240h-717v-358h596v-238h-596v-358h717v-240h-956z" />
<glyph unicode="F" horiz-adv-x="1187" d="M162 0v1434h956v-240h-717v-358h596v-238h-596v-598h-239z" />
<glyph unicode="G" horiz-adv-x="1583" d="M119 717q0 157 57 294.5t153.5 234t228.5 152.5t278 56q147 0 276.5 -55.5t228.5 -155.5l-167 -168q-66 66 -153.5 102.5t-184.5 36.5q-133 0 -240.5 -58t-172.5 -172.5t-65 -266.5q0 -127 37 -224.5t103.5 -156.5t151 -88t186.5 -29q105 0 198 43t160 119v207h-240v227 h480v-821h-209l-13 135q-86 -81 -181.5 -115t-225.5 -34q-145 0 -270 50t-217.5 142t-145.5 232.5t-53 312.5z" />
<glyph unicode="H" horiz-adv-x="1404" d="M166 0v1434h240v-594h595v594h240v-1434h-240v598h-595v-598h-240z" />
<glyph unicode="I" horiz-adv-x="716" d="M68 0v219h168v995h-160v220h559v-220h-160v-995h168v-219h-575z" />
<glyph unicode="J" horiz-adv-x="831" d="M70 0v240h180q50 0 87.5 18.5t54 44.5t26.5 52t11 45l1 18v799h-258v219h498v-1018q0 -85 -23 -154.5t-60 -111.5t-82 -73.5t-90 -46t-82 -22.5t-60 -9l-23 -1h-180z" />
<glyph unicode="K" horiz-adv-x="1323" d="M162 0v1434h239v-723l588 723h299l-592 -729l596 -705h-313l-442 545l-136 -152v-393h-239z" />
<glyph unicode="L" horiz-adv-x="1026" d="M162 0v1434h239v-1194h531v-240h-770z" />
<glyph unicode="M" horiz-adv-x="1875" d="M160 0v1436h243l545 -1117l522 1117h244v-1436h-239v881l-412 -881h-225l-439 899v-899h-239z" />
<glyph unicode="N" horiz-adv-x="1519" d="M162 0v1434h241l715 -1020v1020h238v-1434h-242l-713 1020v-1020h-239z" />
<glyph unicode="O" horiz-adv-x="1306" d="M117 922q0 144 71.5 266.5t194 194t266.5 71.5t267 -71.5t194.5 -194t71.5 -266.5q0 -108 -42.5 -206.5t-114 -170t-170 -114t-206.5 -42.5q-144 0 -266.5 71.5t-194 194.5t-71.5 267zM170 0v238h946v-238h-946zM354 922q0 -123 86 -209t209 -86t209 86t86 209t-86 209 t-209 86t-209 -86t-86 -209z" />
<glyph unicode="P" horiz-adv-x="1193" d="M162 0v836h227l-227 358v240h477q10 0 27 -1t66.5 -9t95 -22.5t100.5 -46t94.5 -73.5t66.5 -111.5t27 -154.5q0 -67 -16.5 -124t-44 -97t-63 -73t-75.5 -52.5t-79.5 -34.5t-75 -21.5t-63 -10.5t-43.5 -5h-17h-238v-598h-239zM446 1194l224 -356q31 4 60.5 12.5t66.5 27 t59.5 54t22.5 84.5q0 50 -24.5 86.5t-60 53.5t-71 26.5t-59.5 10.5l-25 1h-193z" />
<glyph unicode="Q" horiz-adv-x="1683" d="M115 721q0 148 53.5 282t147 233.5t228.5 158.5t290 59q206 0 372 -100.5t257 -267.5t91 -365q0 -116 -34 -228t-95 -200l154 -162l-174 -164l-148 154q-188 -139 -423 -139q-196 0 -361 96t-261.5 266t-96.5 377zM354 721q0 -145 65 -260t174 -177.5t241 -62.5 q138 0 258 76l-650 715q-41 -58 -64.5 -136t-23.5 -155zM627 1167l628 -694q58 107 58 248q0 130 -63.5 243.5t-174.5 181.5t-241 68q-111 0 -207 -47z" />
<glyph unicode="R" horiz-adv-x="1253" d="M164 0v836h227l-227 358v240h477q10 0 27 -1t67 -9t95 -22.5t100.5 -46t95 -73.5t67 -111.5t27.5 -154.5q0 -90 -28.5 -161.5t-78 -116.5t-99.5 -72t-109 -43l389 -623h-281l-372 598h-138v-598h-239zM449 1194l223 -356q23 2 46.5 7t54 18t53.5 31t39 50t16 72 q0 50 -24.5 86.5t-60 53.5t-71 26.5t-59.5 10.5l-25 1h-192z" />
<glyph unicode="S" horiz-adv-x="1112" d="M111 397h239q3 -85 63.5 -131.5t145.5 -46.5q86 0 147.5 51t61.5 133q0 85 -65 140.5t-144 58.5q-111 0 -215 47q-113 53 -173 146.5t-60 220.5q0 131 64.5 233t165.5 153.5t218 51.5q188 0 313.5 -115.5t128.5 -296.5h-237q-3 85 -60.5 128.5t-144.5 43.5 q-90 0 -149.5 -51.5t-59.5 -146.5q0 -85 62 -133.5t147 -48.5q109 0 213 -48q113 -52 173.5 -153t60.5 -230q0 -132 -64.5 -230t-164.5 -145.5t-218 -47.5q-194 5 -319.5 114t-128.5 303z" />
<glyph unicode="T" horiz-adv-x="917" d="M41 1214v220h840v-220h-301v-1214h-238v1214h-301z" />
<glyph unicode="U" horiz-adv-x="1515" d="M162 575v859h1192v-859q0 -21 -2.5 -51.5t-20.5 -103.5t-49 -135q-73 -148 -208.5 -226.5t-315.5 -78.5t-316 78.5t-209 226.5q-31 62 -49 135t-20 103t-2 52zM399 575q3 -98 52 -190q87 -166 307 -166q223 0 307 166q22 41 34.5 91t14.5 71t2 31v616h-717v-619z" />
<glyph unicode="V" horiz-adv-x="1138" d="M0 1434h1145l-572 -1493zM352 1196l221 -610l220 610h-441z" />
<glyph unicode="W" horiz-adv-x="2050" d="M4 1434h258l313 -846l316 846h266l316 -846l315 846h258l-573 -1491l-449 1179l-449 -1179z" />
<glyph unicode="X" horiz-adv-x="1380" d="M35 0l512 717l-512 717h293l366 -512l365 512h293l-512 -717l512 -717h-293l-365 512l-366 -512h-293z" />
<glyph unicode="Y" horiz-adv-x="1320" d="M0 1434h293l366 -512l365 512h293l-539 -756v-678h-239v678z" />
<glyph unicode="Z" horiz-adv-x="972" d="M66 1194v240h833l-477 -1194h479v-240h-833l479 1194h-481z" />
<glyph unicode="[" horiz-adv-x="704" d="M160 0v1434h477v-240h-238v-954h238v-240h-477z" />
<glyph unicode="\" horiz-adv-x="929" d="M0 1434h244l665 -1436h-243z" />
<glyph unicode="]" horiz-adv-x="720" d="M82 0v240h240v954h-240v240h477v-1434h-477z" />
<glyph unicode="^" horiz-adv-x="1216" d="M0 1016l440 418l441 -418l-133 -125l-308 293l-307 -293z" />
<glyph unicode="_" horiz-adv-x="1103" d="M82 -2h946v-197h-946v197z" />
<glyph unicode="`" horiz-adv-x="542" d="M39 1325l108 174l367 -213l-98 -166z" />
<glyph unicode="a" d="M0 0l571 1475l574 -1475h-258l-64 166h-504l-61 -166h-258zM397 373h348l-174 497z" />
<glyph unicode="b" horiz-adv-x="1234" d="M162 0v1432h477q10 0 27 -0.5t66.5 -7.5t95 -20t100.5 -42.5t94.5 -70.5t66.5 -109t27 -152q0 -131 -68 -210t-171 -105q55 -11 99 -34t70.5 -50.5t46 -58t27.5 -58.5t12.5 -51t4.5 -37v-14q0 -63 -14 -117.5t-37.5 -93.5t-56.5 -70.5t-67.5 -52t-75.5 -36t-75 -23 t-71 -12.5t-58.5 -6t-42.5 -1h-477zM399 238h240q34 0 65.5 3.5t68 15t63 30.5t44 52.5t17.5 78.5q0 54 -26.5 92t-64.5 54t-76 24q-34 8 -58 8h-6h-27h-240v-358zM399 836h240q5 0 13.5 0.5t33.5 4t47.5 9.5t49.5 19.5t47 31.5t33.5 47.5t13.5 65.5q0 54 -24.5 92.5 t-59.5 54.5t-70 24.5t-59 8.5h-25h-240v-358z" />
<glyph unicode="c" horiz-adv-x="1421" d="M113 717q0 213 91.5 381.5t255 262t371.5 93.5q147 0 277 -55.5t229 -155.5l-168 -168q-66 66 -153.5 102.5t-184.5 36.5q-218 0 -346.5 -138.5t-128.5 -358.5q0 -225 136 -361.5t339 -136.5q97 0 184.5 36.5t153.5 102.5l168 -170q-99 -99 -229 -153.5t-277 -54.5 q-198 0 -360.5 89t-260 258.5t-97.5 389.5z" />
<glyph unicode="d" horiz-adv-x="1355" d="M162 0v1434h239q64 0 121 -3.5t125 -13.5t126.5 -27t120 -45.5t111 -66t94.5 -92.5t75 -121.5t47.5 -155t17.5 -192.5q0 -127 -28 -232t-75 -178t-115 -129t-140 -89t-158.5 -53.5t-162.5 -28t-159 -7.5h-239zM401 233l33 -3q8 -1 22 -1q23 -1 62 1q62 2 118.5 14.5 t125 45.5t118 83.5t83.5 139.5t34 204q0 92 -20.5 167.5t-55 125t-79 87.5t-94 57.5t-99 32.5t-94 15.5t-79 2.5t-54.5 -3l-21 -2v-967z" />
<glyph unicode="e" horiz-adv-x="1204" d="M162 0v1434h956v-240h-717v-358h596v-238h-596v-358h717v-240h-956z" />
<glyph unicode="f" horiz-adv-x="1187" d="M162 0v1434h956v-240h-717v-358h596v-238h-596v-598h-239z" />
<glyph unicode="g" horiz-adv-x="1583" d="M119 717q0 157 57 294.5t153.5 234t228.5 152.5t278 56q147 0 276.5 -55.5t228.5 -155.5l-167 -168q-66 66 -153.5 102.5t-184.5 36.5q-133 0 -240.5 -58t-172.5 -172.5t-65 -266.5q0 -127 37 -224.5t103.5 -156.5t151 -88t186.5 -29q105 0 198 43t160 119v223h-381v211 h621v-817h-209l-13 131q-86 -81 -181.5 -115t-225.5 -34q-145 0 -270 50t-217.5 142t-145.5 232.5t-53 312.5z" />
<glyph unicode="h" horiz-adv-x="1404" d="M166 0v1434h240v-594h595v594h240v-1434h-240v598h-595v-598h-240z" />
<glyph unicode="i" horiz-adv-x="573" d="M168 0v1434h240v-1434h-240z" />
<glyph unicode="j" horiz-adv-x="831" d="M70 0v240h180q50 0 87.5 18.5t54 44.5t26.5 52t11 45l1 18v1018h240v-1018q0 -85 -23 -154.5t-60 -111.5t-82 -73.5t-90 -46t-82 -22.5t-60 -9l-23 -1h-180z" />
<glyph unicode="k" horiz-adv-x="1323" d="M162 0v1434h239v-723l588 723h299l-592 -729l596 -705h-313l-442 545l-136 -152v-393h-239z" />
<glyph unicode="l" horiz-adv-x="1026" d="M162 0v1434h239v-1194h531v-240h-770z" />
<glyph unicode="m" horiz-adv-x="1875" d="M160 0v1436h243l545 -1117l522 1117h244v-1436h-239v881l-412 -881h-225l-439 899v-899h-239z" />
<glyph unicode="n" horiz-adv-x="1519" d="M162 0v1434h241l715 -1020v1020h238v-1434h-242l-713 1020v-1020h-239z" />
<glyph unicode="o" horiz-adv-x="1632" d="M103 717q0 138 46.5 270t131.5 235.5t223 166.5t309 63q170 0 307.5 -63t222.5 -166.5t131 -235.5t46 -270t-46 -270t-130.5 -235.5t-222.5 -166.5t-308 -63q-171 0 -309.5 63t-223.5 166.5t-131 235.5t-46 270zM350 716q0 -130 48.5 -242t157.5 -186.5t257 -74.5 t257 74.5t158 186.5t49 242t-49 242t-158 186.5t-257 74.5t-256.5 -74.5t-157.5 -186.5t-49 -242z" />
<glyph unicode="p" horiz-adv-x="1187" d="M162 -4v1438h479q10 0 27 -1t67 -9t95 -22.5t100.5 -46t95 -74t67 -112t27.5 -155.5t-26.5 -155.5t-68.5 -112t-93.5 -74t-102.5 -46t-93 -22.5t-68 -9l-27 -1h-240v-598h-239zM401 834h240q5 0 13.5 0.5t33.5 4t47.5 9.5t50.5 19.5t48 32t33.5 48t13.5 66.5t-13 66.5 t-34.5 48t-47 32t-51 19.5t-47 9.5t-34.5 4.5h-13h-240v-360z" />
<glyph unicode="q" horiz-adv-x="1693" d="M111 717q0 148 50 281.5t140.5 235t227 161t298.5 59.5q156 0 291 -60t227.5 -160.5t145.5 -235t53 -281.5q0 -117 -34.5 -232t-96.5 -202l154 -154l-168 -168l-154 152q-185 -133 -418 -133q-158 0 -293.5 59.5t-227 160t-143.5 235t-52 282.5zM350 717 q0 -133 58 -246.5t168.5 -183.5t250.5 -70q59 0 125.5 19t120.5 51l-153 151l170 170l151 -151q30 52 48 122.5t18 137.5q0 135 -53.5 246t-164.5 181t-262 70q-145 0 -255.5 -69.5t-166 -181.5t-55.5 -246z" />
<glyph unicode="r" horiz-adv-x="1226" d="M160 0v1434h477q10 0 27 -1t67 -9t95 -22.5t100.5 -46t95 -73.5t67 -111.5t27.5 -154.5q0 -280 -276 -381l293 -635h-265l-274 598h-195v-598h-239zM399 836h238q5 0 13.5 0.5t33.5 4t47.5 9.5t50.5 19.5t48 32t33.5 48t13.5 66.5q0 50 -24.5 86.5t-60 53.5t-71 26.5 t-59.5 10.5l-25 1h-238v-358z" />
<glyph unicode="s" horiz-adv-x="1112" d="M111 397h239q3 -85 63.5 -131.5t145.5 -46.5q87 0 148 50t61 132q0 85 -65.5 141.5t-143.5 59.5q-111 0 -215 47q-113 53 -173 146.5t-60 220.5q0 131 64.5 233t165.5 153.5t218 51.5q188 0 313.5 -115.5t128.5 -296.5h-237q-3 85 -60.5 128.5t-144.5 43.5 q-90 0 -149.5 -51.5t-59.5 -146.5q0 -85 62 -133.5t147 -48.5q109 0 213 -48q112 -52 173 -154t61 -231q0 -132 -64.5 -229.5t-164.5 -144.5t-218 -47q-194 5 -319.5 114t-128.5 303z" />
<glyph unicode="t" horiz-adv-x="917" d="M41 1214v220h840v-220h-301v-1214h-238v1214h-301z" />
<glyph unicode="u" horiz-adv-x="1398" d="M162 459v975h239v-975q9 -118 92 -179t205 -61t210.5 63.5t88.5 176.5v975h240v-975q0 -112 -41.5 -203t-114 -151t-170.5 -92.5t-213 -32.5q-148 0 -269.5 57.5t-194 167.5t-72.5 254z" />
<glyph unicode="v" horiz-adv-x="1146" d="M0 1434h258l313 -846l316 846h258l-574 -1471z" />
<glyph unicode="w" horiz-adv-x="2050" d="M4 1434h258l313 -846l316 846h266l316 -846l315 846h258l-573 -1491l-449 1179l-449 -1179z" />
<glyph unicode="x" horiz-adv-x="1380" d="M35 0l512 717l-512 717h293l366 -512l365 512h293l-512 -717l512 -717h-293l-365 512l-366 -512h-293z" />
<glyph unicode="y" horiz-adv-x="1320" d="M0 1434h293l366 -512l365 512h293l-539 -756v-678h-239v678z" />
<glyph unicode="z" horiz-adv-x="1193" d="M0 0l735 1194h-674v240h1100l-733 -1194h733v-240h-1161z" />
<glyph unicode="{" horiz-adv-x="708" d="M-31 717l267 133v584h399v-240h-160v-954h160v-240h-399v584z" />
<glyph unicode="|" horiz-adv-x="575" d="M147 0v1434h240v-1434h-240z" />
<glyph unicode="}" horiz-adv-x="737" d="M82 0v240h160v954h-160v240h399v-584l267 -133l-267 -133v-584h-399z" />
<glyph unicode="~" horiz-adv-x="950" d="M57 592q12 83 54 136.5t103 73t135.5 11t154.5 -44.5q66 -30 96 -30q59 -1 90 67l199 -57q-23 -73 -56.5 -120.5t-73 -70.5t-91.5 -26t-104.5 8t-119.5 36q-11 4 -30.5 12t-30 12t-27 8.5t-26 4.5t-22.5 -3t-21 -11.5t-16.5 -23t-14.5 -35.5z" />
<glyph unicode="&#xa1;" horiz-adv-x="565" d="M143 1298q0 56 40.5 96t97.5 40q55 0 95 -40t40 -96t-40 -96.5t-95 -40.5q-57 0 -97.5 40.5t-40.5 96.5zM160 -16v1015h239v-1015h-239z" />
<glyph unicode="&#xa2;" horiz-adv-x="1187" d="M104 717q0 206 131.5 366t333.5 203v176h185v-166q100 -10 192 -54.5t162 -111.5q10 -14 0 -24l-131 -131q-17 -17 -31 0h2q-85 78 -194 96v-711q105 17 194 99h-2q14 14 31 0l131 -133q10 -15 0 -25q-145 -145 -354 -166v-137h-185v147q-202 43 -333.5 203.5 t-131.5 368.5zM344 717q0 -116 62 -207.5t163 -130.5v676q-101 -39 -163 -130.5t-62 -207.5z" />
<glyph unicode="&#xa3;" horiz-adv-x="1212" d="M12 498v250h215q17 51 49 116q123 252 342 400q70 47 147.5 82t134.5 51t114 25.5t78 10.5t34 1v-250q-7 0 -22.5 -1t-57.5 -8.5t-85 -20.5t-101 -40t-110 -63q-160 -112 -252 -303h227v-250h-311q-28 -132 -33 -248h743v-250h-997v125q0 183 33 373h-148z" />
<glyph unicode="&#xa5;" horiz-adv-x="1310" d="M0 1434h293l366 -512l365 512h293l-447 -625h170v-211h-262v-100h262v-207h-262v-291h-239v291h-271v207h271v100h-273v211h178z" />
<glyph unicode="&#xa7;" horiz-adv-x="851" d="M94 276h174q0 -80 70 -110q41 -19 84 -19q47 0 90 21q66 31 66 108q0 83 -70 113q-43 19 -86 19q-78 0 -156 36q-82 36 -126 108t-46 165q0 133 92 219q-92 83 -92 219q0 93 44.5 163t127.5 107q80 37 156 37q80 0 158 -37q83 -37 127.5 -107t44.5 -163h-174 q0 81 -70 111q-17 8 -37.5 12.5t-33.5 5.5l-13 2q-1 0 -15 -1.5t-35.5 -6t-39.5 -12.5q-66 -35 -66 -111q0 -83 70 -113q18 -8 39 -12.5t33 -5.5h12q80 0 158 -37q82 -36 126 -108t46 -164q0 -133 -93 -217q93 -87 93 -222q0 -93 -44.5 -163t-127.5 -107q-78 -37 -158 -37 q-76 0 -156 37q-83 37 -127.5 107t-44.5 163zM268 717q0 -83 70 -113q44 -18 84 -18q44 0 90 20q66 31 66 111t-70 110q-46 19 -84 19q-42 0 -90 -21q-66 -31 -66 -108z" />
<glyph unicode="&#xa8;" horiz-adv-x="770" d="M33 1311q0 55 39.5 95t93.5 40q56 0 95.5 -40t39.5 -95q0 -54 -40 -93.5t-95 -39.5q-54 0 -93.5 39.5t-39.5 93.5zM461 1311q0 55 39.5 95t93.5 40q56 0 95.5 -40t39.5 -95q0 -54 -40 -93.5t-95 -39.5q-54 0 -93.5 39.5t-39.5 93.5z" />
<glyph unicode="&#xa9;" horiz-adv-x="1417" d="M92 817q0 167 81.5 309t223 225t308.5 83q168 0 309.5 -83t223 -224.5t81.5 -309.5q0 -166 -81.5 -306.5t-223 -222t-309.5 -81.5q-125 0 -238.5 48t-195.5 129.5t-130.5 194.5t-48.5 238zM250 817q0 -122 61.5 -226t166.5 -165t227 -61q124 0 228.5 61t165 165t60.5 226 q0 189 -132.5 323t-321.5 134q-91 0 -175.5 -36.5t-145.5 -97.5t-97.5 -145.5t-36.5 -177.5zM432 819q0 120 85 205.5t202 85.5q121 0 207 -86l-70 -68q-58 58 -137 58q-78 0 -134.5 -57t-56.5 -138q0 -78 56.5 -134t134.5 -56q79 0 137 55l70 -66q-86 -86 -207 -86 q-117 0 -202 85t-85 202z" />
<glyph unicode="&#xab;" horiz-adv-x="1021" d="M39 655l375 478l153 -123l-256 -355l264 -319l-155 -129zM434 655l375 478l154 -123l-256 -355l264 -319l-156 -129z" />
<glyph unicode="&#xad;" horiz-adv-x="907" d="M84 612v217h721v-217h-721z" />
<glyph unicode="&#xae;" horiz-adv-x="1382" d="M82 817q0 167 81.5 309t222.5 225t308 83q168 0 309.5 -83t223.5 -225t82 -309q0 -166 -82 -306.5t-223.5 -222t-309.5 -81.5q-167 0 -308 81.5t-222.5 222t-81.5 306.5zM256 817q0 -180 129 -308t309 -128q183 0 311 128t128 308q0 183 -127.5 311.5t-311.5 128.5 q-180 0 -309 -128.5t-129 -311.5zM500 520v592h202q4 0 11.5 -0.5t29 -4t40.5 -9t43 -18.5t41 -30.5t28.5 -46t11.5 -63.5q0 -64 -35 -103t-84 -55l125 -262h-110l-119 246h-82v-246h-102zM602 866h100q4 0 11 0.5t25 4.5t31.5 11t24.5 22t11 36q0 32 -25.5 50t-51.5 20 l-26 2h-100v-146z" />
<glyph unicode="&#xb0;" horiz-adv-x="747" d="M59 1151q0 129 92.5 221t221.5 92t221 -92t92 -221t-92 -221t-221 -92t-221.5 92t-92.5 221zM223 1151q0 -61 44.5 -105.5t105.5 -44.5t105 44t44 106t-44 107t-105 45t-105.5 -45t-44.5 -107z" />
<glyph unicode="&#xb1;" horiz-adv-x="1060" d="M94 59h844v211h-844v-211zM94 678v207h320v317h213v-317h317v-207h-317v-324h-213v324h-320z" />
<glyph unicode="&#xb2;" horiz-adv-x="698" d="M78 610v123l342 479q-8 36 -36.5 60t-66.5 24q-41 0 -71.5 -30.5t-30.5 -71.5h-137q0 98 70.5 169t168.5 71q100 0 171 -71t71 -169v-23l-303 -423h303v-138h-481z" />
<glyph unicode="&#xb3;" horiz-adv-x="681" d="M92 852h137q0 -43 30 -72.5t73 -29.5t72.5 29.5t29.5 72.5q0 38 -25 67t-63 33l-59 2v138h59q38 6 63 35t25 67q0 43 -29.5 72.5t-72.5 29.5t-73 -29.5t-30 -72.5h-137q0 99 70.5 169.5t169.5 70.5q98 0 168.5 -71t70.5 -169q0 -104 -71 -172q71 -68 71 -170 q0 -100 -70.5 -170t-168.5 -70q-100 0 -170 70t-70 170z" />
<glyph unicode="&#xb4;" horiz-adv-x="569" d="M39 1300l389 213l109 -172l-398 -208z" />
<glyph unicode="&#xb7;" horiz-adv-x="417" d="M61 723q0 57 40 98t96 41q58 0 98.5 -41t40.5 -98q0 -56 -40.5 -95.5t-98.5 -39.5q-56 0 -96 40t-40 95z" />
<glyph unicode="&#xb8;" horiz-adv-x="878" d="M78 -145h194q0 -61 44 -105.5t106 -44.5q61 0 104 44t43 106q0 61 -42.5 104t-104.5 43v197q141 0 242.5 -101.5t101.5 -242.5q0 -142 -101.5 -244.5t-242.5 -102.5q-142 0 -243 102t-101 245z" />
<glyph unicode="&#xb9;" horiz-adv-x="546" d="M74 1360l184 74h117v-709h-139v551l-111 -43z" />
<glyph unicode="&#xbb;" horiz-adv-x="1021" d="M49 336l264 319l-256 355l154 123l375 -478l-381 -448zM444 336l265 319l-256 355l153 123l375 -478l-381 -448z" />
<glyph unicode="&#xbf;" horiz-adv-x="1003" d="M76 412q0 138 94.5 241.5t237.5 130.5v252h217v-432q-71 5 -127 -5.5t-89.5 -29.5t-55.5 -47t-30 -54.5t-8 -55.5q0 -193 191 -193q76 0 128 42.5t52 113.5h238q0 -170 -121.5 -282.5t-296.5 -112.5q-189 0 -309.5 113t-120.5 319zM373 1309q0 42 20.5 72.5t50.5 45 t66 15t66 -13.5t50.5 -45t20.5 -74q0 -42 -20.5 -72.5t-50.5 -45t-66 -15t-66 13.5t-50.5 45t-20.5 74z" />
<glyph unicode="&#xc0;" d="M0 0l571 1475l574 -1475h-258l-64 166h-504l-61 -166h-258zM342 1720l109 174l366 -213l-98 -165zM397 373h348l-174 497z" />
<glyph unicode="&#xc1;" d="M0 0l571 1475l574 -1475h-258l-64 166h-504l-61 -166h-258zM324 1681l389 213l108 -172l-397 -209zM397 373h348l-174 497z" />
<glyph unicode="&#xc2;" d="M0 0l571 1475l574 -1475h-258l-64 166h-504l-61 -166h-258zM221 1636l348 203l355 -190l-93 -158l-262 147l-250 -147zM397 373h348l-174 497z" />
<glyph unicode="&#xc3;" d="M0 0l571 1475l574 -1475h-258l-64 166h-504l-61 -166h-258zM221 1579q10 75 45 124.5t86.5 67.5t115 10.5t130.5 -40.5q56 -26 80 -27q51 -2 78 60l166 -52q-19 -67 -47.5 -110.5t-62 -64t-77 -23.5t-88 7.5t-100.5 33.5q-9 4 -28.5 12t-29 11.5t-25 7.5t-24.5 1.5 t-20 -8.5t-19 -20.5t-14 -36.5zM397 373h348l-174 497z" />
<glyph unicode="&#xc4;" d="M0 0l571 1475l574 -1475h-258l-64 166h-504l-61 -166h-258zM223 1655q0 55 39.5 95t93.5 40q56 0 96 -40t40 -95q0 -54 -40.5 -93.5t-95.5 -39.5q-54 0 -93.5 39.5t-39.5 93.5zM397 373h348l-174 497zM651 1655q0 55 39.5 95t93.5 40q56 0 96 -40t40 -95 q0 -54 -40.5 -93.5t-95.5 -39.5q-54 0 -93.5 39.5t-39.5 93.5z" />
<glyph unicode="&#xc5;" d="M0 0l471 1219q-78 30 -127 100.5t-49 157.5q0 114 81 195t195 81t195.5 -81t81.5 -195q0 -87 -49.5 -157.5t-128.5 -100.5l475 -1219h-258l-64 166h-504l-61 -166h-258zM397 373h348l-174 497zM457 1477q0 -47 33.5 -81t80.5 -34t81 34t34 81t-34 81.5t-81 34.5 t-80.5 -34.5t-33.5 -81.5z" />
<glyph unicode="&#xc6;" horiz-adv-x="1617" d="M-4 0l756 1427v7h2l2 2v-2h747v-234h-512v-364h416v-230h-416v-375h537v-231h-776v166h-392l-88 -166h-276zM467 391h285l2 318l14 319l-145 -338z" />
<glyph unicode="&#xc7;" horiz-adv-x="1421" d="M115 717q0 146 57 278.5t152.5 228.5t228.5 153t278 57q147 0 277 -55.5t229 -155.5l-168 -168q-66 66 -153.5 102.5t-184.5 36.5q-198 0 -337.5 -139.5t-139.5 -337.5t139.5 -337.5t337.5 -139.5q97 0 184.5 36.5t153.5 102.5l168 -170q-114 -114 -268 -170 q76 -76 76 -184q0 -142 -101.5 -244.5t-242.5 -102.5q-145 0 -244.5 91t-99.5 231h194q0 -59 42.5 -92t107.5 -33q61 0 104 44t43 106q0 56 -36 96.5t-89 48.5q-192 2 -355 98.5t-258 261t-95 357.5z" />
<glyph unicode="&#xc8;" horiz-adv-x="1204" d="M162 0v1434h956v-240h-717v-358h596v-238h-596v-358h717v-240h-956zM424 1745l108 174l367 -213l-98 -166z" />
<glyph unicode="&#xc9;" horiz-adv-x="1204" d="M162 0v1434h956v-240h-717v-358h596v-238h-596v-358h717v-240h-956zM414 1710l389 213l108 -172l-397 -209z" />
<glyph unicode="&#xca;" horiz-adv-x="1204" d="M162 0v1434h956v-240h-717v-358h596v-238h-596v-358h717v-240h-956zM315 1673l349 203l354 -190l-92 -158l-262 147l-250 -147z" />
<glyph unicode="&#xcb;" horiz-adv-x="1204" d="M162 0v1434h956v-240h-717v-358h596v-238h-596v-358h717v-240h-956zM334 1669q0 55 39.5 95t93.5 40q55 0 95 -40t40 -95q0 -54 -40 -93.5t-95 -39.5q-54 0 -93.5 39.5t-39.5 93.5zM762 1669q0 55 39.5 95t93.5 40q55 0 95 -40t40 -95q0 -54 -40 -93.5t-95 -39.5 q-54 0 -93.5 39.5t-39.5 93.5z" />
<glyph unicode="&#xcc;" horiz-adv-x="716" d="M68 0v219h168v995h-160v220h559v-220h-160v-995h168v-219h-575zM121 1735l108 174l367 -213l-98 -166z" />
<glyph unicode="&#xcd;" horiz-adv-x="716" d="M68 0v219h168v995h-160v220h559v-220h-160v-995h168v-219h-575zM109 1690l389 213l108 -172l-397 -209z" />
<glyph unicode="&#xce;" horiz-adv-x="716" d="M8 1681l348 203l355 -190l-93 -158l-262 147l-250 -147zM68 0v219h168v995h-160v220h559v-220h-160v-995h168v-219h-575z" />
<glyph unicode="&#xcf;" horiz-adv-x="716" d="M12 1677q0 55 39.5 95t93.5 40q56 0 96 -40t40 -95q0 -54 -40.5 -93.5t-95.5 -39.5q-54 0 -93.5 39.5t-39.5 93.5zM68 0v219h168v995h-160v220h559v-220h-160v-995h168v-219h-575zM440 1677q0 55 39.5 95t93.5 40q56 0 96 -40t40 -95q0 -54 -40.5 -93.5t-95.5 -39.5 q-54 0 -93.5 39.5t-39.5 93.5z" />
<glyph unicode="&#xd0;" horiz-adv-x="1355" d="M6 598v217h156v619h239q64 0 121 -3.5t125 -13.5t126.5 -27t120 -45.5t111 -66t94.5 -92.5t75 -121.5t47.5 -155t17.5 -192.5q0 -127 -28 -232t-75 -178t-115 -129t-140 -89t-158.5 -53.5t-162.5 -28t-159 -7.5h-239v598h-156zM401 233q12 -2 33.5 -3.5t83.5 1 t118.5 14.5t125 45t118 83.5t83.5 139.5t34 204q0 92 -20.5 167.5t-55 125t-79 87.5t-94 57.5t-99 32.5t-94 15.5t-79 2.5t-54.5 -3l-21 -2v-385h269v-217h-269v-365z" />
<glyph unicode="&#xd1;" horiz-adv-x="1519" d="M162 0v1434h241l715 -1020v1020h238v-1434h-242l-713 1020v-1020h-239zM414 1630q10 75 45 124.5t86.5 67.5t115 10.5t130.5 -40.5q56 -26 79 -27q51 -3 78 60l166 -51q-24 -83 -61 -130.5t-86.5 -60.5t-103 -4.5t-124.5 37.5q-9 4 -28.5 12t-29 11.5t-25 7.5t-24.5 1.5 t-19.5 -8.5t-18.5 -20.5t-14 -36.5z" />
<glyph unicode="&#xd2;" horiz-adv-x="1306" d="M117 922q0 144 71.5 266.5t194 194t266.5 71.5t267 -71.5t194.5 -194t71.5 -266.5q0 -108 -42.5 -206.5t-114 -170t-170 -114t-206.5 -42.5q-144 0 -266.5 71.5t-194 194.5t-71.5 267zM170 0v238h946v-238h-946zM354 922q0 -123 86 -209t209 -86t209 86t86 209t-86 209 t-209 86t-209 -86t-86 -209zM416 1735l108 174l367 -213l-98 -166z" />
<glyph unicode="&#xd3;" horiz-adv-x="1306" d="M117 922q0 144 71.5 266.5t194 194t266.5 71.5t267 -71.5t194.5 -194t71.5 -266.5q0 -108 -42.5 -206.5t-114 -170t-170 -114t-206.5 -42.5q-144 0 -266.5 71.5t-194 194.5t-71.5 267zM170 0v238h946v-238h-946zM354 922q0 -123 86 -209t209 -86t209 86t86 209t-86 209 t-209 86t-209 -86t-86 -209zM403 1710l390 213l108 -172l-397 -209z" />
<glyph unicode="&#xd4;" horiz-adv-x="1306" d="M117 922q0 144 71.5 266.5t194 194t266.5 71.5t267 -71.5t194.5 -194t71.5 -266.5q0 -108 -42.5 -206.5t-114 -170t-170 -114t-206.5 -42.5q-144 0 -266.5 71.5t-194 194.5t-71.5 267zM170 0v238h946v-238h-946zM301 1669l348 203l355 -191l-93 -157l-262 147l-250 -147z M354 922q0 -123 86 -209t209 -86t209 86t86 209t-86 209t-209 86t-209 -86t-86 -209z" />
<glyph unicode="&#xd5;" horiz-adv-x="1306" d="M117 922q0 144 71.5 266.5t194 194t266.5 71.5t267 -71.5t194.5 -194t71.5 -266.5q0 -108 -42.5 -206.5t-114 -170t-170 -114t-206.5 -42.5q-144 0 -266.5 71.5t-194 194.5t-71.5 267zM170 0v238h946v-238h-946zM303 1612q10 75 45 124.5t86.5 67.5t115 10.5t130.5 -40.5 q1 0 13.5 -6t16 -7.5t16 -6.5t17.5 -5.5t16.5 -2t18 1t16.5 6t16.5 10.5t14 17.5t13.5 24.5l166 -51q-24 -83 -61 -130.5t-86.5 -60.5t-103 -4.5t-124.5 37.5q-10 4 -26 10.5t-25 10.5t-22.5 8t-22 4t-19.5 -2.5t-18 -10t-14.5 -20.5t-12.5 -32zM354 922q0 -123 86 -209 t209 -86t209 86t86 209t-86 209t-209 86t-209 -86t-86 -209z" />
<glyph unicode="&#xd6;" horiz-adv-x="1306" d="M117 922q0 144 71.5 266.5t194 194t266.5 71.5t267 -71.5t194.5 -194t71.5 -266.5q0 -108 -42.5 -206.5t-114 -170t-170 -114t-206.5 -42.5q-144 0 -266.5 71.5t-194 194.5t-71.5 267zM170 0v238h946v-238h-946zM305 1659q0 55 39.5 95t93.5 40q56 0 95.5 -40t39.5 -95 q0 -54 -40 -93.5t-95 -39.5q-54 0 -93.5 39.5t-39.5 93.5zM354 922q0 -123 86 -209t209 -86t209 86t86 209t-86 209t-209 86t-209 -86t-86 -209zM733 1659q0 55 39.5 95t93.5 40q56 0 95.5 -40t39.5 -95q0 -54 -40 -93.5t-95 -39.5q-54 0 -93.5 39.5t-39.5 93.5z" />
<glyph unicode="&#xd7;" horiz-adv-x="825" d="M35 907l145 146l215 -215l211 213l144 -144l-213 -211l213 -213l-146 -143l-213 213l-211 -213l-143 143l213 213z" />
<glyph unicode="&#xd8;" horiz-adv-x="1306" d="M117 901q0 144 71.5 267t194 194.5t266.5 71.5q113 0 223 -50l70 103h250l-154 -223q144 -157 144 -363q0 -144 -71.5 -266.5t-194.5 -194t-267 -71.5q-105 0 -200 39l-58 -82h-244l132 192q-77 75 -119.5 174t-42.5 209zM170 0v238h946v-238h-946zM354 901 q0 -104 62 -182l319 465q-40 12 -86 12q-123 0 -209 -86t-86 -209zM588 612q30 -6 61 -6q123 0 209 86t86 209q0 85 -47 158z" />
<glyph unicode="&#xd9;" horiz-adv-x="1515" d="M162 575v859h1192v-859q0 -21 -2.5 -51.5t-20.5 -103.5t-49 -135q-73 -148 -208.5 -226.5t-315.5 -78.5t-316 78.5t-209 226.5q-31 62 -49 135t-20 103t-2 52zM399 575q3 -98 52 -190q87 -166 307 -166q223 0 307 166q22 41 34.5 91t14.5 71t2 31v616h-717v-619z M520 1735l109 174l366 -213l-98 -166z" />
<glyph unicode="&#xda;" horiz-adv-x="1515" d="M162 575v859h1192v-859q0 -21 -2.5 -51.5t-20.5 -103.5t-49 -135q-73 -148 -208.5 -226.5t-315.5 -78.5t-316 78.5t-209 226.5q-31 62 -49 135t-20 103t-2 52zM399 575q3 -98 52 -190q87 -166 307 -166q223 0 307 166q22 41 34.5 91t14.5 71t2 31v616h-717v-619z M508 1710l389 213l109 -172l-398 -209z" />
<glyph unicode="&#xdb;" horiz-adv-x="1515" d="M162 575v859h1192v-859q0 -21 -2.5 -51.5t-20.5 -103.5t-49 -135q-73 -148 -208.5 -226.5t-315.5 -78.5t-316 78.5t-209 226.5q-31 62 -49 135t-20 103t-2 52zM399 575q3 -98 52 -190q87 -166 307 -166q223 0 307 166q22 41 34.5 91t14.5 71t2 31v616h-717v-619z M406 1700l348 203l354 -191l-92 -158l-262 148l-250 -148z" />
<glyph unicode="&#xdc;" horiz-adv-x="1515" d="M162 575v859h1192v-859q0 -21 -2.5 -51.5t-20.5 -103.5t-49 -135q-73 -148 -208.5 -226.5t-315.5 -78.5t-316 78.5t-209 226.5q-31 62 -49 135t-20 103t-2 52zM399 575q3 -98 52 -190q87 -166 307 -166q223 0 307 166q22 41 34.5 91t14.5 71t2 31v616h-717v-619z M410 1690q0 55 39.5 95t93.5 40q55 0 95 -39.5t40 -95.5q0 -54 -40 -94t-95 -40q-54 0 -93.5 40t-39.5 94zM838 1690q0 55 39.5 95t93.5 40q55 0 95 -39.5t40 -95.5q0 -54 -40 -94t-95 -40q-54 0 -93.5 40t-39.5 94z" />
<glyph unicode="&#xdd;" horiz-adv-x="1320" d="M0 1434h293l366 -512l365 512h293l-539 -756v-678h-239v678zM412 1688l389 213l108 -172l-397 -209z" />
<glyph unicode="&#xde;" horiz-adv-x="1193" d="M162 0v545h227l-227 358v533h239v-293h238q10 0 27 -1t66.5 -9t95 -22.5t100.5 -46t94.5 -73.5t66.5 -111.5t27 -154.5q0 -67 -16.5 -124t-44 -97t-63 -73t-75.5 -52.5t-79.5 -34.5t-75 -21.5t-63 -10.5t-43.5 -4l-17 -1h-238v-307h-239zM446 903l224 -356 q31 4 60.5 12.5t66.5 27t59.5 54t22.5 84.5q0 50 -24.5 86.5t-60 53.5t-71 26.5t-59.5 10.5l-25 1h-193z" />
<glyph unicode="&#xdf;" horiz-adv-x="1212" d="M162 0v1432h477q10 0 27 -1t66.5 -9t95 -22.5t100.5 -46t94.5 -73.5t66.5 -111.5t27 -154.5q0 -80 -24.5 -140.5t-59.5 -89.5t-69.5 -46t-58.5 -20l-25 -3q67 -10 117.5 -44t75 -76t39 -82.5t17.5 -67.5l2 -27q0 -67 -17 -124t-45 -97t-65 -73t-78 -52.5t-81.5 -34.5 t-77.5 -21.5t-65 -10.5t-45 -5h-17v238q5 0 14.5 0.5t35.5 4t50 9.5t53.5 19.5t50.5 32t35.5 48t14.5 66.5q0 50 -26 86.5t-63.5 53.5t-75 26.5t-63.5 10.5l-26 1v240q5 0 13.5 0.5t33.5 4t47.5 9.5t50.5 19.5t48 31.5t33.5 47.5t13.5 65.5q0 50 -24.5 86.5t-60 54t-71 27 t-60 12.5t-24.5 4h-223l-2 -1198h-252z" />
<glyph unicode="&#xe0;" d="M0 0l571 1475l574 -1475h-258l-64 166h-504l-61 -166h-258zM342 1720l109 174l366 -213l-98 -165zM397 373h348l-174 497z" />
<glyph unicode="&#xe1;" d="M0 0l571 1475l574 -1475h-258l-64 166h-504l-61 -166h-258zM324 1681l389 213l108 -172l-397 -209zM397 373h348l-174 497z" />
<glyph unicode="&#xe2;" d="M0 0l571 1475l574 -1475h-258l-64 166h-504l-61 -166h-258zM221 1636l348 203l355 -190l-93 -158l-262 147l-250 -147zM397 373h348l-174 497z" />
<glyph unicode="&#xe3;" d="M0 0l571 1475l574 -1475h-258l-64 166h-504l-61 -166h-258zM221 1579q10 75 45 124.5t86.5 67.5t115 10.5t130.5 -40.5q56 -26 80 -27q51 -2 78 60l166 -52q-19 -67 -47.5 -110.5t-62 -64t-77 -23.5t-88 7.5t-100.5 33.5q-9 4 -28.5 12t-29 11.5t-25 7.5t-24.5 1.5 t-20 -8.5t-19 -20.5t-14 -36.5zM397 373h348l-174 497z" />
<glyph unicode="&#xe4;" d="M0 0l571 1475l574 -1475h-258l-64 166h-504l-61 -166h-258zM223 1655q0 55 39.5 95t93.5 40q56 0 96 -40t40 -95q0 -54 -40.5 -93.5t-95.5 -39.5q-54 0 -93.5 39.5t-39.5 93.5zM397 373h348l-174 497zM651 1655q0 55 39.5 95t93.5 40q56 0 96 -40t40 -95 q0 -54 -40.5 -93.5t-95.5 -39.5q-54 0 -93.5 39.5t-39.5 93.5z" />
<glyph unicode="&#xe5;" d="M0 0l471 1219q-78 30 -127 100.5t-49 157.5q0 114 81 195t195 81t195.5 -81t81.5 -195q0 -87 -49.5 -157.5t-128.5 -100.5l475 -1219h-258l-64 166h-504l-61 -166h-258zM397 373h348l-174 497zM457 1477q0 -47 33.5 -81t80.5 -34t81 34t34 81t-34 81.5t-81 34.5 t-80.5 -34.5t-33.5 -81.5z" />
<glyph unicode="&#xe6;" horiz-adv-x="1617" d="M-4 0l756 1427v7h2l2 2v-2h747v-234h-512v-364h416v-230h-416v-375h537v-231h-776v166h-392l-88 -166h-276zM467 391h285l2 318l14 319l-145 -338z" />
<glyph unicode="&#xe7;" horiz-adv-x="1421" d="M115 717q0 146 57 278.5t152.5 228.5t228.5 153t278 57q147 0 277 -55.5t229 -155.5l-168 -168q-66 66 -153.5 102.5t-184.5 36.5q-198 0 -337.5 -139.5t-139.5 -337.5t139.5 -337.5t337.5 -139.5q97 0 184.5 36.5t153.5 102.5l168 -170q-114 -114 -268 -170 q76 -76 76 -184q0 -142 -101.5 -244.5t-242.5 -102.5q-145 0 -244.5 91t-99.5 231h194q0 -59 42.5 -92t107.5 -33q61 0 104 44t43 106q0 56 -36 96.5t-89 48.5q-192 2 -355 98.5t-258 261t-95 357.5z" />
<glyph unicode="&#xe8;" horiz-adv-x="1204" d="M162 0v1434h956v-240h-717v-358h596v-238h-596v-358h717v-240h-956zM424 1745l108 174l367 -213l-98 -166z" />
<glyph unicode="&#xe9;" horiz-adv-x="1204" d="M162 0v1434h956v-240h-717v-358h596v-238h-596v-358h717v-240h-956zM414 1710l389 213l108 -172l-397 -209z" />
<glyph unicode="&#xea;" horiz-adv-x="1204" d="M162 0v1434h956v-240h-717v-358h596v-238h-596v-358h717v-240h-956zM315 1673l349 203l354 -190l-92 -158l-262 147l-250 -147z" />
<glyph unicode="&#xeb;" horiz-adv-x="1204" d="M162 0v1434h956v-240h-717v-358h596v-238h-596v-358h717v-240h-956zM334 1669q0 55 39.5 95t93.5 40q55 0 95 -40t40 -95q0 -54 -40 -93.5t-95 -39.5q-54 0 -93.5 39.5t-39.5 93.5zM762 1669q0 55 39.5 95t93.5 40q55 0 95 -40t40 -95q0 -54 -40 -93.5t-95 -39.5 q-54 0 -93.5 39.5t-39.5 93.5z" />
<glyph unicode="&#xec;" horiz-adv-x="573" d="M49 1710l109 174l366 -213l-98 -166zM168 0v1434h240v-1434h-240z" />
<glyph unicode="&#xed;" horiz-adv-x="573" d="M39 1683l389 213l109 -172l-398 -208zM168 0v1434h240v-1434h-240z" />
<glyph unicode="&#xee;" horiz-adv-x="573" d="M-63 1647l348 202l354 -190l-92 -158l-262 148l-250 -148zM168 0v1434h240v-1434h-240z" />
<glyph unicode="&#xef;" horiz-adv-x="573" d="M-61 1655q0 55 39.5 95t93.5 40q56 0 95.5 -40t39.5 -95q0 -54 -40 -93.5t-95 -39.5q-54 0 -93.5 39.5t-39.5 93.5zM168 0v1434h240v-1434h-240zM367 1655q0 55 39.5 95t93.5 40q56 0 95.5 -40t39.5 -95q0 -54 -40 -93.5t-95 -39.5q-54 0 -93.5 39.5t-39.5 93.5z" />
<glyph unicode="&#xf0;" horiz-adv-x="1355" d="M6 598v217h156v619h239q64 0 121 -3.5t125 -13.5t126.5 -27t120 -45.5t111 -66t94.5 -92.5t75 -121.5t47.5 -155t17.5 -192.5q0 -127 -28 -232t-75 -178t-115 -129t-140 -89t-158.5 -53.5t-162.5 -28t-159 -7.5h-239v598h-156zM401 233q12 -2 33.5 -3.5t83.5 1 t118.5 14.5t125 45t118 83.5t83.5 139.5t34 204q0 92 -20.5 167.5t-55 125t-79 87.5t-94 57.5t-99 32.5t-94 15.5t-79 2.5t-54.5 -3l-21 -2v-385h269v-217h-269v-365z" />
<glyph unicode="&#xf1;" horiz-adv-x="1519" d="M162 0v1434h241l715 -1020v1020h238v-1434h-242l-713 1020v-1020h-239zM414 1630q10 75 45 124.5t86.5 67.5t115 10.5t130.5 -40.5q56 -26 79 -27q51 -3 78 60l166 -51q-24 -83 -61 -130.5t-86.5 -60.5t-103 -4.5t-124.5 37.5q-9 4 -28.5 12t-29 11.5t-25 7.5t-24.5 1.5 t-19.5 -8.5t-18.5 -20.5t-14 -36.5z" />
<glyph unicode="&#xf2;" horiz-adv-x="1632" d="M103 717q0 138 46.5 270t131.5 235.5t223 166.5t309 63q170 0 307.5 -63t222.5 -166.5t131 -235.5t46 -270t-46 -270t-130.5 -235.5t-222.5 -166.5t-308 -63q-171 0 -309.5 63t-223.5 166.5t-131 235.5t-46 270zM350 716q0 -130 48.5 -242t157.5 -186.5t257 -74.5 t257 74.5t158 186.5t49 242t-49 242t-158 186.5t-257 74.5t-256.5 -74.5t-157.5 -186.5t-49 -242zM575 1745l109 174l367 -213l-99 -166z" />
<glyph unicode="&#xf3;" horiz-adv-x="1632" d="M103 717q0 138 46.5 270t131.5 235.5t223 166.5t309 63q170 0 307.5 -63t222.5 -166.5t131 -235.5t46 -270t-46 -270t-130.5 -235.5t-222.5 -166.5t-308 -63q-171 0 -309.5 63t-223.5 166.5t-131 235.5t-46 270zM350 716q0 -130 48.5 -242t157.5 -186.5t257 -74.5 t257 74.5t158 186.5t49 242t-49 242t-158 186.5t-257 74.5t-256.5 -74.5t-157.5 -186.5t-49 -242zM582 1710l389 213l108 -172l-397 -209z" />
<glyph unicode="&#xf4;" horiz-adv-x="1632" d="M103 717q0 138 46.5 270t131.5 235.5t223 166.5t309 63q170 0 307.5 -63t222.5 -166.5t131 -235.5t46 -270t-46 -270t-130.5 -235.5t-222.5 -166.5t-308 -63q-171 0 -309.5 63t-223.5 166.5t-131 235.5t-46 270zM350 716q0 -130 48.5 -242t157.5 -186.5t257 -74.5 t257 74.5t158 186.5t49 242t-49 242t-158 186.5t-257 74.5t-256.5 -74.5t-157.5 -186.5t-49 -242zM465 1673l348 203l354 -190l-92 -158l-262 147l-250 -147z" />
<glyph unicode="&#xf5;" horiz-adv-x="1632" d="M103 717q0 138 46.5 270t131.5 235.5t223 166.5t309 63q170 0 307.5 -63t222.5 -166.5t131 -235.5t46 -270t-46 -270t-130.5 -235.5t-222.5 -166.5t-308 -63q-171 0 -309.5 63t-223.5 166.5t-131 235.5t-46 270zM350 716q0 -130 48.5 -242t157.5 -186.5t257 -74.5 t257 74.5t158 186.5t49 242t-49 242t-158 186.5t-257 74.5t-256.5 -74.5t-157.5 -186.5t-49 -242zM477 1628q10 75 45 124.5t86.5 67.5t115 10.5t130.5 -40.5q56 -26 80 -27q51 -2 78 60l166 -51q-24 -83 -61 -130.5t-86.5 -60.5t-103 -4.5t-124.5 37.5q-9 4 -28.5 12 t-29 11.5t-25 7.5t-24.5 1.5t-20 -8.5t-19 -20.5t-14 -36.5z" />
<glyph unicode="&#xf6;" horiz-adv-x="1632" d="M103 717q0 138 46.5 270t131.5 235.5t223 166.5t309 63q170 0 307.5 -63t222.5 -166.5t131 -235.5t46 -270t-46 -270t-130.5 -235.5t-222.5 -166.5t-308 -63q-171 0 -309.5 63t-223.5 166.5t-131 235.5t-46 270zM350 716q0 -130 48.5 -242t157.5 -186.5t257 -74.5 t257 74.5t158 186.5t49 242t-49 242t-158 186.5t-257 74.5t-256.5 -74.5t-157.5 -186.5t-49 -242zM467 1681q0 55 39.5 95.5t93.5 40.5q55 0 95 -40t40 -96q0 -54 -40 -93.5t-95 -39.5q-54 0 -93.5 39.5t-39.5 93.5zM895 1681q0 55 39.5 95.5t93.5 40.5q55 0 95 -40t40 -96 q0 -54 -40 -93.5t-95 -39.5q-54 0 -93.5 39.5t-39.5 93.5z" />
<glyph unicode="&#xf7;" horiz-adv-x="1003" d="M76 590h870v211h-870v-211zM371 348q0 58 41.5 99.5t99.5 41.5q60 0 101.5 -41t41.5 -100t-41.5 -100t-101.5 -41q-58 0 -99.5 41.5t-41.5 99.5zM371 1034q0 59 41.5 100.5t99.5 41.5q60 0 101.5 -41.5t41.5 -100.5t-41.5 -100t-101.5 -41q-58 0 -99.5 41.5t-41.5 99.5z " />
<glyph unicode="&#xf8;" horiz-adv-x="1632" d="M104 716.5q0 112.5 27 217.5t86 200t141 165t199.5 111.5t255.5 41.5q136 0 260 -43l88 158h244l-148 -262q84 -68 143.5 -163.5t88 -200t29 -217.5t-26 -218.5t-84.5 -200.5t-140 -165.5t-199 -112t-255 -41.5q-151 0 -272 47l-92 -166h-238l149 268q-83 69 -141.5 164 t-86.5 200t-28 217.5zM346.5 697.5q3.5 -95.5 37.5 -187t97 -158.5l473 846q-75 21 -141 21q-115 0 -207.5 -45.5t-148 -118.5t-85 -167.5t-26 -190zM657 240q77 -23 156 -23q100 0 183.5 34t138 92t91.5 132.5t46.5 158t0.5 165t-44.5 158t-91.5 133.5z" />
<glyph unicode="&#xf9;" horiz-adv-x="1398" d="M162 459v975h239v-975q9 -118 92 -179t205 -61t210.5 63.5t88.5 176.5v975h240v-975q0 -112 -41.5 -203t-114 -151t-170.5 -92.5t-213 -32.5q-148 0 -269.5 57.5t-194 167.5t-72.5 254zM432 1720l109 174l366 -213l-98 -165z" />
<glyph unicode="&#xfa;" horiz-adv-x="1398" d="M162 459v975h239v-975q9 -118 92 -179t205 -61t210.5 63.5t88.5 176.5v975h240v-975q0 -112 -41.5 -203t-114 -151t-170.5 -92.5t-213 -32.5q-148 0 -269.5 57.5t-194 167.5t-72.5 254zM467 1677l389 213l109 -172l-398 -209z" />
<glyph unicode="&#xfb;" horiz-adv-x="1398" d="M162 459v975h239v-975q9 -118 92 -179t205 -61t210.5 63.5t88.5 176.5v975h240v-975q0 -112 -41.5 -203t-114 -151t-170.5 -92.5t-213 -32.5q-148 0 -269.5 57.5t-194 167.5t-72.5 254zM348 1669l348 203l355 -191l-93 -157l-262 147l-250 -147z" />
<glyph unicode="&#xfc;" horiz-adv-x="1398" d="M162 459v975h239v-975q9 -118 92 -179t205 -61t210.5 63.5t88.5 176.5v975h240v-975q0 -112 -41.5 -203t-114 -151t-170.5 -92.5t-213 -32.5q-148 0 -269.5 57.5t-194 167.5t-72.5 254zM350 1671q0 55 39.5 95t93.5 40q55 0 95 -40t40 -95q0 -54 -40 -93.5t-95 -39.5 q-54 0 -93.5 39.5t-39.5 93.5zM778 1671q0 55 39.5 95t93.5 40q56 0 96 -40t40 -95q0 -54 -40.5 -93.5t-95.5 -39.5q-54 0 -93.5 39.5t-39.5 93.5z" />
<glyph unicode="&#xfd;" horiz-adv-x="1320" d="M0 1434h293l366 -512l365 512h293l-539 -756v-678h-239v678zM420 1694l389 213l109 -172l-398 -209z" />
<glyph unicode="&#xfe;" horiz-adv-x="1187" d="M162 -4v1438h239v-279h240q10 0 27 -1t67 -9t95 -22.5t100.5 -46t95 -74t67 -112t27.5 -155.5t-26.5 -155.5t-68.5 -112t-93.5 -74t-102.5 -46t-93 -22.5t-68 -9l-27 -1h-240v-319h-239zM401 555h240q5 0 13.5 0.5t33.5 4t47.5 9.5t50.5 19.5t48 32t33.5 48t13.5 66.5 t-13 66.5t-34.5 48t-47 32t-51 19.5t-47 9.5t-34.5 3.5l-13 1h-240v-360z" />
<glyph unicode="&#xff;" horiz-adv-x="1320" d="M0 1434h293l366 -512l365 512h293l-539 -756v-678h-239v678zM311 1669q0 55 39.5 95t93.5 40q56 0 96 -40t40 -95q0 -54 -40.5 -93.5t-95.5 -39.5q-54 0 -93.5 39.5t-39.5 93.5zM739 1669q0 55 39.5 95t93.5 40q56 0 96 -40t40 -95q0 -54 -40.5 -93.5t-95.5 -39.5 q-54 0 -93.5 39.5t-39.5 93.5z" />
<glyph unicode="&#x102;" d="M0 0l571 1475l574 -1475h-258l-64 166h-504l-61 -166h-258zM256 1825h186q2 -64 41.5 -100t86.5 -36t86.5 36t41.5 100h187q0 -82 -23.5 -142.5t-66 -95.5t-95.5 -52t-118 -17q-52 0 -98 10t-88.5 33.5t-73 58t-48.5 87.5t-18 118zM397 373h348l-174 497z" />
<glyph unicode="&#x103;" d="M0 0l571 1475l574 -1475h-258l-64 166h-504l-61 -166h-258zM258 1817h186q2 -64 41.5 -100t86.5 -36t86.5 36t41.5 100h187q0 -159 -84 -233.5t-219 -74.5q-65 0 -121.5 17t-103.5 52t-74 96.5t-27 142.5zM397 373h348l-174 497z" />
<glyph unicode="&#x104;" d="M0 0l571 1475l574 -1475q-51 -3 -90 -18.5t-61.5 -37t-34 -47.5t-10.5 -50.5t12 -45.5q23 -41 68.5 -47.5t85.5 8.5t77 39l51 -159q-54 -35 -125.5 -53t-143 -15t-130 45.5t-80.5 120.5q-47 156 115 278l-56 148h-504l-61 -166h-258zM397 373h348l-174 497z" />
<glyph unicode="&#x105;" d="M0 0l571 1475l574 -1475q-51 -3 -90 -18.5t-61.5 -37t-34 -47.5t-10.5 -50.5t12 -45.5q23 -41 68.5 -47.5t85.5 8.5t77 39l51 -159q-54 -35 -125.5 -53t-143 -15t-130 45.5t-80.5 120.5q-47 156 115 278l-56 148h-504l-61 -166h-258zM397 373h348l-174 497z" />
<glyph unicode="&#x106;" horiz-adv-x="1421" d="M113 717q0 213 91.5 381.5t255 262t371.5 93.5q147 0 277 -55.5t229 -155.5l-168 -168q-66 66 -153.5 102.5t-184.5 36.5q-218 0 -346.5 -138.5t-128.5 -358.5q0 -225 136 -361.5t339 -136.5q97 0 184.5 36.5t153.5 102.5l168 -170q-99 -99 -229 -153.5t-277 -54.5 q-198 0 -360.5 89t-260 258.5t-97.5 389.5zM580 1686l389 212l108 -172l-397 -208z" />
<glyph unicode="&#x107;" horiz-adv-x="1421" d="M113 717q0 213 91.5 381.5t255 262t371.5 93.5q147 0 277 -55.5t229 -155.5l-168 -168q-66 66 -153.5 102.5t-184.5 36.5q-218 0 -346.5 -138.5t-128.5 -358.5q0 -225 136 -361.5t339 -136.5q97 0 184.5 36.5t153.5 102.5l168 -170q-99 -99 -229 -153.5t-277 -54.5 q-198 0 -360.5 89t-260 258.5t-97.5 389.5zM588 1694l389 213l108 -172l-397 -209z" />
<glyph unicode="&#x10c;" horiz-adv-x="1421" d="M113 717q0 213 91.5 381.5t255 262t371.5 93.5q147 0 277 -55.5t229 -155.5l-168 -168q-66 66 -153.5 102.5t-184.5 36.5q-218 0 -346.5 -138.5t-128.5 -358.5q0 -225 136 -361.5t339 -136.5q97 0 184.5 36.5t153.5 102.5l168 -170q-99 -99 -229 -153.5t-277 -54.5 q-198 0 -360.5 89t-260 258.5t-97.5 389.5zM459 1704l92 158l262 -148l250 148l98 -146l-348 -203z" />
<glyph unicode="&#x10d;" horiz-adv-x="1421" d="M113 717q0 213 91.5 381.5t255 262t371.5 93.5q147 0 277 -55.5t229 -155.5l-168 -168q-66 66 -153.5 102.5t-184.5 36.5q-218 0 -346.5 -138.5t-128.5 -358.5q0 -225 136 -361.5t339 -136.5q97 0 184.5 36.5t153.5 102.5l168 -170q-99 -99 -229 -153.5t-277 -54.5 q-198 0 -360.5 89t-260 258.5t-97.5 389.5zM473 1708l92 158l262 -148l250 148l99 -146l-349 -202z" />
<glyph unicode="&#x10e;" horiz-adv-x="1355" d="M162 0v1434h239q64 0 121 -3.5t125 -13.5t126.5 -27t120 -45.5t111 -66t94.5 -92.5t75 -121.5t47.5 -155t17.5 -192.5q0 -127 -28 -232t-75 -178t-115 -129t-140 -89t-158.5 -53.5t-162.5 -28t-159 -7.5h-239zM264 1712l92 158l262 -148l250 148l99 -146l-349 -202z M401 233q12 -2 33.5 -3.5t83.5 1t118.5 14.5t125 45t118 83.5t83.5 139.5t34 204q0 92 -20.5 167.5t-55 125t-79 87.5t-94 57.5t-99 32.5t-94 15.5t-79 2.5t-54.5 -3l-21 -2v-967z" />
<glyph unicode="&#x10f;" horiz-adv-x="1355" d="M162 0v1434h239q64 0 121 -3.5t125 -13.5t126.5 -27t120 -45.5t111 -66t94.5 -92.5t75 -121.5t47.5 -155t17.5 -192.5q0 -127 -28 -232t-75 -178t-115 -129t-140 -89t-158.5 -53.5t-162.5 -28t-159 -7.5h-239zM219 1708l92 158l262 -148l250 148l99 -146l-349 -202z M401 233q12 -2 33.5 -3.5t83.5 1t118.5 14.5t125 45t118 83.5t83.5 139.5t34 204q0 92 -20.5 167.5t-55 125t-79 87.5t-94 57.5t-99 32.5t-94 15.5t-79 2.5t-54.5 -3l-21 -2v-967z" />
<glyph unicode="&#x110;" horiz-adv-x="1355" d="M27 602v213h135v619h239q64 0 121 -3.5t125 -13.5t126.5 -27t120 -45.5t111 -66t94.5 -92.5t75 -121.5t47.5 -155t17.5 -192.5q0 -127 -28 -232t-75 -178t-115 -129t-140 -89t-158.5 -53.5t-162.5 -28t-159 -7.5h-239v602h-135zM401 233q12 -2 33.5 -3.5t83.5 1 t118.5 14.5t125 45t118 83.5t83.5 139.5t34 204q0 92 -20.5 167.5t-55 125t-79 87.5t-94 57.5t-99 32.5t-94 15.5t-79 2.5t-54.5 -3l-21 -2v-385h275v-213h-275v-369z" />
<glyph unicode="&#x111;" horiz-adv-x="1296" d="M27 602v213h135v619h239q64 0 121 -3.5t125 -13.5t126.5 -27t120 -45.5t111 -66t94.5 -92.5t75 -121.5t47.5 -155t17.5 -192.5q0 -127 -28 -232t-75 -178t-115 -129t-140 -89t-158.5 -53.5t-162.5 -28t-159 -7.5h-239v602h-135zM401 233q12 -2 33.5 -3.5t83.5 1 t118.5 14.5t125 45t118 83.5t83.5 139.5t34 204q0 92 -20.5 167.5t-55 125t-79 87.5t-94 57.5t-99 32.5t-94 15.5t-79 2.5t-54.5 -3l-21 -2v-385h275v-213h-275v-369z" />
<glyph unicode="&#x118;" horiz-adv-x="1204" d="M162 0v1434h956v-240h-717v-358h596v-238h-596v-358h717v-240q-52 0 -92.5 -14t-63 -36.5t-34.5 -49t-10.5 -52.5t12.5 -47q23 -41 68.5 -47.5t85.5 8.5t77 39l51 -159q-42 -28 -97 -46.5t-115.5 -23t-114.5 7.5t-96.5 51t-59.5 101q-25 79 12.5 158t114.5 110h-694z" />
<glyph unicode="&#x119;" horiz-adv-x="1204" d="M162 0v1434h956v-240h-717v-358h596v-238h-596v-358h717v-240q-52 0 -92.5 -14t-63 -36.5t-34.5 -49t-10.5 -52.5t12.5 -47q23 -41 68.5 -47.5t85.5 8.5t77 39l51 -159q-42 -28 -97 -46.5t-115.5 -23t-114.5 7.5t-96.5 51t-59.5 101q-25 79 12.5 158t114.5 110h-694z" />
<glyph unicode="&#x11a;" horiz-adv-x="1204" d="M162 0v1434h956v-240h-717v-358h596v-238h-596v-358h717v-240h-956zM305 1716l92 158l262 -148l250 148l99 -145l-349 -203z" />
<glyph unicode="&#x11b;" horiz-adv-x="1204" d="M162 0v1434h956v-240h-717v-358h596v-238h-596v-358h717v-240h-956zM295 1710l92 158l262 -148l250 148l98 -146l-348 -202z" />
<glyph unicode="&#x139;" horiz-adv-x="1026" d="M57 1681l389 213l109 -172l-397 -209zM162 0v1434h239v-1194h531v-240h-770z" />
<glyph unicode="&#x13a;" horiz-adv-x="1026" d="M80 1692l389 213l109 -172l-398 -209zM162 0v1434h239v-1194h531v-240h-770z" />
<glyph unicode="&#x13d;" horiz-adv-x="1026" d="M162 0v1434h239v-1194h531v-240h-770zM631 1309q0 53 37.5 90t89.5 37q50 0 83.5 -19t46.5 -51t14.5 -72t-11 -83t-31.5 -82t-46 -72t-56 -51v176q-52 0 -89.5 37t-37.5 90z" />
<glyph unicode="&#x13e;" horiz-adv-x="1026" d="M162 0v1434h239v-1194h531v-240h-770zM631 1309q0 53 37.5 90t89.5 37q50 0 83.5 -19t46.5 -51t14.5 -72t-11 -83t-31.5 -82t-46 -72t-56 -51v176q-52 0 -89.5 37t-37.5 90z" />
<glyph unicode="&#x141;" horiz-adv-x="1026" d="M16 455v207l146 47v725h239v-648l226 74v-207l-226 -73v-340h531v-240h-770v502z" />
<glyph unicode="&#x142;" horiz-adv-x="1003" d="M16 455v207l146 47v725h239v-648l226 74v-207l-226 -73v-340h531v-240h-770v502z" />
<glyph unicode="&#x143;" horiz-adv-x="1519" d="M162 0v1434h241l715 -1020v1020h238v-1434h-242l-713 1020v-1020h-239zM514 1679l395 219l111 -176l-404 -215z" />
<glyph unicode="&#x144;" horiz-adv-x="1519" d="M162 0v1434h241l715 -1020v1020h238v-1434h-242l-713 1020v-1020h-239zM516 1677l389 213l109 -172l-398 -209z" />
<glyph unicode="&#x147;" horiz-adv-x="1519" d="M162 0v1434h241l715 -1020v1020h238v-1434h-242l-713 1020v-1020h-239zM406 1708l92 158l262 -148l250 148l98 -146l-348 -202z" />
<glyph unicode="&#x148;" horiz-adv-x="1519" d="M162 0v1434h241l715 -1020v1020h238v-1434h-242l-713 1020v-1020h-239zM406 1690l92 157l262 -147l250 147l98 -145l-348 -203z" />
<glyph unicode="&#x150;" horiz-adv-x="1306" d="M117 922q0 144 71.5 266.5t194 194t266.5 71.5t267 -71.5t194.5 -194t71.5 -266.5q0 -108 -42.5 -206.5t-114 -170t-170 -114t-206.5 -42.5q-144 0 -266.5 71.5t-194 194.5t-71.5 267zM170 0v238h946v-238h-946zM311 1640l275 244l147 -129l-282 -239zM354 922 q0 -123 86 -209t209 -86t209 86t86 209t-86 209t-209 86t-209 -86t-86 -209zM711 1640l274 244l150 -129l-285 -239z" />
<glyph unicode="&#x151;" horiz-adv-x="1632" d="M103 717q0 138 46.5 270t131.5 235.5t223 166.5t309 63q170 0 307.5 -63t222.5 -166.5t131 -235.5t46 -270t-46 -270t-130.5 -235.5t-222.5 -166.5t-308 -63q-171 0 -309.5 63t-223.5 166.5t-131 235.5t-46 270zM350 716q0 -130 48.5 -242t157.5 -186.5t257 -74.5 t257 74.5t158 186.5t49 242t-49 242t-158 186.5t-257 74.5t-256.5 -74.5t-157.5 -186.5t-49 -242zM463 1647l282 254l154 -136l-293 -249zM877 1647l280 254l154 -136l-293 -249z" />
<glyph unicode="&#x152;" horiz-adv-x="1937" d="M127 719q0 137 44.5 269t127 235t216 166t298.5 63q95 0 174 -18h803v-230h-586v-368h494v-228h-494v-372h615v-236h-842v2q-82 -16 -164 -16q-165 0 -299 63t-216 166t-126.5 235t-44.5 269zM383.5 718q-0.5 -98 27.5 -191.5t79.5 -166.5t135 -118t187.5 -45 q84 0 164 26v989q-83 27 -164 27q-103 0 -187 -45t-135 -118t-79 -166.5t-28.5 -191.5z" />
<glyph unicode="&#x153;" horiz-adv-x="1937" d="M127 719q0 137 44.5 269t127 235t216 166t298.5 63q95 0 174 -18h803v-230h-586v-368h494v-228h-494v-372h615v-236h-842v2q-82 -16 -164 -16q-165 0 -299 63t-216 166t-126.5 235t-44.5 269zM383.5 718q-0.5 -98 27.5 -191.5t79.5 -166.5t135 -118t187.5 -45 q84 0 164 26v989q-83 27 -164 27q-103 0 -187 -45t-135 -118t-79 -166.5t-28.5 -191.5z" />
<glyph unicode="&#x154;" horiz-adv-x="1253" d="M164 0v836h227l-227 358v240h477q10 0 27 -1t67 -9t95 -22.5t100.5 -46t95 -73.5t67 -111.5t27.5 -154.5q0 -90 -28.5 -161.5t-78 -116.5t-99.5 -72t-109 -43l389 -623h-281l-372 598h-138v-598h-239zM362 1696l390 213l108 -172l-397 -209zM449 1194l223 -356 q23 2 46.5 7t54 18t53.5 31t39 50t16 72q0 50 -24.5 86.5t-60 53.5t-71 26.5t-59.5 10.5l-25 1h-192z" />
<glyph unicode="&#x155;" horiz-adv-x="1226" d="M160 0v1434h477q10 0 27 -1t67 -9t95 -22.5t100.5 -46t95 -73.5t67 -111.5t27.5 -154.5q0 -280 -276 -381l293 -635h-265l-274 598h-195v-598h-239zM352 1683l389 213l109 -172l-397 -208zM399 836h238q5 0 13.5 0.5t33.5 4t47.5 9.5t50.5 19.5t48 32t33.5 48t13.5 66.5 q0 50 -24.5 86.5t-60 53.5t-71 26.5t-59.5 10.5l-25 1h-238v-358z" />
<glyph unicode="&#x158;" horiz-adv-x="1253" d="M164 0v836h227l-227 358v240h477q10 0 27 -1t67 -9t95 -22.5t100.5 -46t95 -73.5t67 -111.5t27.5 -154.5q0 -90 -28.5 -161.5t-78 -116.5t-99.5 -72t-109 -43l389 -623h-281l-372 598h-138v-598h-239zM248 1716l92 158l262 -148l250 148l98 -145l-348 -203zM449 1194 l223 -356q23 2 46.5 7t54 18t53.5 31t39 50t16 72q0 50 -24.5 86.5t-60 53.5t-71 26.5t-59.5 10.5l-25 1h-192z" />
<glyph unicode="&#x159;" horiz-adv-x="1226" d="M160 0v1434h477q10 0 27 -1t67 -9t95 -22.5t100.5 -46t95 -73.5t67 -111.5t27.5 -154.5q0 -280 -276 -381l293 -635h-265l-274 598h-195v-598h-239zM256 1706l92 158l262 -148l250 148l98 -146l-348 -202zM399 836h238q5 0 13.5 0.5t33.5 4t47.5 9.5t50.5 19.5t48 32 t33.5 48t13.5 66.5q0 50 -24.5 86.5t-60 53.5t-71 26.5t-59.5 10.5l-25 1h-238v-358z" />
<glyph unicode="&#x15a;" horiz-adv-x="1112" d="M111 397h239q3 -85 63.5 -131.5t145.5 -46.5q86 0 147.5 51t61.5 133q0 85 -65 140.5t-144 58.5q-111 0 -215 47q-113 53 -173 146.5t-60 220.5q0 131 64.5 233t165.5 153.5t218 51.5q188 0 313.5 -115.5t128.5 -296.5h-237q-3 85 -60.5 128.5t-144.5 43.5 q-90 0 -149.5 -51.5t-59.5 -146.5q0 -85 62 -133.5t147 -48.5q109 0 213 -48q113 -52 173.5 -153t60.5 -230q0 -132 -64.5 -230t-164.5 -145.5t-218 -47.5q-194 5 -319.5 114t-128.5 303zM317 1710l390 213l108 -172l-397 -209z" />
<glyph unicode="&#x15b;" horiz-adv-x="1112" d="M111 397h239q3 -85 63.5 -131.5t145.5 -46.5q87 0 148 50t61 132q0 85 -65.5 141.5t-143.5 59.5q-111 0 -215 47q-113 53 -173 146.5t-60 220.5q0 131 64.5 233t165.5 153.5t218 51.5q188 0 313.5 -115.5t128.5 -296.5h-237q-3 85 -60.5 128.5t-144.5 43.5 q-90 0 -149.5 -51.5t-59.5 -146.5q0 -85 62 -133.5t147 -48.5q109 0 213 -48q112 -52 173 -154t61 -231q0 -132 -64.5 -229.5t-164.5 -144.5t-218 -47q-194 5 -319.5 114t-128.5 303zM313 1681l389 213l109 -172l-397 -209z" />
<glyph unicode="&#x15e;" horiz-adv-x="1112" d="M111 403h239q3 -85 63.5 -131.5t145.5 -46.5q87 0 148 48t61 130q0 85 -65 140.5t-144 58.5q-111 0 -215 47q-113 53 -173 146.5t-60 220.5q0 131 64.5 232t165.5 151.5t218 50.5q188 0 313.5 -115.5t128.5 -296.5h-237q-3 85 -60.5 128.5t-144.5 43.5q-91 0 -150 -49.5 t-59 -144.5q0 -85 62 -133.5t147 -48.5q109 0 213 -48q113 -52 173.5 -153t60.5 -230q0 -123 -54 -213.5t-147 -142.5q106 -66 106 -199q0 -134 -96.5 -228.5t-232.5 -94.5t-233 94.5t-97 228.5h186q0 -57 42.5 -98t101.5 -41q60 0 100.5 40.5t40.5 98.5q0 57 -40.5 97.5 t-100.5 40.5h-23q-194 5 -319.5 114t-128.5 303z" />
<glyph unicode="&#x15f;" horiz-adv-x="1112" d="M111 403h239q3 -85 63.5 -131.5t145.5 -46.5q87 0 148 48t61 130q0 85 -65 140.5t-144 58.5q-111 0 -215 47q-113 53 -173 146.5t-60 220.5q0 131 64.5 232t165.5 151.5t218 50.5q188 0 313.5 -115.5t128.5 -296.5h-237q-3 85 -60.5 128.5t-144.5 43.5q-91 0 -150 -49.5 t-59 -144.5q0 -85 62 -133.5t147 -48.5q109 0 213 -48q113 -52 173.5 -153t60.5 -230q0 -123 -54 -213.5t-147 -142.5q106 -66 106 -199q0 -134 -96.5 -228.5t-232.5 -94.5t-233 94.5t-97 228.5h186q0 -57 42.5 -98t101.5 -41q60 0 100.5 40.5t40.5 98.5q0 57 -40.5 97.5 t-100.5 40.5h-23q-194 5 -319.5 114t-128.5 303z" />
<glyph unicode="&#x160;" horiz-adv-x="1112" d="M111 397h239q3 -85 63.5 -131.5t145.5 -46.5q86 0 147.5 51t61.5 133q0 85 -65 140.5t-144 58.5q-111 0 -215 47q-113 53 -173 146.5t-60 220.5q0 131 64.5 233t165.5 153.5t218 51.5q188 0 313.5 -115.5t128.5 -296.5h-237q-3 85 -60.5 128.5t-144.5 43.5 q-90 0 -149.5 -51.5t-59.5 -146.5q0 -85 62 -133.5t147 -48.5q109 0 213 -48q113 -52 173.5 -153t60.5 -230q0 -132 -64.5 -230t-164.5 -145.5t-218 -47.5q-194 5 -319.5 114t-128.5 303zM205 1745l92 158l262 -148l250 148l98 -146l-348 -203z" />
<glyph unicode="&#x161;" horiz-adv-x="1112" d="M111 397h239q3 -85 63.5 -131.5t145.5 -46.5q86 0 147.5 51t61.5 133q0 85 -65 140.5t-144 58.5q-111 0 -215 47q-113 53 -173 146.5t-60 220.5q0 131 64.5 233t165.5 153.5t218 51.5q188 0 313.5 -115.5t128.5 -296.5h-237q-3 85 -60.5 128.5t-144.5 43.5 q-90 0 -149.5 -51.5t-59.5 -146.5q0 -85 62 -133.5t147 -48.5q109 0 213 -48q113 -52 173.5 -153t60.5 -230q0 -132 -64.5 -230t-164.5 -145.5t-218 -47.5q-194 5 -319.5 114t-128.5 303zM205 1745l92 158l262 -148l250 148l98 -146l-348 -203z" />
<glyph unicode="&#x162;" horiz-adv-x="917" d="M41 1214v220h840v-220h-301v-1214h-238v1214h-301zM330 -190q0 50 37.5 85t89.5 35q69 0 106.5 -34t39 -86t-15.5 -108t-53 -105.5t-77 -73.5v166q-52 0 -89.5 35.5t-37.5 85.5z" />
<glyph unicode="&#x163;" horiz-adv-x="917" d="M41 1214v220h840v-220h-301v-1214h-238v1214h-301zM330 -193q0 50 37.5 85.5t89.5 35.5q69 0 106.5 -34t39 -86t-15.5 -108t-53 -105.5t-77 -73.5v166q-52 0 -89.5 35t-37.5 85z" />
<glyph unicode="&#x164;" horiz-adv-x="917" d="M41 1214v220h840v-220h-301v-1214h-238v1214h-301zM106 1745l93 158l262 -148l250 148l98 -146l-348 -203z" />
<glyph unicode="&#x165;" horiz-adv-x="917" d="M41 1214v220h840v-220h-301v-1214h-238v1214h-301zM104 1718l93 158l262 -147l250 147l98 -145l-348 -203z" />
<glyph unicode="&#x16e;" horiz-adv-x="1515" d="M162 575v859h1192v-859q0 -21 -2.5 -51.5t-20.5 -103.5t-49 -135q-73 -148 -208.5 -226.5t-315.5 -78.5t-316 78.5t-209 226.5q-31 62 -49 135t-20 103t-2 52zM399 575q3 -98 52 -190q87 -166 307 -166q223 0 307 166q22 41 34.5 91t14.5 71t2 31v616h-717v-619z M489 1749q0 103 82.5 175.5t198.5 72.5t197.5 -72.5t81.5 -175.5t-82 -176.5t-197 -73.5t-198 73.5t-83 176.5zM653 1749q0 -43 34 -72.5t83 -29.5q47 0 81 29.5t34 72.5t-34 73.5t-81 30.5q-49 0 -83 -30.5t-34 -73.5z" />
<glyph unicode="&#x16f;" horiz-adv-x="1398" d="M162 459v975h239v-975q9 -118 92 -179t205 -61t210.5 63.5t88.5 176.5v975h240v-975q0 -112 -41.5 -203t-114 -151t-170.5 -92.5t-213 -32.5q-148 0 -269.5 57.5t-194 167.5t-72.5 254zM422 1733q0 100 80 171.5t192 71.5t191.5 -71.5t79.5 -171.5t-79.5 -171t-191.5 -71 t-192 71t-80 171zM582 1733q0 -41 33 -71t79 -30t79.5 30t33.5 71t-33.5 71.5t-79.5 30.5t-79 -30.5t-33 -71.5z" />
<glyph unicode="&#x170;" horiz-adv-x="1515" d="M162 575v859h1192v-859q0 -21 -2.5 -51.5t-20.5 -103.5t-49 -135q-73 -148 -208.5 -226.5t-315.5 -78.5t-316 78.5t-209 226.5q-31 62 -49 135t-20 103t-2 52zM393 1653l264 239l144 -125l-275 -237zM399 575q3 -98 52 -190q87 -166 307 -166q223 0 307 166 q22 41 34.5 91t14.5 71t2 31v616h-717v-619zM780 1653l264 239l146 -125l-275 -237z" />
<glyph unicode="&#x171;" horiz-adv-x="1398" d="M162 459v975h239v-975q9 -118 92 -179t205 -61t210.5 63.5t88.5 176.5v975h240v-975q0 -112 -41.5 -203t-114 -151t-170.5 -92.5t-213 -32.5q-148 0 -269.5 57.5t-194 167.5t-72.5 254zM344 1642l277 240l151 -127l-287 -233zM750 1642l276 240l150 -127l-287 -233z" />
<glyph unicode="&#x178;" horiz-adv-x="1320" d="M0 1434h293l366 -512l365 512h293l-539 -756v-678h-239v678zM311 1671q0 55 39.5 95t93.5 40q56 0 96 -40t40 -95q0 -54 -40.5 -93.5t-95.5 -39.5q-54 0 -93.5 39.5t-39.5 93.5zM739 1671q0 55 39.5 95t93.5 40q56 0 96 -40t40 -95q0 -54 -40.5 -93.5t-95.5 -39.5 q-54 0 -93.5 39.5t-39.5 93.5z" />
<glyph unicode="&#x179;" horiz-adv-x="972" d="M66 1194v240h833l-477 -1194h479v-240h-833l479 1194h-481zM252 1698l389 213l109 -172l-398 -209z" />
<glyph unicode="&#x17a;" horiz-adv-x="1193" d="M0 0l735 1194h-674v240h1100l-733 -1194h733v-240h-1161zM373 1694l389 213l108 -172l-397 -209z" />
<glyph unicode="&#x17b;" horiz-adv-x="972" d="M66 1194v240h833l-477 -1194h479v-240h-833l479 1194h-481zM344 1673q0 57 42 97t101 40q63 0 106.5 -40t43.5 -97q0 -54 -43.5 -93.5t-106.5 -39.5q-58 0 -100.5 39.5t-42.5 93.5z" />
<glyph unicode="&#x17c;" horiz-adv-x="1198" d="M0 0l735 1194h-674v240h1100l-733 -1194h733v-240h-1161zM459 1694q0 60 47 101.5t112 41.5q69 0 116.5 -41.5t47.5 -101.5q0 -57 -48 -98.5t-116 -41.5q-65 0 -112 41.5t-47 98.5z" />
<glyph unicode="&#x17d;" horiz-adv-x="972" d="M66 1194v240h833l-477 -1194h479v-240h-833l479 1194h-481zM135 1712l92 154l256 -144l244 144l96 -142l-340 -198z" />
<glyph unicode="&#x17e;" horiz-adv-x="1193" d="M0 0l735 1194h-674v240h1100l-733 -1194h733v-240h-1161zM248 1722l92 158l262 -147l250 147l98 -145l-348 -203z" />
<glyph unicode="&#x2c6;" horiz-adv-x="802" d="M57 1290l349 203l354 -190l-92 -158l-262 147l-250 -147z" />
<glyph unicode="&#x2c7;" horiz-adv-x="808" d="M55 1335l92 158l263 -147l249 147l99 -145l-348 -203z" />
<glyph unicode="&#x2d8;" horiz-adv-x="700" d="M41 1454h186q2 -64 41.5 -100t86.5 -36t86.5 36t41.5 100h187q0 -82 -23.5 -142.5t-66 -95.5t-95.5 -52t-118 -17q-52 0 -98 10t-88.5 33.5t-73 58t-48.5 87.5t-18 118z" />
<glyph unicode="&#x2d9;" horiz-adv-x="559" d="M104 1311q0 55 41.5 94t98.5 39q60 0 101.5 -38.5t41.5 -94.5q0 -53 -41.5 -91t-101.5 -38q-57 0 -98.5 38t-41.5 91z" />
<glyph unicode="&#x2da;" horiz-adv-x="698" d="M59 1188q0 114 81.5 195t195.5 81t195 -81t81 -195t-81 -195.5t-195 -81.5t-195.5 81.5t-81.5 195.5zM221 1188q0 -47 34 -81t81 -34t81 34t34 81t-34 82t-81 35t-81 -35t-34 -82z" />
<glyph unicode="&#x2db;" horiz-adv-x="616" d="M94 -260q-46 155 117 278h186q-65 -33 -100 -97.5t-6 -119.5q23 -41 68.5 -47.5t85.5 8.5t77 39l51 -159q-54 -35 -125.5 -53t-143 -15t-130 45.5t-80.5 120.5z" />
<glyph unicode="&#x2dc;" horiz-adv-x="802" d="M57 1247q10 75 45 124.5t86.5 67.5t115 10.5t130.5 -40.5q56 -26 80 -27q51 -2 78 60l166 -51q-24 -83 -61 -130.5t-86.5 -60.5t-103 -4.5t-124.5 37.5q-9 4 -28.5 12t-29 11.5t-25 7.5t-24.5 1.5t-20 -8.5t-19 -20.5t-14 -36.5z" />
<glyph unicode="&#x2dd;" horiz-adv-x="851" d="M18 1280l275 264l149 -139l-284 -260zM420 1280l274 264l150 -139l-285 -260z" />
<glyph unicode="&#x3c0;" horiz-adv-x="1155" d="M78 1196v238h999v-238h-178v-1196h-242v1196h-161v-1196h-240v1196h-178z" />
<glyph unicode="&#x401;" horiz-adv-x="1204" d="M162 0v1434h956v-240h-717v-358h596v-238h-596v-358h717v-240h-956zM307 1677q0 55 39.5 95t93.5 40q56 0 95.5 -40t39.5 -95q0 -54 -40 -93.5t-95 -39.5q-54 0 -93.5 39.5t-39.5 93.5zM735 1677q0 55 39.5 95t93.5 40q56 0 96 -40t40 -95q0 -54 -40.5 -93.5t-95.5 -39.5 q-54 0 -93.5 39.5t-39.5 93.5z" />
<glyph unicode="&#x410;" horiz-adv-x="1398" d="M162 0v956q0 123 67 240q26 45 62.5 83.5t92 75.5t136.5 58t178 21q331 0 469 -238q30 -51 47.5 -111.5t20 -86t2.5 -42.5v-956h-240v240h-596v-240h-239zM401 477h596v477q0 65 -39 127q-73 113 -260 113q-192 0 -262 -119q-15 -26 -23.5 -56t-10.5 -47l-1 -16v-479z " />
<glyph unicode="&#x411;" horiz-adv-x="1234" d="M162 0v1434h889v-232h-652v-346h240q250 0 374 -110.5t124 -311.5q0 -81 -23 -147.5t-58.5 -110.5t-84.5 -77.5t-95.5 -51.5t-96.5 -29.5t-82 -14.5t-58 -3h-477zM399 238h240q44 0 83.5 7.5t82 27t67.5 61t25 100.5q0 58 -24.5 98.5t-66 59t-81.5 26t-86 7.5h-240v-387z " />
<glyph unicode="&#x412;" horiz-adv-x="1234" d="M162 0v1434h477q10 0 27 -0.5t66.5 -7.5t95 -20.5t100.5 -43t94.5 -71t66.5 -109.5t27 -152q0 -131 -68 -210t-171 -105q55 -11 99 -34t70.5 -50.5t46 -58t27.5 -58.5t12.5 -51t4.5 -37v-14q0 -63 -14 -117.5t-37.5 -93.5t-56.5 -70.5t-67.5 -52t-75.5 -36t-75 -23 t-71 -12.5t-58.5 -6t-42.5 -1h-477zM399 238h240q34 0 65.5 3.5t68 15t63 30.5t44 52.5t17.5 78.5q0 54 -26.5 92t-64.5 54t-76 24.5t-64 7.5h-27h-240v-358zM399 836h240q5 0 13.5 0.5t33.5 4t47.5 9.5t49.5 19.5t47 31.5t33.5 47.5t13.5 65.5q0 54 -24.5 92.5t-59.5 55 t-70 25.5t-59 9h-25h-240v-360z" />
<glyph unicode="&#x413;" horiz-adv-x="1122" d="M162 0v1434h889v-232h-652v-1202h-237z" />
<glyph unicode="&#x414;" horiz-adv-x="1462" d="M35 -219v438h74q108 9 108 133v604q0 220 131.5 349t349.5 129h510v-1215h166v-438h-223v219h-893v-219h-223zM416 219h547v983h-256q-117 0 -183.5 -64t-66.5 -182v-604q0 -71 -41 -133z" />
<glyph unicode="&#x415;" horiz-adv-x="1218" d="M160 0v1434h936v-240h-697v-178h676v-219h-676v-140h676v-219h-676v-198h697v-240h-936z" />
<glyph unicode="&#x416;" horiz-adv-x="1781" d="M-2 0l518 760l-508 674h289l317 -420l158 -252v672h240v-672l159 254l316 418h289l-508 -674l518 -760h-297l-385 573l-92 -118v-455h-240v455l-94 123l-383 -578h-297z" />
<glyph unicode="&#x417;" horiz-adv-x="1009" d="M59 397h236q3 -93 62.5 -139.5t142.5 -46.5q77 0 133.5 61.5t56.5 147.5q0 95 -56.5 149t-144.5 54h-108v213h108q70 0 118 51.5t48 142.5q0 88 -49.5 140.5t-132.5 52.5t-135.5 -47t-52.5 -121h-219q0 174 113 286.5t294 112.5q189 0 305.5 -114.5t116.5 -311.5 q0 -94 -42.5 -173.5t-125.5 -117.5q90 -41 148.5 -128t58.5 -189q0 -112 -36.5 -199t-99 -138.5t-139 -77t-163.5 -25.5q-194 0 -315.5 113.5t-121.5 303.5z" />
<glyph unicode="&#x418;" horiz-adv-x="1519" d="M166 0v1434h242v-1041l714 1041h246v-1434h-244v1059l-712 -1059h-246z" />
<glyph unicode="&#x419;" horiz-adv-x="1523" d="M166 0v1434h242v-1041l714 1041h246v-1434h-244v1059l-712 -1059h-246zM465 1829h186q2 -64 41.5 -100t86.5 -36t86.5 36t41.5 100h187q0 -82 -23.5 -142.5t-66 -95.5t-95.5 -52t-118 -17q-52 0 -98 10t-88.5 33.5t-73 58t-48.5 87.5t-18 118z" />
<glyph unicode="&#x41a;" horiz-adv-x="1323" d="M162 0v1434h239v-723l588 723h299l-592 -729l596 -705h-313l-442 545l-136 -152v-393h-239z" />
<glyph unicode="&#x41b;" horiz-adv-x="1343" d="M35 -10v237q170 -21 170 129v600q0 222 124.5 350t340.5 128h510v-1434h-246v1202h-256q-115 0 -174.5 -63t-59.5 -183v-600q0 -32 -2 -59.5t-11.5 -69t-25.5 -74.5t-47 -67.5t-72.5 -56.5t-106 -33.5t-144.5 -5.5z" />
<glyph unicode="&#x41c;" horiz-adv-x="2093" d="M0 0l598 1436h258l191 -459l190 459h260l598 -1436h-258l-469 1124l-190 -456l276 -668h-258l-149 356l-148 -356h-260l279 668l-191 456l-469 -1124h-258z" />
<glyph unicode="&#x41d;" horiz-adv-x="1394" d="M162 0v1434h239v-359h596v359h240v-1434h-240v358h-596v-358h-239zM401 598h596v238h-596v-238z" />
<glyph unicode="&#x41e;" horiz-adv-x="1306" d="M117 922q0 144 71.5 266.5t194 194t266.5 71.5t267 -71.5t194.5 -194t71.5 -266.5q0 -108 -42.5 -206.5t-114 -170t-170 -114t-206.5 -42.5q-144 0 -266.5 71.5t-194 194.5t-71.5 267zM170 0v238h946v-238h-946zM354 922q0 -123 86 -209t209 -86t209 86t86 209t-86 209 t-209 86t-209 -86t-86 -209z" />
<glyph unicode="&#x41f;" horiz-adv-x="1404" d="M166 0v1434h1075v-1434h-240v1198h-595v-1198h-240z" />
<glyph unicode="&#x420;" horiz-adv-x="1193" d="M162 0v836h227l-227 358v240h477q10 0 27 -1t66.5 -9t95 -22.5t100.5 -46t94.5 -73.5t66.5 -111.5t27 -154.5q0 -67 -16.5 -124t-44 -97t-63 -73t-75.5 -52.5t-79.5 -34.5t-75 -21.5t-63 -10.5t-43.5 -5h-17h-238v-598h-239zM446 1194l224 -356q31 4 60.5 12.5t66.5 27 t59.5 54t22.5 84.5q0 50 -24.5 86.5t-60 53.5t-71 26.5t-59.5 10.5l-25 1h-193z" />
<glyph unicode="&#x421;" horiz-adv-x="1406" d="M109 717q0 146 57 278.5t152.5 228.5t228.5 153t278 57q147 0 277 -55.5t229 -155.5l-168 -168q-66 66 -153.5 102.5t-184.5 36.5q-198 0 -337.5 -139.5t-139.5 -337.5t139.5 -337.5t337.5 -139.5q97 0 184.5 36.5t153.5 102.5l168 -170q-99 -99 -229.5 -154t-276.5 -55 q-145 0 -278 57t-228.5 153t-152.5 228.5t-57 278.5zM602 717q0 -91 65 -156t156 -65q92 0 156.5 65t64.5 156q0 92 -64.5 156.5t-156.5 64.5q-91 0 -156 -64.5t-65 -156.5z" />
<glyph unicode="&#x422;" horiz-adv-x="917" d="M41 1214v220h840v-220h-301v-1214h-238v1214h-301z" />
<glyph unicode="&#x423;" horiz-adv-x="1040" d="M12 1434h275l239 -680l254 680h254l-557 -1434h-246l168 446z" />
<glyph unicode="&#x424;" horiz-adv-x="1527" d="M72 713q1 103 38.5 201t106 175t178 124t244.5 47v174h240v-174q137 0 249 -47t181 -124t107 -175t38.5 -201t-36.5 -201t-105.5 -175t-181 -124t-252.5 -47v-186h-240v186q-138 0 -249.5 47t-179 124t-103.5 175t-35 201zM302 710.5q2 -62.5 25.5 -122t64.5 -106 t105.5 -75t141.5 -28.5v663q-85 0 -152 -28.5t-106.5 -75t-60 -106t-18.5 -122zM879 379q76 0 139.5 28.5t104 75t63.5 106t25 122t-18.5 122t-59.5 106t-105 75t-149 28.5v-663z" />
<glyph unicode="&#x425;" horiz-adv-x="1380" d="M35 0l512 717l-512 717h293l366 -512l365 512h293l-512 -717l512 -717h-293l-365 512l-366 -512h-293z" />
<glyph unicode="&#x426;" horiz-adv-x="1433" d="M164 0v1434h239v-1198h596v1198h240v-1215h141v-442h-223v223h-993z" />
<glyph unicode="&#x427;" horiz-adv-x="1298" d="M109 961v473h239v-473q10 -120 91.5 -182t197.5 -62q70 0 139 25.5t121 70.5v621h240v-1434h-240v565q-138 -84 -295 -84q-215 0 -354 133t-139 347z" />
<glyph unicode="&#x428;" horiz-adv-x="2068" d="M164 0v1434h239v-1198h515v1198h235v-1198h514v1198h240v-1434h-1743z" />
<glyph unicode="&#x429;" horiz-adv-x="2101" d="M164 0v1434h239v-1198h515v1198h235v-1198h514v1198h240v-1215h141v-442h-223v223h-1661z" />
<glyph unicode="&#x42a;" horiz-adv-x="1277" d="M14 1219v215h490v-594h239q15 0 29.5 -0.5t50.5 -4.5t67 -10.5t74 -21.5t77.5 -35t70 -52.5t60 -73t40 -97.5t15.5 -125q0 -86 -26 -155.5t-64.5 -112t-92.5 -74t-98.5 -46t-95.5 -22.5t-71 -9t-36 -1h-479v1219h-250zM504 240h239q13 0 24 0.5t37.5 4t47.5 9.5 t46.5 19.5t43 32t29.5 48t12 66.5q0 51 -21 88t-48 55t-65.5 28t-60 11.5t-45.5 1.5h-239v-364z" />
<glyph unicode="&#x42b;" horiz-adv-x="1736" d="M162 0v1434h239v-594h240q15 0 29 -0.5t50 -4.5t67.5 -10.5t74 -21.5t77 -35t70.5 -52.5t60 -73t39.5 -97.5t15.5 -125q0 -67 -16 -124.5t-41.5 -98t-62 -73t-72.5 -52.5t-79 -35t-74.5 -21.5t-66 -10.5t-47.5 -4.5t-24 -0.5h-479zM401 240h240q13 0 24 0.5t37.5 4 t47.5 9.5t46.5 19.5t43 32t29.5 48t12 66.5q0 51 -21 88t-48 55t-65.5 28t-60 11.5t-45.5 1.5h-240v-364zM1335 0v1434h240v-1434h-240z" />
<glyph unicode="&#x42c;" horiz-adv-x="1187" d="M162 0v1434h239v-594h240q15 0 29 -0.5t50 -4.5t67.5 -10.5t74 -21.5t77 -35t70.5 -52.5t60 -73t39.5 -97.5t15.5 -125q0 -67 -16 -124.5t-41.5 -98t-62 -73t-72.5 -52.5t-79 -35t-74.5 -21.5t-66 -10.5t-47.5 -4.5t-24 -0.5h-479zM401 240h240q13 0 24 0.5t37.5 4 t47.5 9.5t46.5 19.5t43 32t29.5 48t12 66.5q0 51 -21 88t-48 55t-65.5 28t-60 11.5t-45.5 1.5h-240v-364z" />
<glyph unicode="&#x42d;" horiz-adv-x="1421" d="M109 190l167 170q66 -66 153.5 -102.5t184.5 -36.5q166 0 296 109.5t167 273.5h-600v234h604q-34 182 -161.5 279t-305.5 97q-97 0 -184.5 -36.5t-153.5 -102.5l-167 168q99 100 228.5 155.5t276.5 55.5q197 0 360 -90.5t260 -260t97 -386.5q0 -154 -57 -291.5t-153 -234 t-228.5 -153t-278.5 -56.5q-147 0 -276.5 54.5t-228.5 153.5z" />
<glyph unicode="&#x42e;" horiz-adv-x="2033" d="M166 0v1434h240v-594h202q14 99 46.5 187.5t88.5 167t130 135t176 89.5t221 33q165 0 298.5 -63t216 -166.5t127 -235t44.5 -269.5t-44.5 -269.5t-126.5 -235t-216 -166.5t-299 -63q-148 0 -268.5 50t-199.5 137t-128 194.5t-66 232.5h-202v-598h-240zM834 717 q0 -130 46 -241.5t148 -186t242 -74.5q107 0 193 43t139 113.5t82 161t29 184.5t-29 184.5t-82 161t-139 113.5t-193 43q-139 0 -241.5 -74.5t-148.5 -186t-46 -241.5z" />
<glyph unicode="&#x42f;" horiz-adv-x="1265" d="M72 0l389 623q-46 13 -86.5 31.5t-84 51t-74.5 73.5t-51 102.5t-20 134.5q0 67 16.5 124t44 97t63.5 73t76 52.5t80 34.5t76 21.5t63.5 10.5t43.5 5h17h477v-240l-228 -358h228v-836h-240v598h-137l-373 -598h-280zM385 1016q0 -40 16 -72t39 -50t53.5 -31t54 -18 t46.5 -7l223 356h-192q-5 0 -13.5 -0.5t-33.5 -4t-47.5 -9.5t-50.5 -19.5t-48 -31.5t-33.5 -47.5t-13.5 -65.5z" />
<glyph unicode="&#x430;" d="M0 0l571 1475l574 -1475h-258l-64 166h-504l-61 -166h-258zM397 373h348l-174 497z" />
<glyph unicode="&#x431;" horiz-adv-x="1234" d="M162 0v1434h889v-232h-652v-346h240q250 0 374 -110.5t124 -311.5q0 -81 -23 -147.5t-58.5 -110.5t-84.5 -77.5t-95.5 -51.5t-96.5 -29.5t-82 -14.5t-58 -3h-477zM399 238h240q44 0 83.5 7.5t82 27t67.5 61t25 100.5q0 58 -24.5 98.5t-66 59t-81.5 26t-86 7.5h-240v-387z " />
<glyph unicode="&#x432;" horiz-adv-x="1234" d="M162 0v1434h477q10 0 27 -0.5t66.5 -7.5t95 -20.5t100.5 -43t94.5 -71t66.5 -109.5t27 -152q0 -131 -68 -210t-171 -105q55 -11 99 -34t70.5 -50.5t46 -58t27.5 -58.5t12.5 -51t4.5 -37v-14q0 -63 -14 -117.5t-37.5 -93.5t-56.5 -70.5t-67.5 -52t-75.5 -36t-75 -23 t-71 -12.5t-58.5 -6t-42.5 -1h-477zM399 238h240q34 0 65.5 3.5t68 15t63 30.5t44 52.5t17.5 78.5q0 54 -26.5 92t-64.5 54t-76 24.5t-64 7.5h-27h-240v-358zM399 836h240q5 0 13.5 0.5t33.5 4t47.5 9.5t49.5 19.5t47 31.5t33.5 47.5t13.5 65.5q0 54 -24.5 92.5t-59.5 55 t-70 25.5t-59 9h-25h-240v-360z" />
<glyph unicode="&#x433;" horiz-adv-x="1122" d="M162 0v1434h889v-232h-652v-1202h-237z" />
<glyph unicode="&#x434;" horiz-adv-x="1263" d="M6 215h137l490 1264l489 -1264h140v-434h-220v219h-815v-219h-221v434zM397 215h473l-237 655z" />
<glyph unicode="&#x435;" horiz-adv-x="1204" d="M162 0v1434h956v-240h-717v-358h596v-238h-596v-358h717v-240h-956z" />
<glyph unicode="&#x436;" horiz-adv-x="1792" d="M-2 0l518 760l-508 674h289l317 -420l158 -252v672h240v-672l159 254l316 418h289l-508 -674l518 -760h-297l-385 573l-92 -118v-455h-240v455l-94 123l-383 -578h-297z" />
<glyph unicode="&#x437;" horiz-adv-x="1009" d="M59 397h236q3 -93 62.5 -139.5t142.5 -46.5q77 0 133.5 61.5t56.5 147.5q0 95 -56.5 149t-144.5 54h-108v213h108q70 0 118 51.5t48 142.5q0 88 -49.5 140.5t-132.5 52.5t-135.5 -47t-52.5 -121h-219q0 174 113 286.5t294 112.5q189 0 305.5 -114.5t116.5 -311.5 q0 -94 -42.5 -173.5t-125.5 -117.5q90 -41 148.5 -128t58.5 -189q0 -112 -36.5 -199t-99 -138.5t-139 -77t-163.5 -25.5q-194 0 -315.5 113.5t-121.5 303.5z" />
<glyph unicode="&#x438;" horiz-adv-x="1523" d="M166 0v1434h242v-1041l714 1041h246v-1434h-244v1059l-712 -1059h-246z" />
<glyph unicode="&#x439;" horiz-adv-x="1529" d="M166 0v1434h242v-1041l714 1041h246v-1434h-244v1059l-712 -1059h-246zM463 1825h186q2 -64 41.5 -100t86.5 -36t86.5 36t41.5 100h187q0 -82 -24 -142.5t-66.5 -95.5t-95.5 -52t-118 -17t-121 17t-103 51.5t-74 96t-27 142.5z" />
<glyph unicode="&#x43a;" horiz-adv-x="1323" d="M162 0v1434h239v-723l588 723h299l-592 -729l596 -705h-313l-442 545l-136 -152v-393h-239z" />
<glyph unicode="&#x43b;" d="M0 0l571 1475l574 -1475h-258l-316 866l-313 -866h-258z" />
<glyph unicode="&#x43c;" horiz-adv-x="1875" d="M160 0v1436h243l545 -1117l522 1117h244v-1436h-239v881l-412 -881h-225l-439 899v-899h-239z" />
<glyph unicode="&#x43d;" horiz-adv-x="1404" d="M166 0v1434h240v-594h595v594h240v-1434h-240v598h-595v-598h-240z" />
<glyph unicode="&#x43e;" horiz-adv-x="1632" d="M103 717q0 138 46.5 270t131.5 235.5t223 166.5t309 63q170 0 307.5 -63t222.5 -166.5t131 -235.5t46 -270t-46 -270t-130.5 -235.5t-222.5 -166.5t-308 -63q-171 0 -309.5 63t-223.5 166.5t-131 235.5t-46 270zM350 716q0 -130 48.5 -242t157.5 -186.5t257 -74.5 t257 74.5t158 186.5t49 242t-49 242t-158 186.5t-257 74.5t-256.5 -74.5t-157.5 -186.5t-49 -242z" />
<glyph unicode="&#x43f;" horiz-adv-x="1404" d="M166 0v1434h1075v-1434h-240v1196h-595v-1196h-240z" />
<glyph unicode="&#x440;" horiz-adv-x="1187" d="M162 -4v1438h479q10 0 27 -1t67 -9t95 -22.5t100.5 -46t95 -74t67 -112t27.5 -155.5t-26.5 -155.5t-68.5 -112t-93.5 -74t-102.5 -46t-93 -22.5t-68 -9l-27 -1h-240v-598h-239zM401 834h240q5 0 13.5 0.5t33.5 4t47.5 9.5t50.5 19.5t48 32t33.5 48t13.5 66.5t-13 66.5 t-34.5 48t-47 32t-51 19.5t-47 9.5t-34.5 4.5h-13h-240v-360z" />
<glyph unicode="&#x441;" horiz-adv-x="1421" d="M113 717q0 213 91.5 381.5t255 262t371.5 93.5q147 0 277 -55.5t229 -155.5l-168 -168q-66 66 -153.5 102.5t-184.5 36.5q-218 0 -346.5 -138.5t-128.5 -358.5q0 -225 136 -361.5t339 -136.5q97 0 184.5 36.5t153.5 102.5l168 -170q-99 -99 -229 -153.5t-277 -54.5 q-198 0 -360.5 89t-260 258.5t-97.5 389.5z" />
<glyph unicode="&#x442;" horiz-adv-x="917" d="M41 1214v220h840v-220h-301v-1214h-238v1214h-301z" />
<glyph unicode="&#x443;" horiz-adv-x="1046" d="M12 1434h275l239 -680l254 680h254l-557 -1434h-246l168 446z" />
<glyph unicode="&#x444;" horiz-adv-x="1527" d="M72 713q1 103 38.5 201t106 175t178 124t244.5 47v174h240v-174q137 0 249 -47t181 -124t107 -175t38.5 -201t-36.5 -201t-105.5 -175t-181 -124t-252.5 -47v-186h-240v186q-138 0 -249.5 47t-179 124t-103.5 175t-35 201zM302 710.5q2 -62.5 25.5 -122t64.5 -106 t105.5 -75t141.5 -28.5v663q-85 0 -152 -28.5t-106.5 -75t-60 -106t-18.5 -122zM879 379q76 0 139.5 28.5t104 75t63.5 106t25 122t-18.5 122t-59.5 106t-105 75t-149 28.5v-663z" />
<glyph unicode="&#x445;" horiz-adv-x="1380" d="M35 0l512 717l-512 717h293l366 -512l365 512h293l-512 -717l512 -717h-293l-365 512l-366 -512h-293z" />
<glyph unicode="&#x446;" horiz-adv-x="1433" d="M164 0v1434h239v-1198h596v1198h240v-1215h141v-442h-223v223h-993z" />
<glyph unicode="&#x447;" horiz-adv-x="1298" d="M109 961v473h239v-473q10 -120 91.5 -182t197.5 -62q70 0 139 25.5t121 70.5v621h240v-1434h-240v565q-138 -84 -295 -84q-215 0 -354 133t-139 347z" />
<glyph unicode="&#x448;" horiz-adv-x="2070" d="M164 0v1434h239v-1198h515v1198h235v-1198h514v1198h240v-1434h-1743z" />
<glyph unicode="&#x449;" horiz-adv-x="2101" d="M164 0v1434h239v-1198h515v1198h235v-1198h514v1198h240v-1215h141v-442h-223v223h-1661z" />
<glyph unicode="&#x44a;" horiz-adv-x="1277" d="M14 1219v215h490v-594h239q15 0 29.5 -0.5t50.5 -4.5t67 -10.5t74 -21.5t77.5 -35t70 -52.5t60 -73t40 -97.5t15.5 -125q0 -86 -26 -155.5t-64.5 -112t-92.5 -74t-98.5 -46t-95.5 -22.5t-71 -9t-36 -1h-479v1219h-250zM504 240h239q13 0 24 0.5t37.5 4t47.5 9.5 t46.5 19.5t43 32t29.5 48t12 66.5q0 51 -21 88t-48 55t-65.5 28t-60 11.5t-45.5 1.5h-239v-364z" />
<glyph unicode="&#x44b;" horiz-adv-x="1736" d="M162 0v1434h239v-594h240q15 0 29 -0.5t50 -4.5t67.5 -10.5t74 -21.5t77 -35t70.5 -52.5t60 -73t39.5 -97.5t15.5 -125q0 -67 -16 -124.5t-41.5 -98t-62 -73t-72.5 -52.5t-79 -35t-74.5 -21.5t-66 -10.5t-47.5 -4.5t-24 -0.5h-479zM401 240h240q13 0 24 0.5t37.5 4 t47.5 9.5t46.5 19.5t43 32t29.5 48t12 66.5q0 51 -21 88t-48 55t-65.5 28t-60 11.5t-45.5 1.5h-240v-364zM1335 0v1434h240v-1434h-240z" />
<glyph unicode="&#x44c;" horiz-adv-x="1187" d="M162 0v1434h239v-594h240q15 0 29 -0.5t50 -4.5t67.5 -10.5t74 -21.5t77 -35t70.5 -52.5t60 -73t39.5 -97.5t15.5 -125q0 -67 -16 -124.5t-41.5 -98t-62 -73t-72.5 -52.5t-79 -35t-74.5 -21.5t-66 -10.5t-47.5 -4.5t-24 -0.5h-479zM401 240h240q13 0 24 0.5t37.5 4 t47.5 9.5t46.5 19.5t43 32t29.5 48t12 66.5q0 51 -21 88t-48 55t-65.5 28t-60 11.5t-45.5 1.5h-240v-364z" />
<glyph unicode="&#x44d;" horiz-adv-x="1421" d="M109 190l167 170q66 -66 153.5 -102.5t184.5 -36.5q166 0 296 109.5t167 273.5h-600v234h604q-34 182 -161.5 279t-305.5 97q-97 0 -184.5 -36.5t-153.5 -102.5l-167 168q99 100 228.5 155.5t276.5 55.5q197 0 360 -90.5t260 -260t97 -386.5q0 -154 -57 -291.5t-153 -234 t-228.5 -153t-278.5 -56.5q-147 0 -276.5 54.5t-228.5 153.5z" />
<glyph unicode="&#x44e;" horiz-adv-x="2033" d="M166 0v1434h240v-594h202q14 99 46.5 187.5t88.5 167t130 135t176 89.5t221 33q165 0 298.5 -63t216 -166.5t127 -235t44.5 -269.5t-44.5 -269.5t-126.5 -235t-216 -166.5t-299 -63q-148 0 -268.5 50t-199.5 137t-128 194.5t-66 232.5h-202v-598h-240zM834 717 q0 -130 46 -241.5t148 -186t242 -74.5q107 0 193 43t139 113.5t82 161t29 184.5t-29 184.5t-82 161t-139 113.5t-193 43q-139 0 -241.5 -74.5t-148.5 -186t-46 -241.5z" />
<glyph unicode="&#x44f;" horiz-adv-x="1214" d="M80 0l293 635q-277 101 -277 381q0 85 26.5 154.5t68.5 111.5t93 73.5t102.5 46t93.5 22.5t68 9l27 1h478v-1434h-240v598h-195l-274 -598h-264zM336 1016q0 -50 24.5 -88t59.5 -56.5t70.5 -29.5t59.5 -13l25 -2h238v373h-238q-5 0 -13.5 -0.5t-33.5 -5t-47.5 -11 t-50 -20.5t-47.5 -32.5t-33.5 -48.5t-13.5 -66z" />
<glyph unicode="&#x451;" horiz-adv-x="1204" d="M162 0v1434h956v-240h-717v-358h596v-238h-596v-358h717v-240h-956zM303 1675q0 52 39.5 89.5t93.5 37.5q56 0 95.5 -37.5t39.5 -89.5q0 -51 -40 -89t-95 -38q-54 0 -93.5 38t-39.5 89zM731 1675q0 52 39.5 89.5t93.5 37.5q56 0 95.5 -37.5t39.5 -89.5q0 -51 -40 -89 t-95 -38q-54 0 -93.5 38t-39.5 89z" />
<glyph unicode="&#x2000;" horiz-adv-x="998" />
<glyph unicode="&#x2001;" horiz-adv-x="1997" />
<glyph unicode="&#x2002;" horiz-adv-x="998" />
<glyph unicode="&#x2003;" horiz-adv-x="1997" />
<glyph unicode="&#x2004;" horiz-adv-x="665" />
<glyph unicode="&#x2005;" horiz-adv-x="499" />
<glyph unicode="&#x2006;" horiz-adv-x="332" />
<glyph unicode="&#x2007;" horiz-adv-x="332" />
<glyph unicode="&#x2008;" horiz-adv-x="249" />
<glyph unicode="&#x2009;" horiz-adv-x="399" />
<glyph unicode="&#x200a;" horiz-adv-x="110" />
<glyph unicode="&#x2010;" horiz-adv-x="907" d="M84 612v217h721v-217h-721z" />
<glyph unicode="&#x2011;" horiz-adv-x="907" d="M84 612v217h721v-217h-721z" />
<glyph unicode="&#x2012;" horiz-adv-x="907" d="M84 612v217h721v-217h-721z" />
<glyph unicode="&#x2013;" horiz-adv-x="1042" d="M80 584v227h866v-227h-866z" />
<glyph unicode="&#x2014;" horiz-adv-x="1185" d="M80 584v227h989v-227h-989z" />
<glyph unicode="&#x201a;" horiz-adv-x="411" d="M59 111q0 53 37.5 90t89.5 37q50 0 83.5 -19.5t46.5 -51t14.5 -71.5t-11 -83t-31.5 -82.5t-46 -72.5t-56 -51v177q-52 0 -89.5 37t-37.5 90z" />
<glyph unicode="&#x201e;" horiz-adv-x="804" d="M59 111q0 53 37.5 90t89.5 37q50 0 83.5 -19.5t46.5 -51t14.5 -71.5t-11 -83t-31.5 -82.5t-46 -72.5t-56 -51v177q-52 0 -89.5 37t-37.5 90zM434 111q0 53 37 90t90 37q50 0 83.5 -19.5t46.5 -51t14.5 -71.5t-11 -83t-31.5 -82.5t-46 -72.5t-56 -51v177q-53 0 -90 37 t-37 90z" />
<glyph unicode="&#x2020;" horiz-adv-x="1112" d="M78 836v239h358v359h240v-359h358v-239h-358v-836h-240v836h-358z" />
<glyph unicode="&#x2021;" horiz-adv-x="1099" d="M74 385v240h358v211h-358v239h358v359h240v-359h358v-239h-358v-211h358v-240h-358v-385h-240v385h-358z" />
<glyph unicode="&#x2022;" horiz-adv-x="638" d="M82 717q0 92 65 156.5t156 64.5q92 0 156.5 -64.5t64.5 -156.5q0 -91 -64.5 -156t-156.5 -65q-91 0 -156 65t-65 156z" />
<glyph unicode="&#x2026;" horiz-adv-x="1138" d="M53 115q0 54 37.5 92.5t89.5 38.5q55 0 93 -38.5t38 -92.5q0 -53 -38 -90t-93 -37q-52 0 -89.5 37t-37.5 90zM422 115q0 54 37.5 92.5t89.5 38.5q55 0 93 -38.5t38 -92.5q0 -53 -38 -90t-93 -37q-53 0 -90 37t-37 90zM791 115q0 54 37.5 92.5t89.5 38.5q55 0 93 -38.5 t38 -92.5q0 -53 -38 -90t-93 -37q-52 0 -89.5 37t-37.5 90z" />
<glyph unicode="&#x202f;" horiz-adv-x="399" />
<glyph unicode="&#x2030;" horiz-adv-x="2041" d="M0 4l1112 1430h227l-1112 -1430h-227zM43 1139q0 121 86.5 208t208.5 87t208.5 -87t86.5 -208t-86.5 -208t-208.5 -87t-208.5 87t-86.5 208zM213 1139q0 -53 36.5 -89t88.5 -36t88.5 36t36.5 89t-36.5 90t-88.5 37t-88.5 -37t-36.5 -90zM698 301q0 124 87 211.5t210 87.5 q125 0 212 -87t87 -212q0 -123 -87.5 -210t-211.5 -87q-123 0 -210 87t-87 210zM868 301q0 -53 37 -90t90 -37q54 0 91.5 37t37.5 90q0 54 -37.5 91.5t-91.5 37.5q-53 0 -90 -37.5t-37 -91.5zM1386 301q0 124 87 211.5t210 87.5q125 0 212 -87t87 -212q0 -123 -87.5 -210 t-211.5 -87q-123 0 -210 87t-87 210zM1556 301q0 -53 37 -90t90 -37q54 0 91.5 37t37.5 90q0 54 -37.5 91.5t-91.5 37.5q-53 0 -90 -37.5t-37 -91.5z" />
<glyph unicode="&#x2039;" horiz-adv-x="643" d="M39 655l375 478l153 -123l-256 -355l264 -319l-155 -129z" />
<glyph unicode="&#x203a;" horiz-adv-x="643" d="M51 336l264 319l-256 355l154 123l375 -478l-381 -448z" />
<glyph unicode="&#x205f;" horiz-adv-x="499" />
<glyph unicode="&#x20ac;" horiz-adv-x="1214" d="M12 471v176h117q-5 52 -2 117h-115v176h146q31 105 86.5 192t137 156t196.5 107.5t253 38.5q160 0 318 -84l-111 -211q-107 55 -207 55q-151 0 -256.5 -69.5t-160.5 -184.5h352v-176h-397q-6 -62 2 -117h395v-176h-340q57 -106 159.5 -168.5t245.5 -62.5q128 0 230 51 l80 -228q-138 -63 -310 -63q-134 0 -247 36.5t-193.5 102t-137 148.5t-89.5 184h-152z" />
<glyph unicode="&#x2122;" horiz-adv-x="1323" d="M84 1333v101h385v-101h-141v-508h-103v508h-141zM551 825h100v381l187 -381h94l174 373v-373h102v609h-104l-221 -473l-230 473h-102v-609z" />
<glyph unicode="&#x2212;" horiz-adv-x="821" d="M37 586v215h690v-215h-690z" />
<glyph unicode="&#x221e;" horiz-adv-x="1662" d="M113 680q0 123 54.5 216t156.5 146q43 21 92.5 33.5t72 14.5t35.5 2h43l264 -267l267 267h43q13 0 35.5 -2t72 -14.5t92.5 -33.5q102 -53 156.5 -146t54.5 -216t-54.5 -216.5t-156.5 -146.5q-100 -49 -200 -49h-43l-267 267l-264 -267h-43q-100 0 -200 49 q-102 53 -156.5 146.5t-54.5 216.5zM317 680q0 -124 95 -174q34 -19 73 -27l203 201l-203 201q-44 -9 -73 -25q-95 -50 -95 -176zM977 680l203 -201q39 8 73 27q95 50 95 174q0 126 -95 176q-29 16 -73 25z" />
<glyph unicode="&#x2260;" horiz-adv-x="1073" d="M104 406v219h240l102 221h-342v219h445l88 195h246l-90 -195h188v-219h-289l-102 -221h391v-219h-494l-104 -224h-244l103 224h-138z" />
<glyph unicode="&#x25ca;" horiz-adv-x="991" d="M14 715l480 719l479 -719l-479 -719zM270 715l224 -336l223 336l-223 334z" />
<glyph unicode="&#x25fc;" horiz-adv-x="1433" d="M0 0v1434h1434v-1434h-1434z" />
<glyph horiz-adv-x="1312" d="M0 1434h1315l-539 -754v-678h-237v678zM463 1194l194 -270l195 270h-389z" />
<glyph horiz-adv-x="2041" d="M0 1434l2048 -2l-575 -1475l-449 1163l-451 -1163zM354 1194l219 -592l222 592h-441zM1253 1194l220 -592l221 592h-441z" />
<glyph horiz-adv-x="1398" d="M162 0v956q0 123 67 240q26 45 62.5 83.5t92 75.5t136.5 58t178 21q331 0 469 -238q30 -51 47.5 -111.5t20 -86t2.5 -42.5v-956h-240v240h-596v-240h-239zM401 477h596v477q0 65 -39 127q-73 113 -260 113q-192 0 -262 -119q-15 -26 -23.5 -56t-10.5 -47l-1 -16v-479z " />
<glyph horiz-adv-x="933" d="M109 717q0 146 57 278.5t152.5 228.5t228.5 153t278 57v-240q-198 0 -337.5 -139.5t-139.5 -337.5t139.5 -337.5t337.5 -139.5v-240q-145 0 -278 57t-228.5 153t-152.5 228.5t-57 278.5z" />
<glyph horiz-adv-x="1134" d="M0 0l571 1475l574 -1475h-1145zM352 238h441l-222 591z" />
<glyph horiz-adv-x="534" d="M82 178q0 74 52.5 127t127.5 53q73 0 125.5 -53t52.5 -127t-52.5 -127t-125.5 -53q-75 0 -127.5 53t-52.5 127zM141 596v838h240v-838h-240z" />
<glyph horiz-adv-x="868" d="M-8 1016l440 418l440 -418l-133 -125l-307 293l-307 -293z" />
<glyph horiz-adv-x="1263" d="M162 0v836h956v-238h-717v-598h-239zM162 1194v240h956v-240h-956z" />
<glyph horiz-adv-x="1372" d="M162 0v1434h239q64 0 121 -3.5t125 -13.5t126.5 -27t120 -45.5t111 -66t94.5 -92.5t75 -121.5t47.5 -155t17.5 -192.5q0 -127 -28 -232t-75 -178t-115 -129t-140 -89t-158.5 -53.5t-162.5 -28t-159 -7.5h-239zM401 233q9 -1 24.5 -2.5t62.5 -1.5t92 5.5t104 23t107 45.5 l-390 621v-691zM485 1204l463 -731q49 100 49 244q0 90 -20 164.5t-52.5 124t-78 87.5t-91 58.5t-98 33t-92.5 16t-80 3.5z" />
<glyph horiz-adv-x="1263" d="M160 0v1434h956v-240h-717v-178h717v-240h-717v-119h717v-239h-717v-178h717v-240h-956z" />
<glyph horiz-adv-x="1325" d="M0 2l512 715l-512 717h1317l-512 -717l512 -715h-1317zM463 240h389l-195 272zM463 1194l194 -270l195 270h-389z" />
<glyph horiz-adv-x="1515" d="M160 0v238h1196v-238h-1196zM160 473v961h221l385 -643l369 643h221v-961h-236v459l-256 -447h-190l-277 461v-473h-237z" />
<glyph horiz-adv-x="1142" d="M0 0l571 1434l574 -1434h-258l-316 788l-313 -788h-258z" />
<glyph horiz-adv-x="1138" d="M86 717v217h358v276h-358v224h956v-224h-358v-276h358v-217h-358v-717h-240v717h-358z" />
<glyph horiz-adv-x="1751" d="M162 4v1430h1429v-1430h-1429zM399 242h955v954h-955v-954z" />
<glyph horiz-adv-x="1163" d="M162 0h835v240h-835v-240zM162 477v957h239v-359h359v359h237v-957h-237v359h-359v-359h-239z" />
<glyph horiz-adv-x="1673" d="M121 717q0 145 57 278t153 229t229 153t278 57t278 -57t228.5 -153t152.5 -228.5t57 -278.5t-57 -279t-152.5 -229t-228 -152.5t-278.5 -56.5t-278.5 56.5t-228.5 152.5t-153 229t-57 279zM360 717q0 -130 64 -240.5t174 -174.5t240 -64q97 0 185.5 38t152.5 102 t101.5 153t37.5 186q0 198 -139.5 337.5t-337.5 139.5q-130 0 -240 -63.5t-174 -173.5t-64 -240zM670 717l168 -170l170 170l-170 168z" />
<glyph horiz-adv-x="1142" d="M145 420v598q0 173 123.5 296.5t296.5 123.5t295.5 -123.5t122.5 -296.5v-598q0 -173 -122.5 -296.5t-295.5 -123.5t-296.5 123.5t-123.5 296.5zM385 645l293 512q-47 41 -113 41q-75 0 -127.5 -52.5t-52.5 -127.5v-373zM453 281q47 -41 112 -41q74 0 126 52.5t52 127.5 v373z" />
<glyph horiz-adv-x="1662" d="M117 715q0 146 56.5 278.5t152 228.5t228 153t277.5 57t278 -57t229 -153t153 -229t57 -278t-57 -277.5t-153 -228.5t-228.5 -152.5t-278.5 -56.5t-278 56.5t-227.5 152.5t-152 228t-56.5 278zM354 715q0 -164 101.5 -292.5t257.5 -168.5v924q-156 -40 -257.5 -169 t-101.5 -294zM952 254q155 40 256 168.5t101 292.5q0 165 -101 294t-256 169v-924z" />
<glyph horiz-adv-x="1081" d="M86 391v78l207 188q-100 54 -153.5 145.5t-53.5 209.5q0 93 37 173t99 132.5t142.5 82.5t167.5 30q14 0 37.5 -2t76.5 -14t99 -32q114 -52 174 -147t60 -223v-51l-205 -189q100 -54 152.5 -145t52.5 -209q0 -124 -64 -221t-165 -147t-218 -50q-101 0 -204 45 q-111 47 -173.5 136.5t-68.5 209.5zM324 1012q0 -140 168 -174l245 223q-17 70 -90 104q-53 23 -117 23q-87 0 -146.5 -46t-59.5 -130zM330 369q14 -63 73.5 -97t128.5 -34q88 0 148.5 49t60.5 131q0 74 -46.5 116.5t-121.5 57.5z" />
<glyph horiz-adv-x="1406" d="M109 717q0 146 57 278.5t152.5 228.5t228.5 153t278 57q147 0 277 -55.5t229 -155.5l-168 -168q-66 66 -153.5 102.5t-184.5 36.5q-198 0 -337.5 -139.5t-139.5 -337.5t139.5 -337.5t337.5 -139.5q97 0 184.5 36.5t153.5 102.5l168 -170q-99 -99 -229.5 -154t-276.5 -55 q-145 0 -278 57t-228.5 153t-152.5 228.5t-57 278.5zM602 717q0 -91 65 -156t156 -65q92 0 156.5 65t64.5 156q0 92 -64.5 156.5t-156.5 64.5q-91 0 -156 -64.5t-65 -156.5z" />
<glyph horiz-adv-x="2097" d="M0 1436h258l469 -1125l191 457l-277 668h258l150 -357l147 357h260l-278 -668l190 -457l469 1125h258l-598 -1436h-258l-190 459l-191 -459h-260z" />
<glyph horiz-adv-x="1525" d="M0 885l520 76l232 471l233 -471l520 -76l-377 -367l89 -518l-465 246l-465 -246l90 518zM444 733l154 -151l-35 -209l189 98l190 -98l-35 209l154 151l-213 31l-96 190l-97 -190z" />
<glyph horiz-adv-x="1519" d="M162 0v1434h241l715 -1020v1020h238v-1434h-242l-352 506l-361 -506h-239zM401 412l215 301l-215 307v-608z" />
<glyph horiz-adv-x="1034" d="M0 598l348 836h258l-248 -596h646l-349 -836h-258l250 596h-647z" />
<glyph horiz-adv-x="1193" d="M117 0v240h956v-240h-956zM117 598v238h956v-238h-956zM117 1194v240h956v-240h-956z" />
<glyph horiz-adv-x="1394" d="M162 0v1434h239v-359h596v359h240v-1434h-240v358h-596v-358h-239zM401 598h596v238h-596v-238z" />
<glyph horiz-adv-x="1148" d="M162 0v1434h239v-717h635v-219h-635v-258h656v-240h-895z" />
<glyph horiz-adv-x="2093" d="M0 0l598 1436h258l191 -459l190 459h260l598 -1436h-258l-469 1124l-190 -456l276 -668h-258l-149 356l-148 -356h-260l279 668l-191 456l-469 -1124h-258z" />
<glyph horiz-adv-x="1593" d="M61 719q0 145 56.5 277t152.5 228t228.5 153t277.5 57t277 -57t227.5 -153t152 -228t56.5 -277t-56.5 -277t-152 -228t-227.5 -153t-277 -57t-277.5 57t-228.5 153t-152.5 228t-56.5 277zM160 719q0 -125 49 -239t131.5 -196.5t196.5 -131t239 -48.5t238.5 48.5t196 131 t131.5 196.5t49 239t-49 239t-131.5 196.5t-196 131.5t-238.5 49q-167 0 -309 -82.5t-224.5 -224.5t-82.5 -309zM283 719h98q0 -163 116 -278t279 -115t278 115t115 278h99q0 -99 -39 -190.5t-105 -157.5t-157.5 -105t-190.5 -39q-100 0 -191.5 39t-157.5 105.5t-105 157.5 t-39 190zM498 940q0 115 24 197t58 82t56.5 -81.5t22.5 -197.5q0 -115 -23 -195.5t-56 -80.5q-34 0 -58 81t-24 195zM895 940q0 116 23 197.5t57 81.5q32 0 55 -82t23 -197q0 -114 -23 -195t-55 -81q-34 0 -57 80.5t-23 195.5z" />
<glyph horiz-adv-x="1677" d="M0 719l414 717h829l414 -717l-414 -719h-829zM274 719l277 -481h555l276 481l-276 479h-555z" />
<glyph horiz-adv-x="1142" d="M0 0l571 1434l347 -865l227 -569h-258l-99 248l-98 -248h-235l-99 248l-98 -248h-258zM485 569l86 -219l88 219l-88 219z" />
<glyph horiz-adv-x="1277" d="M72 0l477 1194h-477v240h1145v-240h-478l478 -1194h-259l-315 788l-313 -788h-258z" />
<glyph horiz-adv-x="1654" d="M109 717q0 146 56.5 278t152 228t227.5 152.5t278 56.5t278.5 -56.5t228.5 -152.5t153 -228.5t57 -277.5t-57 -278t-153 -229t-229 -153t-278 -57t-277.5 57t-228 153t-152 228.5t-56.5 278.5zM346 717q0 -97 38 -185.5t102 -152.5t152 -101.5t185 -37.5q113 0 213 49 l-622 672q-68 -114 -68 -244zM584 1128l633 -684q83 122 83 273q0 97 -37.5 185t-101.5 152t-152.5 102t-185.5 38q-126 0 -239 -66z" />
<glyph horiz-adv-x="2324" d="M117 717q0 145 57 278t153 229t229 153t278 57q173 0 327 -80q154 80 328 80q145 0 278 -57t229 -153t153 -229t57 -278t-57 -278t-153 -229t-229 -153t-278 -57q-174 0 -328 80q-154 -80 -327 -80q-145 0 -278 57t-229 153t-153 229t-57 278zM356 717q0 -130 64 -240 t174 -173.5t240 -63.5q58 0 110 12q-170 204 -170 465q0 265 170 465q-53 12 -110 12q-130 0 -240 -63.5t-174 -173.5t-64 -240zM1012 717q0 -100 39.5 -190.5t109.5 -155.5q70 66 110 156t40 190q0 101 -40 190.5t-110 155.5q-70 -66 -109.5 -155.5t-39.5 -190.5zM1378 252 q52 -12 111 -12q198 0 337.5 139.5t139.5 337.5t-139.5 337.5t-337.5 139.5q-58 0 -111 -12q170 -200 170 -465q0 -261 -170 -465z" />
<glyph horiz-adv-x="1150" d="M55 0v219h160v995h-160v220h1039v-220h-162v-995h162v-219h-1039zM455 219h239v995h-239v-995z" />
<glyph horiz-adv-x="2093" d="M90 0v240h119v956h-119v240h1913v-240h-119v-956h119v-240h-1913zM449 240h239v956h-239v-956zM928 240h239v956h-239v-956zM1405 240h240v956h-240v-956z" />
<glyph horiz-adv-x="1243" d="M92 479q0 186 127 326q-60 51 -93.5 121.5t-33.5 152.5q0 148 105.5 253.5t253.5 105.5q149 0 254.5 -105.5t105.5 -253.5q0 -99 -48.5 -182t-131.5 -129l180 -178v250h240v-361q0 -45 -15 -114l219 -220l-170 -170l-170 170q-145 -145 -344 -145q-97 0 -186 38t-153 102 t-102 153t-38 186zM332 479q0 -99 70 -169t169 -70q105 0 174 75l-337 338q-76 -70 -76 -174zM332 1079q0 -51 34.5 -86t84.5 -35q51 0 85.5 35t34.5 86q0 50 -34.5 84.5t-85.5 34.5q-49 0 -84 -35t-35 -84z" />
<glyph horiz-adv-x="1673" d="M86 926q0 152 59.5 290.5t159.5 238.5t238.5 159t290.5 59t290 -59t238.5 -159t159.5 -238.5t59 -290.5h-240q0 136 -65.5 251.5t-178.5 184t-247 72.5l571 -1434h-258l-73 170l-484 10l-71 -180h-259l125 315q-145 103 -230 264t-85 347zM326 926q0 -110 45 -208.5 t125 -170.5l352 887h-14q-138 0 -255 -68t-185 -185t-68 -255zM707 434q52 -13 98 -16h192l-147 370z" />
<glyph horiz-adv-x="1667" d="M117 717q0 146 56.5 278.5t152 228.5t228 153t277.5 57q146 0 279 -57t229 -153t152.5 -228.5t56.5 -278.5t-56.5 -278t-152.5 -228t-229 -152.5t-279 -56.5t-278 56.5t-227.5 152.5t-152 228t-56.5 278zM354 717q0 -96 38 -184.5t102 -152.5t152.5 -102t184.5 -38 q130 0 240 64t174 174t64 239q0 130 -64 240t-174 173.5t-240 63.5q-97 0 -185 -37.5t-152 -101.5t-102 -152.5t-38 -185.5zM610 717q0 -91 65 -156t156 -65q92 0 157 65t65 156q0 92 -65 156.5t-157 64.5q-91 0 -156 -64.5t-65 -156.5z" />
<glyph horiz-adv-x="1169" d="M0 0l287 717l-287 717h258l158 -396l155 396l158 -396l158 396h258l-287 -717l287 -717h-258l-316 788l-313 -788h-258z" />
<glyph d="M0 0l571 1475l574 -1475h-258l-64 166h-504l-61 -166h-258zM397 373h348l-174 497z" />
</font>
</defs>
</svg>
