<?xml version="1.0" encoding="iso-8859-1"?>
<!-- Generator: Adobe Illustrator 18.1.1, SVG Export Plug-In . SVG Version: 6.00 Build 0)  -->
<svg version="1.1" id="Layer_1" xmlns="http://www.w3.org/2000/svg" xmlns:xlink="http://www.w3.org/1999/xlink" x="0px" y="0px"
	 viewBox="0 0 64 64" style="enable-background:new 0 0 64 64;" xml:space="preserve">
<g>
	<g>
		<path style="fill-rule:evenodd;clip-rule:evenodd;" d="M46,36H18c-0.552,0-1,0.448-1,1c0,0.552,0.448,1,1,1h28
			c0.552,0,1-0.447,1-1C47,36.448,46.552,36,46,36z M46,31H18c-0.552,0-1,0.448-1,1s0.448,1,1,1h28c0.552,0,1-0.448,1-1
			S46.552,31,46,31z M18,28h28c0.552,0,1-0.447,1-1c0-0.553-0.448-1-1-1H18c-0.552,0-1,0.447-1,1C17,27.553,17.448,28,18,28z"/>
	</g>
</g>
</svg>
