<?xml version="1.0" encoding="iso-8859-1"?>
<!-- Generator: Adobe Illustrator 18.1.1, SVG Export Plug-In . SVG Version: 6.00 Build 0)  -->
<svg version="1.1" id="Layer_1" xmlns="http://www.w3.org/2000/svg" xmlns:xlink="http://www.w3.org/1999/xlink" x="0px" y="0px"
	 viewBox="0 0 64 64" style="enable-background:new 0 0 64 64;" xml:space="preserve">
<g>
	<path d="M62,6v56H6V6H62 M64,4H4v60h60V4L64,4z"/>
</g>
<g>
	<path d="M57.73,2v56H2V2H57.73 M59.73,0H0v60h59.73V0L59.73,0z"/>
</g>
<path style="fill-rule:evenodd;clip-rule:evenodd;" d="M45.5,42.501V54.5h-32v-35h32v7c4.418,0,8,3.582,8,8.001
	C53.5,38.918,49.918,42.501,45.5,42.501z M43.5,21.5h-28v31h28V21.5z M45.5,28.5v12c3.309,0,6-2.691,6-6
	C51.5,31.191,48.809,28.5,45.5,28.5z M36.5,12.5h2v4h-2V12.5z M28.5,9.5h2v7h-2V9.5z M20.5,12.5h2v4h-2V12.5z"/>
</svg>
