<?xml version="1.0" encoding="iso-8859-1"?>
<!-- Generator: Adobe Illustrator 18.1.1, SVG Export Plug-In . SVG Version: 6.00 Build 0)  -->
<svg version="1.1" id="Layer_1" xmlns="http://www.w3.org/2000/svg" xmlns:xlink="http://www.w3.org/1999/xlink" x="0px" y="0px"
	 viewBox="0 0 64 64" style="enable-background:new 0 0 64 64;" xml:space="preserve">
<path d="M32,0C14.355,0,0,14.355,0,32c0,17.645,14.355,32,32,32s32-14.354,32-32C64,14.355,49.645,0,32,0z M33.28,61.408V60.16
	c0-0.707-0.573-1.28-1.28-1.28c-0.707,0-1.28,0.573-1.28,1.28v1.248C15.504,60.753,3.247,48.497,2.592,33.281H3.84
	c0.707,0,1.28-0.573,1.28-1.28c0-0.707-0.573-1.279-1.28-1.279H2.592C3.247,15.504,15.504,3.248,30.72,2.593V3.84
	c0,0.707,0.573,1.28,1.28,1.28c0.707,0,1.28-0.573,1.28-1.28V2.593c15.217,0.655,27.473,12.912,28.128,28.128H60.16
	c-0.707,0-1.28,0.573-1.28,1.279c0,0.707,0.573,1.28,1.28,1.28h1.248C60.753,48.497,48.497,60.753,33.28,61.408z M47.469,14.862
	l-19.381,12.89c-0.133,0.088-0.248,0.203-0.336,0.336L14.86,47.471c-0.318,0.477-0.255,1.114,0.151,1.52
	c0.233,0.232,0.541,0.352,0.853,0.352c0.23,0,0.463-0.067,0.667-0.201l19.383-12.892c0.132-0.089,0.248-0.204,0.336-0.336
	l12.89-19.379c0.318-0.478,0.254-1.114-0.151-1.52C48.581,14.608,47.946,14.545,47.469,14.862z M29.624,29.624L29.624,29.624
	l4.753,4.753l-14.193,9.439L29.624,29.624z"/>
</svg>
