<?xml version="1.0" encoding="iso-8859-1"?>
<!-- Generator: Adobe Illustrator 18.1.1, SVG Export Plug-In . SVG Version: 6.00 Build 0)  -->
<svg version="1.1" id="Layer_1" xmlns="http://www.w3.org/2000/svg" xmlns:xlink="http://www.w3.org/1999/xlink" x="0px" y="0px"
	 viewBox="0 0 64 64" style="enable-background:new 0 0 64 64;" xml:space="preserve">
<path d="M64,51.661L51.692,63.952L31.463,43.75l1.849-1.846l18.38,18.356l8.61-8.599l-0.848-0.848l-1.69,1.689l-1.849-1.847
	l1.69-1.688l-2.073-2.07l-2.998,2.994l-1.849-1.846l2.998-2.994l-2.073-2.07l-1.69,1.688l-1.849-1.846l1.69-1.689l-2.073-2.07
	l-2.998,2.994l-1.848-1.847l2.997-2.994l-2.073-2.07l-1.69,1.688l-1.849-1.846l2.615-2.612l0.005,0.005l0.924-0.923L64,51.661z
	 M59.134,13.9L13.952,59.019c-0.162,0.162-0.364,0.278-0.585,0.338l-9.791,2.622c-0.113,0.03-0.226,0.045-0.339,0.045
	c-0.342,0-0.676-0.135-0.924-0.383c-0.331-0.33-0.46-0.811-0.338-1.261l2.626-9.778c0.059-0.222,0.176-0.424,0.338-0.586
	l16.4-16.377L0,12.331L12.308,0.038L33.647,21.35L50.12,4.899l0.006,0.006c-0.006,0.006,1.078-1.077,1.078-1.077
	c2.486-2.48,6.514-2.483,9.002,0c2.483,2.481,2.483,6.504-0.003,8.986c0,0-1.084,1.083-1.077,1.077l-7.157-7.146L7.035,51.616
	L7.032,51.63l5.306,5.298l0.013-0.002l44.934-44.872L59.134,13.9z M23.188,31.794l6.92-6.911l-1.647-1.645l1.691-1.688l-2.073-2.07
	l-2.998,2.993l-1.849-1.846l2.998-2.994l-2.073-2.07l-1.691,1.688l-1.849-1.846l1.691-1.689l-2.073-2.071l-2.998,2.994l-1.849-1.846
	L18.385,9.8l-2.073-2.07l-1.691,1.688l-1.849-1.846l1.691-1.688l-2.155-2.153l-8.61,8.6L23.188,31.794z"/>
</svg>
