<?xml version="1.0" encoding="iso-8859-1"?>
<!-- Generator: Adobe Illustrator 18.1.1, SVG Export Plug-In . SVG Version: 6.00 Build 0)  -->
<svg version="1.1" id="Layer_1" xmlns="http://www.w3.org/2000/svg" xmlns:xlink="http://www.w3.org/1999/xlink" x="0px" y="0px"
	 viewBox="0 0 64 64" style="enable-background:new 0 0 64 64;" xml:space="preserve">
<g>
	<path d="M62,6v56H6V6H62 M64,4H4v60h60V4L64,4z"/>
</g>
<g>
	<path d="M57.73,2v56H2V2H57.73 M59.73,0H0v60h59.73V0L59.73,0z"/>
</g>
<path style="fill-rule:evenodd;clip-rule:evenodd;" d="M32,49.6c-15.667,0-23.5-17.5-23.5-17.5s7.833-17.5,23.5-17.5
	c16.646,0,23.5,17.5,23.5,17.5S47.667,49.6,32,49.6z M32,16.545c-12.396,0-19.615,12.28-21.318,15.554
	C12.389,35.364,19.639,47.656,32,47.656c12.455,0,19.684-12.398,21.342-15.599C51.839,28.862,45.186,16.545,32,16.545z M32,37.934
	c-3.244,0-5.875-2.613-5.875-5.834c0-0.465,0.061-0.917,0.165-1.352c0.378,0.237,0.823,0.38,1.304,0.38
	c1.352,0,2.448-1.088,2.448-2.431c0-0.695-0.298-1.317-0.769-1.76c0.815-0.427,1.742-0.67,2.727-0.67
	c3.245,0,5.875,2.612,5.875,5.833S35.244,37.934,32,37.934z M32,28.212c-0.009,0-0.018,0-0.028,0C31.99,28.373,32,28.534,32,28.697
	c0,2.209-1.657,4.042-3.803,4.334c0.422,1.696,1.967,2.958,3.803,2.958c2.16,0,3.917-1.745,3.917-3.889
	C35.917,29.956,34.16,28.212,32,28.212z"/>
</svg>
