<?xml version="1.0" encoding="iso-8859-1"?>
<!-- Generator: Adobe Illustrator 18.1.1, SVG Export Plug-In . SVG Version: 6.00 Build 0)  -->
<svg version="1.1" id="Layer_1" xmlns="http://www.w3.org/2000/svg" xmlns:xlink="http://www.w3.org/1999/xlink" x="0px" y="0px"
	 viewBox="0 0 64 64" style="enable-background:new 0 0 64 64;" xml:space="preserve">
<path d="M63.246,19.51c-0.447-4.456-2.721-8.964-6.401-12.691c-4.182-4.245-9.215-6.582-14.172-6.582
	c-4.32,0-8.347,1.768-11.645,5.111c-3.75,3.796-5.466,8.457-4.963,13.482c0.298,2.934,1.385,5.889,3.141,8.629L12.64,44.255
	l-2.117-2.142c-0.7-0.711-1.461-1.071-2.264-1.071c-0.001,0-0.001,0-0.001,0c-1.426,0-2.5,1.09-3.638,2.243l-1.724,1.752
	c-1.145,1.156-2.227,2.25-2.229,3.699c-0.001,0.815,0.353,1.588,1.053,2.298l2.116,2.145l-1.662,1.684
	c-0.973,0.984-1.508,2.295-1.508,3.689c0,1.391,0.535,2.702,1.509,3.69c1.003,1.013,2.319,1.52,3.636,1.52
	c1.318,0,2.636-0.506,3.639-1.52l27.025-27.402c3.215,2.126,6.71,3.263,10.167,3.263c4.322,0,8.349-1.768,11.646-5.111
	C62.039,29.194,63.753,24.532,63.246,19.51z M3.493,49.238c-0.2-0.202-0.32-0.389-0.319-0.498c0-0.396,0.862-1.266,1.491-1.901
	l1.728-1.756c0.624-0.632,1.477-1.499,1.864-1.499c0.107,0,0.291,0.12,0.493,0.326l2.117,2.143l-5.258,5.33L3.493,49.238z
	 M7.68,60.445c-1.029,1.039-2.704,1.042-3.733,0c-0.499-0.505-0.774-1.177-0.774-1.892c0-0.715,0.275-1.386,0.774-1.892
	l26.755-27.124c0.548,0.683,1.138,1.346,1.771,1.988c0.634,0.643,1.287,1.242,1.957,1.797L7.68,60.445z M56.517,31.194
	c-2.818,2.857-6.232,4.368-9.874,4.368c-4.289,0-8.691-2.071-12.398-5.834c-3.273-3.316-5.293-7.278-5.686-11.156
	c-0.425-4.238,1.042-8.189,4.241-11.427c2.817-2.857,6.231-4.367,9.872-4.367c4.286,0,8.69,2.072,12.399,5.838
	c3.275,3.316,5.292,7.276,5.68,11.153C61.18,24.004,59.716,27.954,56.517,31.194z M52.012,11.718
	C49.337,9,46.182,7.503,43.128,7.503c-2.582,0-4.917,1.037-6.937,3.081c-2.255,2.286-3.289,5.062-2.991,8.029
	c0.282,2.769,1.739,5.615,4.105,8.013c2.682,2.715,5.837,4.21,8.884,4.21c2.584,0,4.918-1.037,6.937-3.083
	c2.255-2.284,3.289-5.061,2.99-8.029C55.834,16.952,54.376,14.108,52.012,11.718z M51.353,25.955c-1.532,1.553-3.27,2.34-5.165,2.34
	c-2.378,0-4.903-1.232-7.111-3.467c-1.96-1.987-3.161-4.286-3.383-6.474c-0.219-2.18,0.565-4.246,2.268-5.973
	c1.534-1.551,3.272-2.338,5.166-2.338c2.383,0,4.908,1.231,7.111,3.47c1.958,1.98,3.16,4.278,3.382,6.469
	C53.841,22.164,53.057,24.23,51.353,25.955z"/>
</svg>
