<?xml version="1.0" encoding="iso-8859-1"?>
<!-- Generator: Adobe Illustrator 18.1.1, SVG Export Plug-In . SVG Version: 6.00 Build 0)  -->
<svg version="1.1" id="Layer_1" xmlns="http://www.w3.org/2000/svg" xmlns:xlink="http://www.w3.org/1999/xlink" x="0px" y="0px"
	 viewBox="0 0 64 64" style="enable-background:new 0 0 64 64;" xml:space="preserve">
<path d="M64,29.438c0-3.133-2.263-5.748-5.239-6.295L46.037,8.419c0.028-0.244,0.042-0.493,0.042-0.745
	c0-3.529-2.871-6.401-6.4-6.401c-2.086,0-3.944,1.004-5.112,2.554L22.715,4.913c-0.866-2.744-3.371-4.762-6.392-4.893
	c-0.212-0.03-0.455-0.03-0.625,0.001C11.92,0.182,8.96,3.264,8.96,7.034v6.382C3.651,16.666,0,23.199,0,29.587
	c0,0.311,0.114,0.612,0.319,0.845c0.371,0.423,3.96,4.127,15.681,4.127c11.843,0,15.337-3.721,15.697-4.146
	C31.892,30.182,32,29.888,32,29.585c0-6.387-3.651-12.919-8.96-16.169v-0.815l11.549-1.052c1.17,1.534,3.016,2.527,5.091,2.527
	c0.352,0,0.698-0.029,1.034-0.083l11.049,12.823c-0.361,0.801-0.562,1.688-0.562,2.622c0,1.168,0.314,2.264,0.862,3.208
	L38.204,53.761h-8.947c-3.428,0-6.217,2.872-6.217,6.401v2.561c0,0.708,0.573,1.28,1.28,1.28h34.56c0.707,0,1.28-0.572,1.28-1.28
	v-2.561c0-3.529-2.789-6.401-6.218-6.401h-6.585l11.797-18.114C61.935,34.951,64,32.431,64,29.438z M11.52,7.034
	c0-2.395,1.884-4.352,4.31-4.457c0.071-0.004,0.141-0.013,0.128-0.023c0.043,0.006,0.191,0.022,0.234,0.024
	c2.193,0.095,3.953,1.731,4.245,3.835c0.003,0.029,0.007,0.057,0.011,0.086c0.021,0.175,0.032,0.354,0.032,0.535v4.383
	c0,0.009,0,0.018,0,0.028v2.418c-2.797,0.282-6.169,0.282-8.96,0V7.034z M29.429,29.024c-1.033,0.794-4.669,2.974-13.429,2.974
	c-8.762,0-12.399-2.182-13.429-2.973c0.197-4.919,2.952-10.01,6.859-12.846c1.983,0.303,4.19,0.457,6.569,0.457
	c2.376,0,4.583-0.153,6.57-0.457C26.477,19.015,29.232,24.105,29.429,29.024z M23.04,10.03V7.455l10.346-0.947
	c-0.07,0.378-0.106,0.769-0.106,1.167c0,0.483,0.054,0.954,0.156,1.408L23.04,10.03z M39.68,11.515c-1.412,0-2.65-0.767-3.316-1.906
	c-0.014-0.026-0.029-0.051-0.044-0.076c-0.305-0.551-0.48-1.185-0.48-1.858c0-0.709,0.194-1.374,0.53-1.945
	c0.01-0.016,0.02-0.032,0.029-0.049c0.675-1.106,1.894-1.847,3.281-1.847c2.117,0,3.84,1.723,3.84,3.841
	c0,0.271-0.028,0.535-0.081,0.789c-0.01,0.037-0.019,0.073-0.025,0.108C43.009,10.259,41.489,11.515,39.68,11.515z M43.235,12.995
	c0.715-0.48,1.329-1.099,1.8-1.82l10.536,12.19c-0.846,0.284-1.612,0.739-2.26,1.325L43.235,12.995z M53.942,56.322
	c2.016,0,3.657,1.723,3.657,3.84v1.28h-32v-1.28c0-2.118,1.641-3.84,3.657-3.84h9.618c0.013,0,0.025,0,0.038,0h6.064
	c0.013,0,0.024,0,0.039,0H53.942z M44.302,53.761h-3.036l12.569-19.15c0.668,0.486,1.431,0.848,2.258,1.047L44.302,53.761z
	 M58.169,33.236c-0.186,0.029-0.376,0.042-0.569,0.042c-2.117,0-3.84-1.723-3.84-3.841c0-2.118,1.723-3.841,3.84-3.841
	c0.109,0,0.216,0.004,0.321,0.013c0.04,0.005,0.08,0.01,0.12,0.012c1.91,0.219,3.399,1.847,3.399,3.816
	c0,1.914-1.409,3.507-3.244,3.795C58.187,33.233,58.178,33.235,58.169,33.236z"/>
</svg>
