<?xml version="1.0" encoding="iso-8859-1"?>
<!-- Generator: Adobe Illustrator 18.1.1, SVG Export Plug-In . SVG Version: 6.00 Build 0)  -->
<svg version="1.1" id="Layer_1" xmlns="http://www.w3.org/2000/svg" xmlns:xlink="http://www.w3.org/1999/xlink" x="0px" y="0px"
	 viewBox="0 0 64 64" style="enable-background:new 0 0 64 64;" xml:space="preserve">
<g>
	<path d="M62,6v56H6V6H62 M64,4H4v60h60V4L64,4z"/>
</g>
<g>
	<path d="M57.73,2v56H2V2H57.73 M59.73,0H0v60h59.73V0L59.73,0z"/>
</g>
<g>
	<g>
		<path style="fill-rule:evenodd;clip-rule:evenodd;" d="M32.323,45.948c-1.521,0-2.755,1.284-2.755,2.87
			c0,1.584,1.234,2.87,2.755,2.87c1.521,0,2.755-1.285,2.755-2.87C35.079,47.232,33.845,45.948,32.323,45.948z M32.323,49.813
			c-0.527,0-0.955-0.448-0.955-0.995c0-0.549,0.428-0.995,0.955-0.995s0.955,0.446,0.955,0.995
			C33.279,49.365,32.85,49.813,32.323,49.813z M34.7,13.25h-5.4v1.875h5.4V13.25z M18.5,9.5V54.5h27V9.5H18.5z M43.5,52.5h-23v-41
			h23V52.5z"/>
	</g>
</g>
</svg>
