<?xml version="1.0" encoding="iso-8859-1"?>
<!-- Generator: Adobe Illustrator 18.1.1, SVG Export Plug-In . SVG Version: 6.00 Build 0)  -->
<svg version="1.1" id="Layer_1" xmlns="http://www.w3.org/2000/svg" xmlns:xlink="http://www.w3.org/1999/xlink" x="0px" y="0px"
	 viewBox="0 0 64 64" style="enable-background:new 0 0 64 64;" xml:space="preserve">
<path d="M63.554,0.446c-0.442-0.441-1.107-0.57-1.68-0.322L0.922,26.336c-0.545,0.234-0.904,0.763-0.921,1.356
	c-0.017,0.593,0.311,1.141,0.841,1.407l22.7,11.35l11.368,22.71c0.259,0.518,0.787,0.842,1.363,0.842c0.015,0,0.03,0,0.045,0
	c0.592-0.018,1.121-0.378,1.356-0.922L63.877,2.125C64.122,1.552,63.994,0.887,63.554,0.446z M5.139,27.839L55.784,6.06
	L24.383,37.461L5.139,27.839z M36.168,58.862l-9.633-19.243L57.942,8.212L36.168,58.862z"/>
</svg>
