<?xml version="1.0" encoding="iso-8859-1"?>
<!-- Generator: Adobe Illustrator 18.1.1, SVG Export Plug-In . SVG Version: 6.00 Build 0)  -->
<svg version="1.1" id="Layer_1" xmlns="http://www.w3.org/2000/svg" xmlns:xlink="http://www.w3.org/1999/xlink" x="0px" y="0px"
	 viewBox="0 0 64 64" style="enable-background:new 0 0 64 64;" xml:space="preserve">
<path d="M32.402,23.053c-4.941,0-8.96,4.013-8.96,8.948c0,4.934,4.019,8.948,8.96,8.948c4.94,0,8.96-4.014,8.96-8.948
	C41.362,27.066,37.342,23.053,32.402,23.053z M32.402,38.392c-3.529,0-6.4-2.868-6.4-6.392c0-3.524,2.871-6.391,6.4-6.391
	c3.529,0,6.4,2.867,6.4,6.391C38.802,35.525,35.93,38.392,32.402,38.392z M63.328,26.847l-6.831-1.115
	c-0.579-2.224-1.465-4.349-2.644-6.338l3.991-5.678c0.357-0.509,0.298-1.2-0.143-1.639l-5.43-5.423
	c-0.443-0.443-1.142-0.498-1.652-0.134l-5.629,4.039c-1.998-1.173-4.128-2.056-6.351-2.63l-1.198-6.828
	c-0.107-0.612-0.64-1.058-1.261-1.058H28.5c-0.627,0-1.162,0.454-1.263,1.073l-1.116,6.825c-2.198,0.572-4.308,1.446-6.29,2.607
	l-5.655-4.035c-0.511-0.363-1.206-0.305-1.649,0.136l-5.433,5.423c-0.439,0.438-0.5,1.129-0.144,1.636l3.991,5.695
	c-1.171,1.984-2.053,4.098-2.63,6.307l-6.841,1.137c-0.618,0.103-1.07,0.636-1.07,1.261v7.67c0,0.621,0.446,1.151,1.057,1.258
	L8.3,38.248c0.573,2.205,1.451,4.319,2.618,6.306l-4.042,5.643c-0.364,0.509-0.306,1.206,0.136,1.648l5.429,5.422
	c0.438,0.437,1.13,0.498,1.639,0.143l5.701-3.982c1.981,1.168,4.098,2.049,6.315,2.627l1.141,6.836
	c0.103,0.616,0.637,1.068,1.262,1.068h7.68c0.621,0,1.153-0.444,1.26-1.054l1.214-6.835c2.236-0.578,4.374-1.466,6.375-2.646
	l5.691,3.985c0.509,0.358,1.201,0.298,1.64-0.142l5.429-5.422c0.444-0.443,0.5-1.143,0.134-1.65l-4.049-5.621
	c1.175-1.992,2.057-4.118,2.631-6.339l6.837-1.198c0.613-0.107,1.059-0.639,1.059-1.259v-7.67
	C64.402,27.481,63.946,26.948,63.328,26.847z M61.842,34.704l-6.606,1.156c-0.51,0.09-0.916,0.478-1.029,0.984
	c-0.556,2.514-1.549,4.903-2.949,7.1c-0.281,0.442-0.265,1.009,0.041,1.433l3.91,5.427l-3.899,3.894l-5.5-3.852
	c-0.424-0.298-0.987-0.312-1.424-0.031c-2.2,1.403-4.598,2.397-7.124,2.956c-0.505,0.112-0.893,0.517-0.983,1.024l-1.173,6.604
	h-5.523l-1.102-6.602c-0.086-0.514-0.474-0.923-0.983-1.037c-2.513-0.561-4.893-1.55-7.075-2.941
	c-0.437-0.279-0.997-0.267-1.422,0.03L13.493,54.7L9.59,50.803l3.902-5.449c0.303-0.423,0.319-0.988,0.04-1.428
	c-1.391-2.194-2.379-4.572-2.935-7.068c-0.112-0.504-0.517-0.892-1.026-0.981l-6.61-1.169v-5.516l6.605-1.098
	c0.514-0.085,0.926-0.474,1.039-0.982c0.56-2.502,1.551-4.879,2.946-7.068c0.278-0.436,0.266-0.997-0.031-1.419l-3.857-5.502
	l3.906-3.898l5.461,3.896c0.424,0.302,0.989,0.318,1.429,0.04c2.194-1.387,4.571-2.372,7.065-2.926
	c0.511-0.114,0.901-0.526,0.985-1.042L29.588,2.6h5.517l1.156,6.596c0.09,0.509,0.479,0.915,0.984,1.027
	c2.519,0.558,4.913,1.55,7.116,2.949c0.441,0.281,1.006,0.266,1.434-0.041L51.23,9.23l3.901,3.895l-3.858,5.488
	c-0.299,0.424-0.31,0.986-0.031,1.424c1.402,2.191,2.399,4.579,2.959,7.098c0.114,0.51,0.528,0.899,1.044,0.984l6.596,1.076V34.704z
	 M32.402,14.105c-9.881,0-17.92,8.027-17.92,17.894c0,9.868,8.039,17.898,17.92,17.898c9.881,0,17.92-8.03,17.92-17.898
	C50.322,22.132,42.283,14.105,32.402,14.105z M32.402,47.34c-8.469,0-15.36-6.882-15.36-15.341c0-8.458,6.891-15.338,15.36-15.338
	c8.47,0,15.36,6.881,15.36,15.338C47.761,40.458,40.871,47.34,32.402,47.34z"/>
</svg>
