<svg style="position: absolute; width: 0; height: 0;" width="0" height="0" version="1.1" xmlns="http://www.w3.org/2000/svg" xmlns:xlink="http://www.w3.org/1999/xlink">
<defs>
<symbol id="icon-write" viewBox="0 0 32 32">
<title>write</title>
<path class="path1" d="M14.4 11.2c0 1.6 0 3.2 0 4.8 0 1.344-0.448 2.496-1.408 3.456-0.704 0.768-1.6 1.216-2.688 1.408-0.256 0.064-0.512 0.064-0.832 0.064 0-0.512 0-1.088 0-1.6 2.112 0 3.328-1.856 3.2-3.2-1.088 0-2.112 0-3.2 0 0-1.6 0-3.2 0-4.864 1.728-0.064 3.328-0.064 4.928-0.064z"></path>
<path class="path2" d="M22.464 11.2c0 1.6 0 3.136 0 4.736 0 1.344-0.448 2.496-1.408 3.456-0.704 0.768-1.6 1.216-2.688 1.408-0.256 0.064-0.512 0.064-0.768 0.064 0-0.576 0-1.088 0-1.6 1.088 0 1.92-0.448 2.56-1.28 0.448-0.576 0.64-1.216 0.64-1.92-1.088 0-2.176 0-3.264 0 0-1.6 0-3.264 0-4.864 1.728 0 3.328 0 4.928 0z"></path>
</symbol>
<symbol id="icon-pencil" viewBox="0 0 32 32">
<title>pencil</title>
<path class="path1" d="M21.568 22.4c-0.128 0-0.256 0-0.32 0-0.704 0-1.536-0.384-2.304-1.216-0.704-0.704-1.472-1.024-2.176-1.024-1.152 0.064-1.92 0.96-1.92 0.96l-0.512-0.448c0.064-0.064 0.96-1.152 2.432-1.216 0.96-0.064 1.856 0.384 2.688 1.216 0.768 0.768 1.472 1.088 2.048 1.024 0.704-0.128 1.088-0.896 1.088-0.896l0.64 0.256c-0.064 0.128-0.576 1.152-1.664 1.344zM20.288 13.888v0l-8.192 8.064h-3.776v-3.84l8.576-8.512 0.512 0.512-0.064 0.064 2.88 2.816 0.512 0.448-0.448 0.448zM9.024 21.248h2.816l6.272-6.144-2.88-2.816-6.208 6.144v2.816zM16.896 10.56l-1.216 1.216 2.88 2.816 1.216-1.216-2.88-2.816z"></path>
</symbol>
<symbol id="icon-calendar" viewBox="0 0 32 32">
<title>calendar</title>
<path class="path1" d="M8.96 23.488v-12.928h2.624v-1.152h0.576v1.152h7.68v-1.152h0.576v1.152h2.624v12.928h-14.080zM22.464 11.136h-2.048v0.576h-0.576v-0.576h-7.68v0.576h-0.576v-0.576h-2.048v2.368h12.928v-2.368zM22.464 14.080h-12.928v8.832h12.928v-8.832zM12.48 18.816h-1.152v-1.152h1.152v1.152zM12.48 20.864h-1.152v-1.152h1.152v1.152zM14.528 16.768h-1.152v-1.152h1.152v1.152zM14.528 18.816h-1.152v-1.152h1.152v1.152zM14.528 20.864h-1.152v-1.152h1.152v1.152zM16.576 16.768h-1.152v-1.152h1.152v1.152zM16.576 18.816h-1.152v-1.152h1.152v1.152zM16.576 20.864h-1.152v-1.152h1.152v1.152zM18.624 16.768h-1.152v-1.152h1.152v1.152zM18.624 18.816h-1.152v-1.152h1.152v1.152zM18.624 20.864h-1.152v-1.152h1.152v1.152zM20.672 16.768h-1.152v-1.152h1.152v1.152zM20.672 18.816h-1.152v-1.152h1.152v1.152z"></path>
</symbol>
<symbol id="icon-burger" viewBox="0 0 32 32">
<title>burger</title>
<path class="path1" d="M26.881 19.061h-21.424c-0.422 0-0.765 0.343-0.765 0.765s0.343 0.765 0.765 0.765h21.425c0.422 0 0.765-0.342 0.765-0.765s-0.343-0.765-0.766-0.765zM26.881 15.235h-21.424c-0.422 0-0.765 0.343-0.765 0.765s0.343 0.765 0.765 0.765h21.425c0.422 0 0.765-0.343 0.765-0.765s-0.343-0.765-0.766-0.765zM5.457 12.939h21.425c0.422 0 0.765-0.342 0.765-0.765s-0.343-0.765-0.765-0.765h-21.425c-0.422 0-0.765 0.342-0.765 0.765s0.343 0.765 0.765 0.765z"></path>
</symbol>
<symbol id="icon-mountains" viewBox="0 0 32 32">
<title>mountains</title>
<path class="path1" d="M21.325 22.686l-6.039-6.040-6.040 6.040-0.646-0.646 6.686-6.686 6.686 6.686z"></path>
<path class="path2" d="M22.583 18.776l-2.339-2.339-2.339 2.339-0.646-0.646 2.985-2.986 2.985 2.986z"></path>
<path class="path3" d="M19.154 13.57c-1.22 0-2.213-0.993-2.213-2.213s0.993-2.213 2.213-2.213c1.221 0 2.213 0.993 2.213 2.213s-0.993 2.213-2.213 2.213zM19.154 10.058c-0.716 0-1.299 0.582-1.299 1.299s0.582 1.299 1.299 1.299c0.716 0 1.299-0.582 1.299-1.299s-0.582-1.299-1.299-1.299z"></path>
</symbol>
<symbol id="icon-arrow" viewBox="0 0 32 32">
<title>arrow</title>
<path class="path1" d="M24.464 17.584l-13.759 13.759c-0.875 0.876-2.294 0.876-3.169 0s-0.875-2.294 0-3.169l12.175-12.175-12.175-12.174c-0.875-0.875-0.875-2.294 0-3.169s2.294-0.875 3.169 0l13.759 13.759c0.437 0.438 0.656 1.011 0.656 1.584s-0.219 1.147-0.656 1.584z"></path>
</symbol>
<symbol id="icon-behance" viewBox="0 0 32 32">
<title>behance</title>
<path class="path1" d="M28.898 8.862h-8.018v-1.992h8.019v1.992h-0.001zM15.543 17.029c0.517 0.801 0.776 1.774 0.776 2.917 0 1.181-0.291 2.241-0.884 3.177-0.377 0.619-0.846 1.143-1.409 1.564-0.634 0.487-1.384 0.821-2.247 1-0.865 0.179-1.802 0.269-2.811 0.269h-8.967v-19.911h9.616c2.424 0.039 4.142 0.742 5.157 2.121 0.609 0.846 0.911 1.861 0.911 3.040 0 1.217-0.305 2.191-0.92 2.931-0.342 0.415-0.847 0.792-1.516 1.133 1.013 0.371 1.782 0.955 2.295 1.759zM4.592 13.894h4.213c0.866 0 1.566-0.165 2.105-0.494s0.807-0.912 0.807-1.751c0-0.926-0.356-1.541-1.069-1.837-0.613-0.206-1.398-0.311-2.35-0.311h-3.706v4.392zM12.123 19.661c0-1.034-0.423-1.749-1.266-2.133-0.472-0.218-1.138-0.329-1.991-0.337h-4.274v5.306h4.208c0.864 0 1.533-0.113 2.016-0.349 0.871-0.434 1.307-1.26 1.307-2.486zM31.873 16.422c0.097 0.651 0.141 1.597 0.123 2.832h-10.384c0.057 1.433 0.552 2.436 1.491 3.009 0.566 0.36 1.252 0.535 2.056 0.535 0.847 0 1.538-0.214 2.069-0.654 0.29-0.233 0.545-0.563 0.766-0.978h3.806c-0.1 0.847-0.558 1.705-1.382 2.578-1.276 1.387-3.066 2.082-5.364 2.082-1.899 0-3.572-0.586-5.024-1.755-1.448-1.173-2.175-3.075-2.175-5.713 0-2.474 0.653-4.368 1.962-5.686 1.315-1.321 3.011-1.978 5.102-1.978 1.24 0 2.357 0.222 3.354 0.667 0.994 0.446 1.815 1.148 2.462 2.112 0.585 0.849 0.962 1.831 1.137 2.95zM28.127 16.794c-0.070-0.991-0.401-1.741-0.997-2.254-0.591-0.514-1.329-0.772-2.21-0.772-0.959 0-1.699 0.276-2.225 0.818-0.53 0.541-0.859 1.277-0.994 2.208l6.426-0z"></path>
</symbol>
<symbol id="icon-coffee" viewBox="0 0 32 32">
<title>coffee</title>
<path class="path1" d="M22.75 21.25v6h-16v-17.5h16v3.5c2.209 0 4 1.791 4 4s-1.791 4-4 4zM21.75 10.75h-14v15.5h14v-15.5zM22.75 14.25v6c1.654 0 3-1.346 3-3s-1.346-3-3-3zM18.25 6.25h1v2h-1v-2zM14.25 4.75h1v3.5h-1v-3.5zM10.25 6.25h1v2h-1v-2z"></path>
</symbol>
<symbol id="icon-compas" viewBox="0 0 32 32">
<title>compas</title>
<path class="path1" d="M16 0c-8.822 0-16 7.178-16 16s7.178 16 16 16 16-7.177 16-16c0-8.822-7.178-16-16-16zM16.64 30.704v-0.624c0-0.354-0.287-0.64-0.64-0.64s-0.64 0.287-0.64 0.64v0.624c-7.608-0.328-13.736-6.456-14.064-14.063h0.624c0.353 0 0.64-0.287 0.64-0.64s-0.287-0.639-0.64-0.639h-0.624c0.328-7.609 6.456-13.737 14.064-14.065v0.623c0 0.353 0.287 0.64 0.64 0.64s0.64-0.286 0.64-0.64v-0.623c7.608 0.328 13.736 6.456 14.064 14.064h-0.624c-0.354 0-0.64 0.287-0.64 0.639s0.287 0.64 0.64 0.64h0.624c-0.328 7.608-6.456 13.736-14.064 14.064zM23.735 7.431l-9.691 6.445c-0.066 0.044-0.124 0.101-0.168 0.168l-6.446 9.692c-0.159 0.238-0.128 0.557 0.075 0.76 0.117 0.116 0.271 0.176 0.426 0.176 0.115 0 0.231-0.034 0.333-0.101l9.691-6.446c0.066-0.044 0.124-0.102 0.168-0.168l6.445-9.69c0.159-0.239 0.127-0.557-0.076-0.76-0.204-0.204-0.521-0.235-0.76-0.077zM14.812 14.812v0l2.376 2.376-7.096 4.72 4.72-7.096z"></path>
</symbol>
<symbol id="icon-design-tools" viewBox="0 0 32 32">
<title>design-tools</title>
<path class="path1" d="M32 25.831l-6.154 6.145-10.114-10.101 0.924-0.923 9.19 9.178 4.305-4.299-0.424-0.424-0.845 0.845-0.924-0.924 0.845-0.844-1.037-1.035-1.499 1.497-0.924-0.923 1.499-1.497-1.037-1.035-0.845 0.844-0.924-0.923 0.845-0.845-1.037-1.035-1.499 1.497-0.924-0.924 1.498-1.497-1.037-1.035-0.845 0.844-0.924-0.923 1.308-1.306 0.003 0.003 0.462-0.462 10.114 10.101zM29.567 6.95l-22.591 22.559c-0.081 0.081-0.182 0.139-0.293 0.169l-4.896 1.311c-0.056 0.015-0.113 0.023-0.169 0.023-0.171 0-0.338-0.067-0.462-0.192-0.165-0.165-0.23-0.405-0.169-0.631l1.313-4.889c0.030-0.111 0.088-0.212 0.169-0.293l8.2-8.189-10.669-10.654 6.154-6.146 10.669 10.656 8.239-8.223c-0.003 0.003 0.539-0.538 0.539-0.538 1.243-1.24 3.257-1.242 4.501 0 1.241 1.24 1.241 3.252-0.002 4.493 0 0-0.542 0.542-0.538 0.538l-3.579-3.573-22.468 22.442 2.653 2.649 0.006-0.001 22.467-22.436 0.924 0.923zM11.594 15.897l3.46-3.455-0.823-0.822 0.845-0.844-1.037-1.035-1.499 1.496-0.925-0.923 1.499-1.497-1.037-1.035-0.845 0.844-0.925-0.923 0.845-0.845-1.037-1.035-1.499 1.497-0.925-0.923 1.498-1.497-1.037-1.035-0.846 0.844-0.925-0.923 0.846-0.844-1.077-1.077-4.305 4.3 9.745 9.732z"></path>
</symbol>
<symbol id="icon-email" viewBox="0 0 32 32">
<title>email</title>
<path class="path1" d="M16 20.48l-10.667-6.667v10.187h21.333v-10.187l-10.667 6.667zM5.333 10.667l10.667 6.667 10.667-6.667-10.667-6.667-10.667 6.667zM29.333 10.667v13.333c0 1.473-1.194 2.667-2.667 2.667h-21.333c-1.473 0-2.667-1.194-2.667-2.667v-13.333c0-0.973 0.52-1.813 1.293-2.28l12.040-7.533 12.040 7.533c0.773 0.467 1.293 1.307 1.293 2.28z"></path>
</symbol>
<symbol id="icon-eye" viewBox="0 0 32 32">
<title>eye</title>
<path class="path1" d="M16 24.8c-7.834 0-11.75-8.75-11.75-8.75s3.916-8.75 11.75-8.75c8.323 0 11.75 8.75 11.75 8.75s-3.916 8.75-11.75 8.75zM16 8.273c-6.198 0-9.807 6.14-10.659 7.777 0.854 1.633 4.479 7.779 10.659 7.779 6.227 0 9.842-6.199 10.671-7.8-0.752-1.598-4.078-7.756-10.671-7.756zM16 18.967c-1.622 0-2.938-1.306-2.938-2.917 0-0.232 0.030-0.459 0.082-0.676 0.189 0.118 0.412 0.19 0.652 0.19 0.676 0 1.224-0.544 1.224-1.216 0-0.348-0.149-0.659-0.384-0.88 0.408-0.213 0.871-0.335 1.364-0.335 1.622 0 2.938 1.306 2.938 2.916s-1.316 2.917-2.938 2.917zM16 14.106c-0.005 0-0.009 0-0.014 0 0.009 0.081 0.014 0.161 0.014 0.242 0 1.104-0.829 2.021-1.902 2.167 0.211 0.848 0.983 1.479 1.902 1.479 1.080 0 1.959-0.872 1.959-1.945s-0.878-1.944-1.959-1.944z"></path>
</symbol>
<symbol id="icon-facebook" viewBox="0 0 32 32">
<title>facebook</title>
<path class="path1" d="M23.999 0.007l-4.15-0.007c-4.662 0-7.675 3.091-7.675 7.875v3.631h-4.172c-0.361 0-0.652 0.292-0.652 0.653v5.261c0 0.361 0.292 0.652 0.652 0.652h4.172v13.275c0 0.361 0.292 0.653 0.652 0.653h5.444c0.361 0 0.652-0.292 0.652-0.652v-13.275h4.878c0.361 0 0.652-0.292 0.652-0.652l0.002-5.261c0-0.173-0.069-0.339-0.191-0.461s-0.289-0.191-0.462-0.191h-4.88v-3.078c0-1.479 0.353-2.23 2.28-2.23l2.795-0.001c0.36 0 0.652-0.292 0.652-0.652v-4.885c0-0.36-0.292-0.652-0.651-0.652z"></path>
</symbol>
<symbol id="icon-key" viewBox="0 0 32 32">
<title>key</title>
<path class="path1" d="M31.623 9.755c-0.224-2.228-1.36-4.482-3.201-6.346-2.091-2.123-4.608-3.291-7.086-3.291-2.16 0-4.174 0.884-5.822 2.555-1.875 1.898-2.733 4.229-2.482 6.741 0.149 1.467 0.693 2.944 1.571 4.314l-8.283 8.398-1.059-1.071c-0.35-0.355-0.731-0.535-1.132-0.535-0 0-0 0-0 0-0.713 0-1.25 0.545-1.819 1.122l-0.862 0.876c-0.573 0.578-1.113 1.125-1.115 1.849-0.001 0.407 0.176 0.794 0.526 1.149l1.058 1.073-0.831 0.842c-0.486 0.492-0.754 1.148-0.754 1.845 0 0.695 0.268 1.351 0.754 1.845 0.502 0.506 1.159 0.76 1.818 0.76s1.318-0.253 1.82-0.76l13.512-13.701c1.607 1.063 3.355 1.631 5.084 1.631 2.161 0 4.174-0.884 5.823-2.555 1.875-1.899 2.732-4.23 2.479-6.741zM1.746 24.619c-0.1-0.101-0.16-0.195-0.159-0.249 0-0.198 0.431-0.633 0.746-0.951l0.864-0.878c0.312-0.316 0.739-0.75 0.932-0.75 0.053 0 0.146 0.060 0.247 0.163l1.059 1.072-2.629 2.665-1.058-1.073zM3.84 30.223c-0.514 0.52-1.352 0.521-1.867 0-0.25-0.253-0.387-0.588-0.387-0.946s0.137-0.693 0.387-0.946l13.377-13.562c0.274 0.341 0.569 0.673 0.886 0.994s0.643 0.621 0.979 0.899l-13.375 13.561zM28.259 15.597c-1.409 1.429-3.116 2.184-4.937 2.184-2.145 0-4.346-1.035-6.199-2.917-1.636-1.658-2.646-3.639-2.843-5.578-0.213-2.119 0.521-4.095 2.12-5.713 1.409-1.429 3.116-2.183 4.936-2.183 2.143 0 4.345 1.036 6.2 2.919 1.637 1.658 2.646 3.638 2.84 5.577 0.215 2.117-0.517 4.093-2.117 5.713zM26.006 5.859c-1.337-1.359-2.915-2.107-4.442-2.107-1.291 0-2.459 0.518-3.468 1.54-1.128 1.143-1.645 2.531-1.495 4.014 0.141 1.384 0.869 2.808 2.053 4.006 1.341 1.357 2.919 2.105 4.442 2.105 1.292 0 2.459-0.518 3.468-1.541 1.128-1.142 1.645-2.53 1.495-4.014-0.141-1.386-0.87-2.808-2.052-4.003zM25.677 12.977c-0.766 0.777-1.635 1.17-2.582 1.17-1.189 0-2.451-0.616-3.555-1.733-0.98-0.993-1.581-2.143-1.692-3.237-0.11-1.090 0.282-2.123 1.134-2.986 0.767-0.776 1.636-1.169 2.583-1.169 1.192 0 2.454 0.615 3.555 1.735 0.979 0.99 1.58 2.139 1.691 3.234 0.11 1.091-0.282 2.124-1.134 2.986z"></path>
</symbol>
<symbol id="icon-lamp" viewBox="0 0 32 32">
<title>lamp</title>
<path class="path1" d="M32 14.719c0-1.566-1.131-2.874-2.619-3.147l-6.362-7.362c0.014-0.122 0.021-0.247 0.021-0.373 0-1.764-1.436-3.2-3.2-3.2-1.043 0-1.972 0.502-2.556 1.277l-5.926 0.543c-0.433-1.372-1.685-2.381-3.196-2.446-0.106-0.015-0.228-0.015-0.313 0.001-1.889 0.081-3.369 1.621-3.369 3.506v3.191c-2.655 1.625-4.48 4.891-4.48 8.085 0 0.155 0.057 0.306 0.16 0.422 0.185 0.211 1.98 2.063 7.84 2.063 5.921 0 7.668-1.861 7.848-2.073 0.098-0.116 0.152-0.262 0.152-0.414 0-3.194-1.825-6.46-4.48-8.085v-0.407l5.774-0.526c0.585 0.767 1.508 1.263 2.546 1.263 0.176 0 0.349-0.014 0.517-0.042l5.524 6.411c-0.18 0.4-0.281 0.844-0.281 1.311 0 0.584 0.157 1.132 0.431 1.604l-6.93 10.558h-4.473c-1.714 0-3.108 1.436-3.108 3.2v1.28c0 0.354 0.287 0.64 0.64 0.64h17.28c0.354 0 0.64-0.286 0.64-0.64v-1.28c0-1.765-1.395-3.201-3.109-3.201h-3.293l5.899-9.057c1.39-0.348 2.423-1.608 2.423-3.104zM5.76 3.517c0-1.198 0.942-2.176 2.155-2.228 0.035-0.002 0.071-0.006 0.064-0.012 0.021 0.003 0.095 0.011 0.117 0.012 1.097 0.048 1.976 0.866 2.123 1.918 0.002 0.014 0.004 0.029 0.005 0.043 0.011 0.087 0.016 0.177 0.016 0.268v2.192c0 0.005 0 0.009 0 0.014v1.209c-1.399 0.141-3.085 0.141-4.48 0v-3.414zM14.714 14.512c-0.517 0.397-2.335 1.487-6.715 1.487-4.381 0-6.199-1.091-6.715-1.486 0.099-2.46 1.476-5.005 3.429-6.423 0.992 0.152 2.095 0.229 3.285 0.229 1.188 0 2.292-0.076 3.285-0.229 1.954 1.418 3.332 3.963 3.43 6.422zM11.52 5.015v-1.288l5.173-0.474c-0.035 0.189-0.053 0.385-0.053 0.583 0 0.242 0.027 0.477 0.078 0.704l-5.198 0.473zM19.84 5.758c-0.706 0-1.325-0.383-1.658-0.953-0.007-0.013-0.015-0.026-0.022-0.038-0.152-0.276-0.24-0.593-0.24-0.929 0-0.354 0.097-0.687 0.265-0.973 0.005-0.008 0.010-0.016 0.015-0.025 0.337-0.553 0.947-0.923 1.64-0.923 1.058 0 1.92 0.862 1.92 1.921 0 0.135-0.014 0.268-0.041 0.394-0.005 0.019-0.009 0.037-0.012 0.054-0.203 0.843-0.962 1.471-1.867 1.471zM21.617 6.497c0.358-0.24 0.665-0.55 0.9-0.91l5.268 6.095c-0.423 0.142-0.806 0.37-1.13 0.662l-5.038-5.848zM26.971 28.161c1.008 0 1.829 0.861 1.829 1.92v0.64h-16v-0.64c0-1.059 0.82-1.92 1.829-1.92h4.809c0.006 0 0.012 0 0.019 0h3.032c0.006 0 0.012 0 0.020 0h4.463zM22.151 26.881h-1.518l6.285-9.575c0.334 0.243 0.715 0.424 1.129 0.523l-5.895 9.052zM29.084 16.618c-0.093 0.015-0.188 0.021-0.285 0.021-1.058 0-1.92-0.861-1.92-1.921s0.861-1.921 1.92-1.921c0.055 0 0.108 0.002 0.16 0.007 0.020 0.002 0.040 0.005 0.060 0.006 0.955 0.11 1.7 0.924 1.7 1.908 0 0.957-0.704 1.753-1.622 1.898-0.005 0-0.009 0.002-0.014 0.002z"></path>
</symbol>
<symbol id="icon-phone" viewBox="0 0 32 32">
<title>phone</title>
<path class="path1" d="M16.162 22.974c-0.761 0-1.377 0.642-1.377 1.435s0.617 1.435 1.377 1.435 1.378-0.642 1.378-1.435c0-0.793-0.616-1.435-1.378-1.435zM16.162 24.907c-0.264 0-0.477-0.224-0.477-0.497 0-0.274 0.214-0.497 0.477-0.497s0.477 0.223 0.477 0.497c0 0.273-0.214 0.497-0.477 0.497zM17.35 6.625h-2.7v0.938h2.7v-0.938zM9.25 4.75v22.5h13.5v-22.5h-13.5zM21.75 26.25h-11.5v-20.5h11.5v20.5z"></path>
</symbol>
<symbol id="icon-plane" viewBox="0 0 32 32">
<title>plane</title>
<path class="path1" d="M31.777 0.223c-0.221-0.221-0.553-0.285-0.84-0.161l-30.476 13.106c-0.273 0.117-0.452 0.382-0.461 0.678s0.155 0.57 0.42 0.704l11.35 5.675 5.684 11.355c0.13 0.259 0.393 0.421 0.681 0.421 0.008 0 0.015 0 0.023 0 0.296-0.009 0.561-0.189 0.678-0.461l13.102-30.477c0.123-0.286 0.058-0.619-0.162-0.84zM2.57 13.919l25.323-10.889-15.7 15.7-9.622-4.811zM18.084 29.431l-4.816-9.622 15.704-15.704-10.887 25.325z"></path>
</symbol>
<symbol id="icon-settings" viewBox="0 0 32 32">
<title>settings</title>
<path class="path1" d="M16.201 11.527c-2.47 0-4.48 2.007-4.48 4.474s2.009 4.474 4.48 4.474c2.47 0 4.48-2.007 4.48-4.474s-2.010-4.474-4.48-4.474zM16.201 19.196c-1.764 0-3.2-1.434-3.2-3.196s1.435-3.195 3.2-3.195c1.764 0 3.2 1.434 3.2 3.195s-1.436 3.196-3.2 3.196zM31.664 13.424l-3.416-0.557c-0.29-1.112-0.733-2.175-1.322-3.169l1.995-2.839c0.178-0.255 0.149-0.6-0.072-0.819l-2.715-2.712c-0.221-0.221-0.571-0.249-0.826-0.067l-2.814 2.019c-0.999-0.587-2.064-1.028-3.175-1.315l-0.599-3.414c-0.053-0.306-0.32-0.529-0.631-0.529h-3.84c-0.313 0-0.581 0.227-0.631 0.536l-0.558 3.413c-1.099 0.286-2.154 0.723-3.145 1.304l-2.828-2.018c-0.255-0.181-0.603-0.152-0.825 0.068l-2.716 2.712c-0.22 0.219-0.25 0.564-0.072 0.818l1.995 2.848c-0.585 0.992-1.026 2.049-1.315 3.153l-3.421 0.569c-0.309 0.052-0.535 0.318-0.535 0.63v3.835c0 0.311 0.223 0.576 0.528 0.629l3.421 0.606c0.287 1.102 0.726 2.16 1.309 3.153l-2.021 2.822c-0.182 0.255-0.153 0.603 0.068 0.824l2.714 2.711c0.219 0.218 0.565 0.249 0.819 0.072l2.851-1.991c0.991 0.584 2.049 1.024 3.158 1.314l0.571 3.418c0.052 0.308 0.319 0.534 0.631 0.534h3.84c0.311 0 0.576-0.222 0.63-0.527l0.607-3.418c1.118-0.289 2.187-0.733 3.188-1.323l2.846 1.992c0.255 0.179 0.601 0.149 0.82-0.071l2.715-2.711c0.222-0.221 0.25-0.572 0.067-0.825l-2.024-2.811c0.587-0.996 1.029-2.059 1.316-3.169l3.419-0.599c0.306-0.053 0.529-0.32 0.529-0.63v-3.835c0.001-0.313-0.227-0.58-0.536-0.63zM30.921 17.352l-3.303 0.578c-0.255 0.045-0.458 0.239-0.515 0.492-0.278 1.257-0.774 2.451-1.474 3.55-0.14 0.221-0.133 0.505 0.020 0.716l1.955 2.713-1.95 1.947-2.75-1.926c-0.212-0.149-0.494-0.156-0.712-0.015-1.1 0.701-2.299 1.198-3.562 1.478-0.253 0.056-0.447 0.259-0.491 0.512l-0.587 3.302h-2.761l-0.551-3.301c-0.043-0.257-0.237-0.462-0.492-0.518-1.257-0.28-2.447-0.775-3.537-1.471-0.219-0.14-0.498-0.134-0.711 0.015l-2.754 1.925-1.952-1.948 1.951-2.724c0.152-0.212 0.16-0.494 0.020-0.714-0.696-1.097-1.189-2.286-1.468-3.534-0.056-0.252-0.258-0.446-0.513-0.491l-3.305-0.584v-2.758l3.302-0.549c0.257-0.043 0.463-0.237 0.519-0.491 0.28-1.251 0.776-2.439 1.473-3.534 0.139-0.218 0.133-0.498-0.016-0.71l-1.929-2.751 1.953-1.949 2.731 1.948c0.212 0.151 0.495 0.159 0.714 0.020 1.097-0.694 2.285-1.186 3.533-1.463 0.255-0.057 0.45-0.263 0.492-0.521l0.54-3.296h2.758l0.578 3.298c0.045 0.255 0.239 0.457 0.492 0.513 1.259 0.279 2.457 0.775 3.558 1.474 0.221 0.141 0.503 0.133 0.717-0.021l2.718-1.95 1.951 1.947-1.929 2.744c-0.149 0.212-0.155 0.493-0.015 0.712 0.701 1.095 1.2 2.29 1.48 3.549 0.057 0.255 0.264 0.45 0.522 0.492l3.298 0.538v2.755zM16.201 7.053c-4.941 0-8.96 4.013-8.96 8.947s4.020 8.949 8.96 8.949 8.96-4.015 8.96-8.949c0-4.934-4.020-8.947-8.96-8.947zM16.201 23.67c-4.235 0-7.68-3.441-7.68-7.671s3.445-7.669 7.68-7.669c4.235 0 7.68 3.441 7.68 7.669s-3.445 7.671-7.68 7.671z"></path>
</symbol>
<symbol id="icon-twitter" viewBox="0 0 32 32">
<title>twitter</title>
<path class="path1" d="M32 6.079c-1.178 0.522-2.442 0.876-3.769 1.034 1.356-0.812 2.394-2.1 2.885-3.629-1.272 0.752-2.675 1.298-4.171 1.594-1.198-1.278-2.901-2.074-4.791-2.074-3.625 0-6.565 2.939-6.565 6.563 0 0.514 0.058 1.016 0.17 1.496-5.455-0.274-10.292-2.887-13.529-6.859-0.566 0.968-0.888 2.096-0.888 3.299 0 2.278 1.16 4.287 2.919 5.463-1.076-0.036-2.088-0.332-2.973-0.824v0.082c0 3.179 2.264 5.833 5.265 6.437-0.55 0.148-1.13 0.23-1.73 0.23-0.424 0-0.834-0.042-1.236-0.122 0.836 2.61 3.259 4.507 6.131 4.559-2.246 1.76-5.077 2.805-8.152 2.805-0.53 0-1.052-0.032-1.566-0.090 2.905 1.866 6.355 2.953 10.062 2.953 12.076 0 18.677-10.002 18.677-18.677l-0.022-0.85c1.29-0.92 2.405-2.076 3.283-3.391z"></path>
</symbol>
</defs>
</svg>
